<svg width="24" height="23" viewBox="0 0 24 23" fill="none" xmlns="http://www.w3.org/2000/svg">
<path d="M9.6 0H14.4C15.0365 0 15.647 0.255074 16.0971 0.70911C16.5471 1.16315 16.8 1.77895 16.8 2.42105V4.84211H21.6C22.2365 4.84211 22.847 5.09718 23.2971 5.55122C23.7471 6.00525 24 6.62105 24 7.26316V20.5789C24 21.2211 23.7471 21.8369 23.2971 22.2909C22.847 22.7449 22.2365 23 21.6 23H2.4C1.068 23 0 21.9105 0 20.5789V7.26316C0 5.91947 1.068 4.84211 2.4 4.84211H7.2V2.42105C7.2 1.07737 8.268 0 9.6 0ZM14.4 4.84211V2.42105H9.6V4.84211H14.4Z" fill="white"/>
</svg>
