<svg width="24" height="24" viewBox="0 0 24 24" fill="none" xmlns="http://www.w3.org/2000/svg">
<path d="M12 0C10.4241 0 8.86371 0.310389 7.4078 0.913446C5.95189 1.5165 4.62902 2.40042 3.51472 3.51472C1.26428 5.76516 0 8.8174 0 12C0 15.1826 1.26428 18.2348 3.51472 20.4853C4.62902 21.5996 5.95189 22.4835 7.4078 23.0866C8.86371 23.6896 10.4241 24 12 24C15.1826 24 18.2348 22.7357 20.4853 20.4853C22.7357 18.2348 24 15.1826 24 12C24 10.4241 23.6896 8.86371 23.0866 7.4078C22.4835 5.95189 21.5996 4.62902 20.4853 3.51472C19.371 2.40042 18.0481 1.5165 16.5922 0.913446C15.1363 0.310389 13.5759 0 12 0V0ZM6.324 10.8C6.12 10.452 6 10.032 6 9.6C6 8.268 7.068 7.2 8.4 7.2C9.03652 7.2 9.64697 7.45286 10.0971 7.90294C10.5471 8.35303 10.8 8.96348 10.8 9.6C10.8 10.032 10.68 10.452 10.476 10.8C10.068 10.08 9.288 9.6 8.4 9.6C7.512 9.6 6.732 10.08 6.324 10.8ZM16.8 15.6H15.6C15.6 18 14.52 19.2 13.2 19.2C11.88 19.2 10.8 18 10.8 15.6H7.2V13.2H16.8V15.6ZM17.676 10.8C17.268 10.08 16.488 9.6 15.6 9.6C14.712 9.6 13.932 10.08 13.524 10.8C13.32 10.452 13.2 10.032 13.2 9.6C13.2 8.268 14.268 7.2 15.6 7.2C16.2365 7.2 16.847 7.45286 17.2971 7.90294C17.7471 8.35303 18 8.96348 18 9.6C18 10.032 17.88 10.452 17.676 10.8Z" fill="white"/>
</svg>
