<svg width="20" height="19" viewBox="0 0 20 19" fill="none" xmlns="http://www.w3.org/2000/svg">
<path d="M6 17.5C6 16.6716 6.67157 16 7.5 16H18.5C19.3284 16 20 16.6716 20 17.5V17.5C20 18.3284 19.3284 19 18.5 19H7.5C6.67157 19 6 18.3284 6 17.5V17.5Z" fill="#2A3338"/>
<path d="M18.5 8H7.5C6.67157 8 6 8.67157 6 9.5C6 10.3284 6.67157 11 7.5 11H18.5C19.3284 11 20 10.3284 20 9.5C20 8.67157 19.3284 8 18.5 8Z" fill="#2A3338"/>
<path d="M0 9.5C0 10.3284 0.671573 11 1.5 11C2.32843 11 3 10.3284 3 9.5C3 8.67157 2.32843 8 1.5 8C0.671573 8 0 8.67157 0 9.5Z" fill="#2A3338"/>
<path d="M0 1.5C0 2.32843 0.671573 3 1.5 3C2.32843 3 3 2.32843 3 1.5C3 0.671573 2.32843 0 1.5 0C0.671573 0 0 0.671573 0 1.5Z" fill="#2A3338"/>
<path d="M0 17.5C0 18.3284 0.671573 19 1.5 19C2.32843 19 3 18.3284 3 17.5C3 16.6716 2.32843 16 1.5 16C0.671573 16 0 16.6716 0 17.5Z" fill="#2A3338"/>
<path d="M18.5 0H7.5C6.67157 0 6 0.671573 6 1.5C6 2.32843 6.67157 3 7.5 3H18.5C19.3284 3 20 2.32843 20 1.5C20 0.671573 19.3284 0 18.5 0Z" fill="#2A3338"/>
</svg>
