<svg width="18" height="18" viewBox="0 0 18 18" fill="none" xmlns="http://www.w3.org/2000/svg">
<circle cx="9" cy="9" r="8" fill="white"/>
<path d="M9 0C4.03702 0 0 4.03702 0 9C0 13.963 4.03702 18 9 18C13.963 18 18 13.963 18 9C18 4.03702 13.963 0 9 0ZM14.9517 4.14952C16.0226 5.45841 16.6716 7.12428 16.6868 8.93942C16.4337 8.88534 13.8916 8.37043 11.3344 8.69279C11.2803 8.56082 11.2262 8.42885 11.17 8.29687C11.0099 7.9226 10.8389 7.54832 10.6594 7.18269C13.5 6.02091 14.7894 4.37019 14.9517 4.14952ZM9 1.32404C10.9536 1.32404 12.7385 2.05745 14.095 3.26034C13.9565 3.45721 12.799 5.01274 10.0666 6.03822C8.80745 3.72332 7.41202 1.8238 7.19784 1.53822C7.78846 1.39543 8.39207 1.32404 9 1.32404V1.32404ZM5.73101 2.05529C5.93437 2.33221 7.30817 4.23822 8.58029 6.5012C4.98462 7.45529 1.81731 7.44231 1.47332 7.43798C1.97308 5.05168 3.58053 3.06995 5.73101 2.05529ZM1.31322 9.01082C1.31322 8.93293 1.31538 8.85288 1.31755 8.775C1.65288 8.78149 5.37836 8.82909 9.21851 7.68029C9.43918 8.11082 9.64904 8.54784 9.84159 8.98485C9.7399 9.01298 9.63822 9.04327 9.5387 9.07572C5.57308 10.3608 3.4637 13.8548 3.28846 14.1512C2.06178 12.7882 1.31322 10.9861 1.31322 9.01082ZM9 16.6976C7.22163 16.6976 5.58389 16.0918 4.28149 15.075C4.41995 14.7916 5.97548 11.7865 10.3111 10.2743L10.3608 10.257C11.4404 13.0608 11.8861 15.4125 12.0007 16.0875C11.0524 16.4928 10.0313 16.7004 9 16.6976V16.6976ZM13.2945 15.3844C13.2166 14.9171 12.8077 12.6671 11.8017 9.90433C14.2118 9.51923 16.3276 10.151 16.5894 10.2332C16.2476 12.3707 15.0209 14.2183 13.2945 15.3844V15.3844Z" fill="#161718"/>
</svg>
