<svg width="14" height="14" viewBox="0 0 14 14" fill="none" xmlns="http://www.w3.org/2000/svg">
<path d="M7 0C3.1399 0 0 3.1399 0 7C0 10.8601 3.1399 14 7 14C10.8601 14 14 10.8601 14 7C14 3.1399 10.8601 0 7 0ZM11.6291 3.2274C12.462 4.24543 12.9668 5.54111 12.9786 6.95289C12.7817 6.91082 10.8046 6.51034 8.81563 6.76106C8.77356 6.65841 8.73149 6.55577 8.68774 6.45313C8.56322 6.16202 8.43029 5.87091 8.29063 5.58654C10.5 4.68293 11.5029 3.39904 11.6291 3.2274ZM7 1.02981C8.51947 1.02981 9.90769 1.60024 10.9627 2.53582C10.855 2.68894 9.95481 3.8988 7.82957 4.69639C6.85024 2.89591 5.7649 1.41851 5.59832 1.19639C6.05769 1.08534 6.52716 1.02981 7 1.02981ZM4.45745 1.59856C4.61562 1.81394 5.68413 3.29639 6.67356 5.05649C3.87692 5.79856 1.41346 5.78846 1.14591 5.7851C1.53462 3.92909 2.78486 2.38774 4.45745 1.59856ZM1.02139 7.00841C1.02139 6.94784 1.02308 6.88558 1.02476 6.825C1.28558 6.83005 4.18317 6.86707 7.16995 5.97356C7.34159 6.30841 7.50481 6.64832 7.65457 6.98822C7.57548 7.0101 7.4964 7.03365 7.41899 7.05889C4.33462 8.05841 2.69399 10.776 2.55769 11.0065C1.60361 9.94639 1.02139 8.54471 1.02139 7.00841ZM7 12.987C5.61683 12.987 4.34303 12.5159 3.33005 11.725C3.43774 11.5046 4.6476 9.16731 8.01971 7.99111L8.05841 7.97764C8.89808 10.1584 9.24471 11.9875 9.33389 12.5125C8.5963 12.8278 7.80214 12.9892 7 12.987ZM10.3401 11.9656C10.2796 11.6022 9.96154 9.85216 9.17909 7.70337C11.0536 7.40385 12.6993 7.89519 12.9029 7.95914C12.637 9.62164 11.6829 11.0587 10.3401 11.9656Z" fill="#EEEEEE"/>
</svg>
