<svg width="635" height="220" viewBox="0 0 635 220" fill="none" xmlns="http://www.w3.org/2000/svg">
<path d="M328.016 122H326.75V105.078H304.953V122H303.688V87.875H304.953V103.812H326.75V87.875H328.016V122ZM346.812 122.469C344.765 122.469 342.882 121.922 341.163 120.828C339.46 119.719 338.124 118.203 337.155 116.281C336.187 114.359 335.702 112.227 335.702 109.883V108.828C335.702 106.484 336.171 104.336 337.108 102.383C338.046 100.43 339.335 98.9062 340.976 97.8125C342.616 96.7188 344.405 96.1719 346.343 96.1719C349.171 96.1719 351.483 97.1797 353.28 99.1953C355.077 101.211 355.976 103.859 355.976 107.141V108.477H336.968V109.859C336.968 111.922 337.397 113.836 338.257 115.602C339.132 117.352 340.327 118.727 341.843 119.727C343.374 120.727 345.03 121.227 346.812 121.227C348.515 121.227 349.96 120.945 351.147 120.383C352.351 119.805 353.413 118.922 354.335 117.734L355.226 118.367C353.335 121.102 350.53 122.469 346.812 122.469ZM346.343 97.4375C343.874 97.4375 341.78 98.3594 340.062 100.203C338.343 102.031 337.335 104.367 337.038 107.211H354.71V106.906C354.71 105.188 354.343 103.594 353.608 102.125C352.89 100.641 351.89 99.4922 350.608 98.6797C349.343 97.8516 347.921 97.4375 346.343 97.4375ZM364.412 122H363.147V86H364.412V122ZM375.263 122H373.997V86H375.263V122ZM382.621 108.828C382.621 106.406 383.082 104.234 384.004 102.312C384.942 100.375 386.254 98.8672 387.942 97.7891C389.645 96.7109 391.567 96.1719 393.707 96.1719C395.832 96.1719 397.738 96.6953 399.426 97.7422C401.113 98.7891 402.426 100.273 403.363 102.195C404.317 104.117 404.801 106.281 404.817 108.688V109.812C404.817 112.25 404.356 114.43 403.434 116.352C402.512 118.273 401.199 119.773 399.496 120.852C397.809 121.93 395.895 122.469 393.754 122.469C391.613 122.469 389.692 121.938 387.988 120.875C386.301 119.812 384.988 118.328 384.051 116.422C383.113 114.5 382.637 112.344 382.621 109.953V108.828ZM383.887 109.812C383.887 111.922 384.301 113.859 385.129 115.625C385.973 117.375 387.137 118.742 388.621 119.727C390.121 120.711 391.832 121.203 393.754 121.203C396.645 121.203 398.996 120.117 400.809 117.945C402.637 115.773 403.551 112.977 403.551 109.555V108.828C403.551 106.75 403.129 104.828 402.285 103.062C401.442 101.297 400.27 99.9219 398.77 98.9375C397.285 97.9375 395.598 97.4375 393.707 97.4375C390.817 97.4375 388.457 98.5391 386.629 100.742C384.801 102.945 383.887 105.719 383.887 109.062V109.812ZM410.933 127.977L410.066 127.227C411.331 125.602 412.019 123.922 412.128 122.188L412.152 118.273H413.417V121.695C413.355 124.18 412.527 126.273 410.933 127.977ZM437.204 122H435.939V87.875H437.204V122ZM446.461 95.0234L445.594 94.2734C446.86 92.6484 447.547 90.9688 447.657 89.2344L447.68 86H448.946V88.7422C448.883 91.2266 448.055 93.3203 446.461 95.0234ZM473.952 122H472.687V104.961C472.671 102.414 472.109 100.523 470.999 99.2891C469.906 98.0391 468.156 97.4141 465.749 97.4141C462.968 97.4141 460.695 98.6406 458.929 101.094C457.882 102.562 457.187 104.188 456.843 105.969V122H455.554V96.6406H456.843V102.641C457.702 100.578 458.929 98.9844 460.523 97.8594C462.117 96.7344 463.882 96.1719 465.82 96.1719C467.945 96.1719 469.679 96.6406 471.023 97.5781C472.382 98.5156 473.273 100.047 473.695 102.172C474.445 100.344 475.663 98.8906 477.351 97.8125C479.038 96.7188 480.929 96.1719 483.023 96.1719C485.757 96.1719 487.788 96.9453 489.117 98.4922C490.46 100.039 491.14 102.359 491.156 105.453V122H489.89V105.547C489.89 102.766 489.327 100.711 488.202 99.3828C487.093 98.0391 485.343 97.3828 482.952 97.4141C479.874 97.4609 477.437 98.6875 475.64 101.094C474.609 102.484 474.046 103.828 473.952 105.125V122ZM517.24 108.289L517.193 108.336L513.513 111.5V122H512.247V86H513.513V110.117L516.49 107.305L528.021 96.6406H529.826L518.177 107.445L530.552 122H528.912L517.24 108.289ZM534.02 108.828C534.02 106.406 534.481 104.234 535.403 102.312C536.34 100.375 537.653 98.8672 539.34 97.7891C541.043 96.7109 542.965 96.1719 545.106 96.1719C547.231 96.1719 549.137 96.6953 550.825 97.7422C552.512 98.7891 553.825 100.273 554.762 102.195C555.715 104.117 556.2 106.281 556.215 108.688V109.812C556.215 112.25 555.754 114.43 554.833 116.352C553.911 118.273 552.598 119.773 550.895 120.852C549.208 121.93 547.293 122.469 545.153 122.469C543.012 122.469 541.09 121.938 539.387 120.875C537.7 119.812 536.387 118.328 535.45 116.422C534.512 114.5 534.036 112.344 534.02 109.953V108.828ZM535.286 109.812C535.286 111.922 535.7 113.859 536.528 115.625C537.372 117.375 538.536 118.742 540.02 119.727C541.52 120.711 543.231 121.203 545.153 121.203C548.043 121.203 550.395 120.117 552.208 117.945C554.036 115.773 554.95 112.977 554.95 109.555V108.828C554.95 106.75 554.528 104.828 553.684 103.062C552.84 101.297 551.668 99.9219 550.168 98.9375C548.684 97.9375 546.997 97.4375 545.106 97.4375C542.215 97.4375 539.856 98.5391 538.028 100.742C536.2 102.945 535.286 105.719 535.286 109.062V109.812ZM580.332 122V117.898C579.582 119.305 578.488 120.422 577.05 121.25C575.613 122.062 573.793 122.469 571.589 122.469C568.824 122.469 566.746 121.664 565.355 120.055C563.98 118.43 563.277 116.07 563.246 112.977V96.6406H564.511V113.023C564.543 115.711 565.152 117.75 566.339 119.141C567.527 120.516 569.261 121.203 571.543 121.203C573.964 121.203 575.933 120.633 577.449 119.492C578.964 118.352 579.925 116.68 580.332 114.477V96.6406H581.621V122H580.332ZM592.518 122V97.9297H588.112V96.6406H592.518V92.9375C592.534 90.5938 593.12 88.7734 594.276 87.4766C595.448 86.1641 597.073 85.5078 599.151 85.5078C600.307 85.5078 601.307 85.6406 602.151 85.9062L601.963 87.125C601.151 86.8906 600.221 86.7734 599.174 86.7734C597.503 86.7734 596.182 87.3203 595.213 88.4141C594.26 89.4922 593.784 91.0312 593.784 93.0312V96.6406H600.487V97.9297H593.784V122H592.518ZM608.619 122V97.9297H604.212V96.6406H608.619V92.9375C608.634 90.5938 609.22 88.7734 610.377 87.4766C611.548 86.1641 613.173 85.5078 615.252 85.5078C616.408 85.5078 617.408 85.6406 618.252 85.9062L618.064 87.125C617.252 86.8906 616.322 86.7734 615.275 86.7734C613.603 86.7734 612.283 87.3203 611.314 88.4141C610.361 89.4922 609.884 91.0312 609.884 93.0312V96.6406H616.587V97.9297H609.884V122H608.619ZM624.719 122V97.9297H620.313V96.6406H624.719V92.9375C624.735 90.5938 625.321 88.7734 626.477 87.4766C627.649 86.1641 629.274 85.5078 631.352 85.5078C632.508 85.5078 633.508 85.6406 634.352 85.9062L634.165 87.125C633.352 86.8906 632.422 86.7734 631.376 86.7734C629.704 86.7734 628.383 87.3203 627.415 88.4141C626.462 89.4922 625.985 91.0312 625.985 93.0312V96.6406H632.688V97.9297H625.985V122H624.719Z" fill="white"/>
<path opacity="0.15" d="M215.883 59H215.25V42.5703H204.352V59H203.719V41.9375H215.883V59ZM229.934 52.7773C229.934 54.7539 229.508 56.3242 228.656 57.4883C227.805 58.6523 226.645 59.2344 225.176 59.2344C224.215 59.2344 223.359 59.0391 222.609 58.6484C221.859 58.2578 221.273 57.7188 220.852 57.0312V63.875H220.219V46.3203H220.852V48.582C221.289 47.7773 221.879 47.1602 222.621 46.7305C223.363 46.3008 224.207 46.0859 225.152 46.0859C226.637 46.0859 227.805 46.6562 228.656 47.7969C229.508 48.9297 229.934 50.5234 229.934 52.5781V52.7773ZM229.289 52.5312C229.289 50.7109 228.926 49.2891 228.199 48.2656C227.48 47.2344 226.469 46.7188 225.164 46.7188C224.102 46.7188 223.199 46.9961 222.457 47.5508C221.715 48.0977 221.18 48.8867 220.852 49.918V55.8477C221.18 56.7227 221.715 57.4023 222.457 57.8867C223.207 58.3633 224.117 58.6016 225.188 58.6016C226.484 58.6016 227.492 58.0859 228.211 57.0547C228.93 56.0234 229.289 54.5156 229.289 52.5312ZM241.863 46.3203H242.508V59H241.863V47.4453L234.023 59H233.391V46.3203H234.023V57.875L241.863 46.3203ZM246.645 59V46.3203H251.004C252.543 46.3203 253.719 46.6016 254.531 47.1641C255.352 47.7188 255.762 48.5312 255.762 49.6016C255.762 50.3047 255.543 50.918 255.105 51.4414C254.676 51.9648 254.059 52.3164 253.254 52.4961H253.266C254.125 52.5898 254.848 52.9258 255.434 53.5039C256.02 54.082 256.312 54.7695 256.312 55.5664C256.312 56.6523 255.91 57.4961 255.105 58.0977C254.309 58.6992 253.191 59 251.754 59H246.645ZM247.277 52.8945V58.3672H251.812C253.023 58.3672 253.973 58.125 254.66 57.6406C255.348 57.1562 255.691 56.4688 255.691 55.5781C255.691 54.7812 255.34 54.1367 254.637 53.6445C253.941 53.1445 252.988 52.8945 251.777 52.8945H247.277ZM247.277 52.2617H251.238C252.52 52.2617 253.488 52.0352 254.145 51.582C254.801 51.1289 255.129 50.457 255.129 49.5664C255.129 48.6602 254.777 48 254.074 47.5859C253.371 47.1719 252.348 46.9648 251.004 46.9648H247.277V52.2617ZM264.246 59.2344C263.223 59.2344 262.281 58.9609 261.422 58.4141C260.57 57.8594 259.902 57.1016 259.418 56.1406C258.934 55.1797 258.691 54.1133 258.691 52.9414V52.4141C258.691 51.2422 258.926 50.168 259.395 49.1914C259.863 48.2148 260.508 47.4531 261.328 46.9062C262.148 46.3594 263.043 46.0859 264.012 46.0859C265.426 46.0859 266.582 46.5898 267.48 47.5977C268.379 48.6055 268.828 49.9297 268.828 51.5703V52.2383H259.324V52.9297C259.324 53.9609 259.539 54.918 259.969 55.8008C260.406 56.6758 261.004 57.3633 261.762 57.8633C262.527 58.3633 263.355 58.6133 264.246 58.6133C265.098 58.6133 265.82 58.4727 266.414 58.1914C267.016 57.9023 267.547 57.4609 268.008 56.8672L268.453 57.1836C267.508 58.5508 266.105 59.2344 264.246 59.2344ZM264.012 46.7188C262.777 46.7188 261.73 47.1797 260.871 48.1016C260.012 49.0156 259.508 50.1836 259.359 51.6055H268.195V51.4531C268.195 50.5938 268.012 49.7969 267.645 49.0625C267.285 48.3203 266.785 47.7461 266.145 47.3398C265.512 46.9258 264.801 46.7188 264.012 46.7188ZM280.43 46.9648H275.449V59H274.816V46.9648H270.094V46.3203H280.43V46.9648ZM282.41 61.9883L281.977 61.6133C282.609 60.8008 282.953 59.9609 283.008 59.0938L283.02 57.1367H283.652V58.8477C283.621 60.0898 283.207 61.1367 282.41 61.9883ZM299.895 58.0391L305.66 46.3203H306.422V59H305.777V47.5391L300.141 59H299.648L293.895 47.2578V59H293.262V46.3203H294.129L299.895 58.0391ZM315.012 59.2344C313.988 59.2344 313.047 58.9609 312.188 58.4141C311.336 57.8594 310.668 57.1016 310.184 56.1406C309.699 55.1797 309.457 54.1133 309.457 52.9414V52.4141C309.457 51.2422 309.691 50.168 310.16 49.1914C310.629 48.2148 311.273 47.4531 312.094 46.9062C312.914 46.3594 313.809 46.0859 314.777 46.0859C316.191 46.0859 317.348 46.5898 318.246 47.5977C319.145 48.6055 319.594 49.9297 319.594 51.5703V52.2383H310.09V52.9297C310.09 53.9609 310.305 54.918 310.734 55.8008C311.172 56.6758 311.77 57.3633 312.527 57.8633C313.293 58.3633 314.121 58.6133 315.012 58.6133C315.863 58.6133 316.586 58.4727 317.18 58.1914C317.781 57.9023 318.312 57.4609 318.773 56.8672L319.219 57.1836C318.273 58.5508 316.871 59.2344 315.012 59.2344ZM314.777 46.7188C313.543 46.7188 312.496 47.1797 311.637 48.1016C310.777 49.0156 310.273 50.1836 310.125 51.6055H318.961V51.4531C318.961 50.5938 318.777 49.7969 318.41 49.0625C318.051 48.3203 317.551 47.7461 316.91 47.3398C316.277 46.9258 315.566 46.7188 314.777 46.7188ZM331.664 59H331.02V52.8008H323.18V59H322.547V46.3203H323.18V52.168H331.02V46.3203H331.664V59ZM344.508 46.3203V59H343.875V53.7266H339.234L336.059 59H335.309L338.508 53.668C337.594 53.5195 336.871 53.1211 336.34 52.4727C335.809 51.8242 335.543 51.0078 335.543 50.0234C335.543 48.9219 335.914 48.0352 336.656 47.3633C337.406 46.6914 338.422 46.3438 339.703 46.3203H344.508ZM336.176 50.0469C336.176 50.9609 336.449 51.6914 336.996 52.2383C337.551 52.7852 338.297 53.0664 339.234 53.082H343.875V46.9648H339.82C338.68 46.9648 337.785 47.2383 337.137 47.7852C336.496 48.332 336.176 49.0859 336.176 50.0469ZM362.25 49.5664C362.25 48.668 361.918 47.9688 361.254 47.4688C360.598 46.9688 359.637 46.7188 358.371 46.7188C357.277 46.7188 356.352 46.9961 355.594 47.5508C354.844 48.1055 354.469 48.8008 354.469 49.6367H353.824C353.824 48.6133 354.266 47.7656 355.148 47.0938C356.039 46.4219 357.113 46.0859 358.371 46.0859C359.809 46.0859 360.922 46.3984 361.711 47.0234C362.5 47.6406 362.895 48.5 362.895 49.6016C362.895 50.2656 362.68 50.8555 362.25 51.3711C361.82 51.8867 361.215 52.2656 360.434 52.5078C362.223 52.9141 363.117 53.9453 363.117 55.6016C363.117 56.7109 362.688 57.5938 361.828 58.25C360.977 58.8984 359.828 59.2227 358.383 59.2227C357.539 59.2227 356.746 59.0664 356.004 58.7539C355.262 58.4414 354.676 58.0039 354.246 57.4414C353.824 56.8789 353.613 56.2227 353.613 55.4727H354.258C354.258 56.3477 354.648 57.0859 355.43 57.6875C356.211 58.2812 357.195 58.5781 358.383 58.5781C359.727 58.5781 360.742 58.3164 361.43 57.793C362.125 57.2617 362.473 56.543 362.473 55.6367C362.473 54.6602 362.133 53.9531 361.453 53.5156C360.781 53.0781 359.77 52.8555 358.418 52.8477H356.648V52.2031H358.547C361.016 52.1641 362.25 51.2852 362.25 49.5664ZM365.531 52.4141C365.531 51.2031 365.762 50.1172 366.223 49.1562C366.691 48.1875 367.348 47.4336 368.191 46.8945C369.043 46.3555 370.004 46.0859 371.074 46.0859C372.137 46.0859 373.09 46.3477 373.934 46.8711C374.777 47.3945 375.434 48.1367 375.902 49.0977C376.379 50.0586 376.621 51.1406 376.629 52.3438V52.9062C376.629 54.125 376.398 55.2148 375.938 56.1758C375.477 57.1367 374.82 57.8867 373.969 58.4258C373.125 58.9648 372.168 59.2344 371.098 59.2344C370.027 59.2344 369.066 58.9688 368.215 58.4375C367.371 57.9062 366.715 57.1641 366.246 56.2109C365.777 55.25 365.539 54.1719 365.531 52.9766V52.4141ZM366.164 52.9062C366.164 53.9609 366.371 54.9297 366.785 55.8125C367.207 56.6875 367.789 57.3711 368.531 57.8633C369.281 58.3555 370.137 58.6016 371.098 58.6016C372.543 58.6016 373.719 58.0586 374.625 56.9727C375.539 55.8867 375.996 54.4883 375.996 52.7773V52.4141C375.996 51.375 375.785 50.4141 375.363 49.5312C374.941 48.6484 374.355 47.9609 373.605 47.4688C372.863 46.9688 372.02 46.7188 371.074 46.7188C369.629 46.7188 368.449 47.2695 367.535 48.3711C366.621 49.4727 366.164 50.8594 366.164 52.5312V52.9062ZM379.816 59V46.3203H384.176C385.715 46.3203 386.891 46.6016 387.703 47.1641C388.523 47.7188 388.934 48.5312 388.934 49.6016C388.934 50.3047 388.715 50.918 388.277 51.4414C387.848 51.9648 387.23 52.3164 386.426 52.4961H386.438C387.297 52.5898 388.02 52.9258 388.605 53.5039C389.191 54.082 389.484 54.7695 389.484 55.5664C389.484 56.6523 389.082 57.4961 388.277 58.0977C387.48 58.6992 386.363 59 384.926 59H379.816ZM380.449 52.8945V58.3672H384.984C386.195 58.3672 387.145 58.125 387.832 57.6406C388.52 57.1562 388.863 56.4688 388.863 55.5781C388.863 54.7812 388.512 54.1367 387.809 53.6445C387.113 53.1445 386.16 52.8945 384.949 52.8945H380.449ZM380.449 52.2617H384.41C385.691 52.2617 386.66 52.0352 387.316 51.582C387.973 51.1289 388.301 50.457 388.301 49.5664C388.301 48.6602 387.949 48 387.246 47.5859C386.543 47.1719 385.52 46.9648 384.176 46.9648H380.449V52.2617ZM396.598 58.0156L396.68 57.7812L401.062 46.3203H401.766L396.094 61.2031L395.812 61.9062C395.203 63.3828 394.195 64.1211 392.789 64.1211C392.336 64.1211 392.023 64.0781 391.852 63.9922L391.84 63.3945C392.09 63.4648 392.375 63.5 392.695 63.5C393.359 63.5 393.91 63.3047 394.348 62.9141C394.785 62.5312 395.164 61.9023 395.484 61.0273L396.258 58.9297L391.207 46.3203H391.898L396.598 58.0156ZM412.969 46.9648H407.988V59H407.355V46.9648H402.633V46.3203H412.969V46.9648ZM423.691 52.1445L423.668 52.168L421.828 53.75V59H421.195V41H421.828V53.0586L423.316 51.6523L429.082 46.3203H429.984L424.16 51.7227L430.348 59H429.527L423.691 52.1445ZM431.602 52.4141C431.602 51.2031 431.832 50.1172 432.293 49.1562C432.762 48.1875 433.418 47.4336 434.262 46.8945C435.113 46.3555 436.074 46.0859 437.145 46.0859C438.207 46.0859 439.16 46.3477 440.004 46.8711C440.848 47.3945 441.504 48.1367 441.973 49.0977C442.449 50.0586 442.691 51.1406 442.699 52.3438V52.9062C442.699 54.125 442.469 55.2148 442.008 56.1758C441.547 57.1367 440.891 57.8867 440.039 58.4258C439.195 58.9648 438.238 59.2344 437.168 59.2344C436.098 59.2344 435.137 58.9688 434.285 58.4375C433.441 57.9062 432.785 57.1641 432.316 56.2109C431.848 55.25 431.609 54.1719 431.602 52.9766V52.4141ZM432.234 52.9062C432.234 53.9609 432.441 54.9297 432.855 55.8125C433.277 56.6875 433.859 57.3711 434.602 57.8633C435.352 58.3555 436.207 58.6016 437.168 58.6016C438.613 58.6016 439.789 58.0586 440.695 56.9727C441.609 55.8867 442.066 54.4883 442.066 52.7773V52.4141C442.066 51.375 441.855 50.4141 441.434 49.5312C441.012 48.6484 440.426 47.9609 439.676 47.4688C438.934 46.9688 438.09 46.7188 437.145 46.7188C435.699 46.7188 434.52 47.2695 433.605 48.3711C432.691 49.4727 432.234 50.8594 432.234 52.5312V52.9062ZM454.277 59V56.9492C453.902 57.6523 453.355 58.2109 452.637 58.625C451.918 59.0312 451.008 59.2344 449.906 59.2344C448.523 59.2344 447.484 58.832 446.789 58.0273C446.102 57.2148 445.75 56.0352 445.734 54.4883V46.3203H446.367V54.5117C446.383 55.8555 446.688 56.875 447.281 57.5703C447.875 58.2578 448.742 58.6016 449.883 58.6016C451.094 58.6016 452.078 58.3164 452.836 57.7461C453.594 57.1758 454.074 56.3398 454.277 55.2383V46.3203H454.922V59H454.277ZM459.891 59V46.9648H457.688V46.3203H459.891V44.4688C459.898 43.2969 460.191 42.3867 460.77 41.7383C461.355 41.082 462.168 40.7539 463.207 40.7539C463.785 40.7539 464.285 40.8203 464.707 40.9531L464.613 41.5625C464.207 41.4453 463.742 41.3867 463.219 41.3867C462.383 41.3867 461.723 41.6602 461.238 42.207C460.762 42.7461 460.523 43.5156 460.523 44.5156V46.3203H463.875V46.9648H460.523V59H459.891ZM467.461 59V46.9648H465.258V46.3203H467.461V44.4688C467.469 43.2969 467.762 42.3867 468.34 41.7383C468.926 41.082 469.738 40.7539 470.777 40.7539C471.355 40.7539 471.855 40.8203 472.277 40.9531L472.184 41.5625C471.777 41.4453 471.312 41.3867 470.789 41.3867C469.953 41.3867 469.293 41.6602 468.809 42.207C468.332 42.7461 468.094 43.5156 468.094 44.5156V46.3203H471.445V46.9648H468.094V59H467.461ZM475.031 59V46.9648H472.828V46.3203H475.031V44.4688C475.039 43.2969 475.332 42.3867 475.91 41.7383C476.496 41.082 477.309 40.7539 478.348 40.7539C478.926 40.7539 479.426 40.8203 479.848 40.9531L479.754 41.5625C479.348 41.4453 478.883 41.3867 478.359 41.3867C477.523 41.3867 476.863 41.6602 476.379 42.207C475.902 42.7461 475.664 43.5156 475.664 44.5156V46.3203H479.016V46.9648H475.664V59H475.031Z" fill="url(#paint0_linear)"/>
<path opacity="0.15" d="M254.367 148.57H248.156V165H247.523V148.57H241.312V147.938H254.367V148.57ZM260.414 165.234C259.391 165.234 258.449 164.961 257.59 164.414C256.738 163.859 256.07 163.102 255.586 162.141C255.102 161.18 254.859 160.113 254.859 158.941V158.414C254.859 157.242 255.094 156.168 255.562 155.191C256.031 154.215 256.676 153.453 257.496 152.906C258.316 152.359 259.211 152.086 260.18 152.086C261.594 152.086 262.75 152.59 263.648 153.598C264.547 154.605 264.996 155.93 264.996 157.57V158.238H255.492V158.93C255.492 159.961 255.707 160.918 256.137 161.801C256.574 162.676 257.172 163.363 257.93 163.863C258.695 164.363 259.523 164.613 260.414 164.613C261.266 164.613 261.988 164.473 262.582 164.191C263.184 163.902 263.715 163.461 264.176 162.867L264.621 163.184C263.676 164.551 262.273 165.234 260.414 165.234ZM260.18 152.719C258.945 152.719 257.898 153.18 257.039 154.102C256.18 155.016 255.676 156.184 255.527 157.605H264.363V157.453C264.363 156.594 264.18 155.797 263.812 155.062C263.453 154.32 262.953 153.746 262.312 153.34C261.68 152.926 260.969 152.719 260.18 152.719ZM273.539 152.777L272.719 152.707C271.641 152.707 270.738 153.059 270.012 153.762C269.285 154.457 268.809 155.434 268.582 156.691V165H267.949V152.32H268.582V154.957C268.926 154.074 269.441 153.375 270.129 152.859C270.816 152.344 271.68 152.086 272.719 152.086C273.086 152.086 273.383 152.129 273.609 152.215L273.539 152.777ZM280.312 165.234C279.289 165.234 278.348 164.961 277.488 164.414C276.637 163.859 275.969 163.102 275.484 162.141C275 161.18 274.758 160.113 274.758 158.941V158.414C274.758 157.242 274.992 156.168 275.461 155.191C275.93 154.215 276.574 153.453 277.395 152.906C278.215 152.359 279.109 152.086 280.078 152.086C281.492 152.086 282.648 152.59 283.547 153.598C284.445 154.605 284.895 155.93 284.895 157.57V158.238H275.391V158.93C275.391 159.961 275.605 160.918 276.035 161.801C276.473 162.676 277.07 163.363 277.828 163.863C278.594 164.363 279.422 164.613 280.312 164.613C281.164 164.613 281.887 164.473 282.48 164.191C283.082 163.902 283.613 163.461 284.074 162.867L284.52 163.184C283.574 164.551 282.172 165.234 280.312 165.234ZM280.078 152.719C278.844 152.719 277.797 153.18 276.938 154.102C276.078 155.016 275.574 156.184 275.426 157.605H284.262V157.453C284.262 156.594 284.078 155.797 283.711 155.062C283.352 154.32 282.852 153.746 282.211 153.34C281.578 152.926 280.867 152.719 280.078 152.719ZM287.344 167.988L286.91 167.613C287.543 166.801 287.887 165.961 287.941 165.094L287.953 163.137H288.586V164.848C288.555 166.09 288.141 167.137 287.344 167.988ZM307.16 165H306.527V156.48C306.52 155.207 306.238 154.262 305.684 153.645C305.137 153.02 304.262 152.707 303.059 152.707C301.668 152.707 300.531 153.32 299.648 154.547C299.125 155.281 298.777 156.094 298.605 156.984V165H297.961V152.32H298.605V155.32C299.035 154.289 299.648 153.492 300.445 152.93C301.242 152.367 302.125 152.086 303.094 152.086C304.156 152.086 305.023 152.32 305.695 152.789C306.375 153.258 306.82 154.023 307.031 155.086C307.406 154.172 308.016 153.445 308.859 152.906C309.703 152.359 310.648 152.086 311.695 152.086C313.062 152.086 314.078 152.473 314.742 153.246C315.414 154.02 315.754 155.18 315.762 156.727V165H315.129V156.773C315.129 155.383 314.848 154.355 314.285 153.691C313.73 153.02 312.855 152.691 311.66 152.707C310.121 152.73 308.902 153.344 308.004 154.547C307.488 155.242 307.207 155.914 307.16 156.562V165ZM328.102 165V162.949C327.727 163.652 327.18 164.211 326.461 164.625C325.742 165.031 324.832 165.234 323.73 165.234C322.348 165.234 321.309 164.832 320.613 164.027C319.926 163.215 319.574 162.035 319.559 160.488V152.32H320.191V160.512C320.207 161.855 320.512 162.875 321.105 163.57C321.699 164.258 322.566 164.602 323.707 164.602C324.918 164.602 325.902 164.316 326.66 163.746C327.418 163.176 327.898 162.34 328.102 161.238V152.32H328.746V165H328.102ZM339.129 155.273C339.543 154.289 340.152 153.512 340.957 152.941C341.762 152.371 342.652 152.086 343.629 152.086C344.988 152.086 345.996 152.473 346.652 153.246C347.316 154.012 347.652 155.172 347.66 156.727V165H347.027V156.703C347.02 155.344 346.742 154.34 346.195 153.691C345.648 153.035 344.781 152.707 343.594 152.707C342.5 152.707 341.551 153.098 340.746 153.879C339.949 154.652 339.41 155.652 339.129 156.879V165H338.496V152.32H339.129V155.273ZM352.43 165H351.797V152.32H352.43V165ZM351.469 148.359C351.469 148.18 351.531 148.027 351.656 147.902C351.781 147.77 351.934 147.703 352.113 147.703C352.293 147.703 352.445 147.77 352.57 147.902C352.703 148.027 352.77 148.18 352.77 148.359C352.77 148.539 352.703 148.691 352.57 148.816C352.445 148.941 352.293 149.004 352.113 149.004C351.934 149.004 351.781 148.941 351.656 148.816C351.531 148.691 351.469 148.539 351.469 148.359ZM365.66 165H365.027V156.48C365.02 155.207 364.738 154.262 364.184 153.645C363.637 153.02 362.762 152.707 361.559 152.707C360.168 152.707 359.031 153.32 358.148 154.547C357.625 155.281 357.277 156.094 357.105 156.984V165H356.461V152.32H357.105V155.32C357.535 154.289 358.148 153.492 358.945 152.93C359.742 152.367 360.625 152.086 361.594 152.086C362.656 152.086 363.523 152.32 364.195 152.789C364.875 153.258 365.32 154.023 365.531 155.086C365.906 154.172 366.516 153.445 367.359 152.906C368.203 152.359 369.148 152.086 370.195 152.086C371.562 152.086 372.578 152.473 373.242 153.246C373.914 154.02 374.254 155.18 374.262 156.727V165H373.629V156.773C373.629 155.383 373.348 154.355 372.785 153.691C372.23 153.02 371.355 152.691 370.16 152.707C368.621 152.73 367.402 153.344 366.504 154.547C365.988 155.242 365.707 155.914 365.66 156.562V165ZM378.891 165H378.258V152.32H378.891V165ZM377.93 148.359C377.93 148.18 377.992 148.027 378.117 147.902C378.242 147.77 378.395 147.703 378.574 147.703C378.754 147.703 378.906 147.77 379.031 147.902C379.164 148.027 379.23 148.18 379.23 148.359C379.23 148.539 379.164 148.691 379.031 148.816C378.906 148.941 378.754 149.004 378.574 149.004C378.395 149.004 378.242 148.941 378.117 148.816C377.992 148.691 377.93 148.539 377.93 148.359ZM387.832 158.414C387.832 157.203 388.062 156.117 388.523 155.156C388.992 154.188 389.648 153.434 390.492 152.895C391.344 152.355 392.305 152.086 393.375 152.086C394.438 152.086 395.391 152.348 396.234 152.871C397.078 153.395 397.734 154.137 398.203 155.098C398.68 156.059 398.922 157.141 398.93 158.344V158.906C398.93 160.125 398.699 161.215 398.238 162.176C397.777 163.137 397.121 163.887 396.27 164.426C395.426 164.965 394.469 165.234 393.398 165.234C392.328 165.234 391.367 164.969 390.516 164.438C389.672 163.906 389.016 163.164 388.547 162.211C388.078 161.25 387.84 160.172 387.832 158.977V158.414ZM388.465 158.906C388.465 159.961 388.672 160.93 389.086 161.812C389.508 162.688 390.09 163.371 390.832 163.863C391.582 164.355 392.438 164.602 393.398 164.602C394.844 164.602 396.02 164.059 396.926 162.973C397.84 161.887 398.297 160.488 398.297 158.777V158.414C398.297 157.375 398.086 156.414 397.664 155.531C397.242 154.648 396.656 153.961 395.906 153.469C395.164 152.969 394.32 152.719 393.375 152.719C391.93 152.719 390.75 153.27 389.836 154.371C388.922 155.473 388.465 156.859 388.465 158.531V158.906ZM402.645 155.273C403.059 154.289 403.668 153.512 404.473 152.941C405.277 152.371 406.168 152.086 407.145 152.086C408.504 152.086 409.512 152.473 410.168 153.246C410.832 154.012 411.168 155.172 411.176 156.727V165H410.543V156.703C410.535 155.344 410.258 154.34 409.711 153.691C409.164 153.035 408.297 152.707 407.109 152.707C406.016 152.707 405.066 153.098 404.262 153.879C403.465 154.652 402.926 155.652 402.645 156.879V165H402.012V152.32H402.645V155.273ZM423.398 158.145L423.375 158.168L421.535 159.75V165H420.902V147H421.535V159.059L423.023 157.652L428.789 152.32H429.691L423.867 157.723L430.055 165H429.234L423.398 158.145ZM431.309 158.414C431.309 157.203 431.539 156.117 432 155.156C432.469 154.188 433.125 153.434 433.969 152.895C434.82 152.355 435.781 152.086 436.852 152.086C437.914 152.086 438.867 152.348 439.711 152.871C440.555 153.395 441.211 154.137 441.68 155.098C442.156 156.059 442.398 157.141 442.406 158.344V158.906C442.406 160.125 442.176 161.215 441.715 162.176C441.254 163.137 440.598 163.887 439.746 164.426C438.902 164.965 437.945 165.234 436.875 165.234C435.805 165.234 434.844 164.969 433.992 164.438C433.148 163.906 432.492 163.164 432.023 162.211C431.555 161.25 431.316 160.172 431.309 158.977V158.414ZM431.941 158.906C431.941 159.961 432.148 160.93 432.562 161.812C432.984 162.688 433.566 163.371 434.309 163.863C435.059 164.355 435.914 164.602 436.875 164.602C438.32 164.602 439.496 164.059 440.402 162.973C441.316 161.887 441.773 160.488 441.773 158.777V158.414C441.773 157.375 441.562 156.414 441.141 155.531C440.719 154.648 440.133 153.961 439.383 153.469C438.641 152.969 437.797 152.719 436.852 152.719C435.406 152.719 434.227 153.27 433.312 154.371C432.398 155.473 431.941 156.859 431.941 158.531V158.906ZM453.984 165V162.949C453.609 163.652 453.062 164.211 452.344 164.625C451.625 165.031 450.715 165.234 449.613 165.234C448.23 165.234 447.191 164.832 446.496 164.027C445.809 163.215 445.457 162.035 445.441 160.488V152.32H446.074V160.512C446.09 161.855 446.395 162.875 446.988 163.57C447.582 164.258 448.449 164.602 449.59 164.602C450.801 164.602 451.785 164.316 452.543 163.746C453.301 163.176 453.781 162.34 453.984 161.238V152.32H454.629V165H453.984ZM459.598 165V152.965H457.395V152.32H459.598V150.469C459.605 149.297 459.898 148.387 460.477 147.738C461.062 147.082 461.875 146.754 462.914 146.754C463.492 146.754 463.992 146.82 464.414 146.953L464.32 147.562C463.914 147.445 463.449 147.387 462.926 147.387C462.09 147.387 461.43 147.66 460.945 148.207C460.469 148.746 460.23 149.516 460.23 150.516V152.32H463.582V152.965H460.23V165H459.598ZM467.168 165V152.965H464.965V152.32H467.168V150.469C467.176 149.297 467.469 148.387 468.047 147.738C468.633 147.082 469.445 146.754 470.484 146.754C471.062 146.754 471.562 146.82 471.984 146.953L471.891 147.562C471.484 147.445 471.02 147.387 470.496 147.387C469.66 147.387 469 147.66 468.516 148.207C468.039 148.746 467.801 149.516 467.801 150.516V152.32H471.152V152.965H467.801V165H467.168ZM474.738 165V152.965H472.535V152.32H474.738V150.469C474.746 149.297 475.039 148.387 475.617 147.738C476.203 147.082 477.016 146.754 478.055 146.754C478.633 146.754 479.133 146.82 479.555 146.953L479.461 147.562C479.055 147.445 478.59 147.387 478.066 147.387C477.23 147.387 476.57 147.66 476.086 148.207C475.609 148.746 475.371 149.516 475.371 150.516V152.32H478.723V152.965H475.371V165H474.738Z" fill="url(#paint1_linear)"/>
<g opacity="0.1">
<line x1="270.5" y1="2.18557e-08" x2="270.5" y2="220" stroke="url(#paint2_linear)"/>
<line x1="270.5" y1="2.18557e-08" x2="270.5" y2="220" stroke="url(#paint3_linear)"/>
</g>
<circle opacity="0.3" cx="98.5" cy="109.5" r="97" stroke="white"/>
<path d="M141.5 119.5C141.5 143.801 121.801 163.5 97.5 163.5C73.1995 163.5 53.5 143.801 53.5 119.5C53.5 95.1995 73.1995 75.5 97.5 75.5C121.801 75.5 141.5 95.1995 141.5 119.5Z" stroke="white"/>
<path d="M63.7511 75.0336L64.6451 74.5212L63.6893 74.1361L56.3734 71.1882C56.4481 71.112 56.5309 71.0281 56.6218 70.937C57.1181 70.4399 57.8549 69.7294 58.8123 68.8807C60.7276 67.1829 63.523 64.9346 67.0396 62.7366C74.0771 58.3377 83.9699 54.1598 95.4622 54.9557L96.6976 55.0412L95.8679 54.1219L89.8322 47.434C90.2829 47.2961 90.9415 47.1173 91.7756 46.9531C93.4657 46.6205 95.8721 46.3486 98.7256 46.5956C104.419 47.0885 111.931 49.6497 119.113 58.0056C126.763 66.9062 135.563 77.3123 141.044 89.0186L141.178 89.3066H141.496H149.288L146.031 96.5238L145.853 96.9196L146.22 97.1519L156.904 103.917L146.212 102.732L145.547 102.659L145.665 103.317C146.867 110.079 146.456 117.033 144.464 123.603L144.438 123.688L144.443 123.776L144.669 127.899L130.835 103.36L129.899 101.701V103.606V110.495C129.778 110.375 129.646 110.244 129.504 110.102C128.762 109.354 127.773 108.308 126.785 107.114C125.796 105.919 124.818 104.586 124.088 103.263C123.354 101.932 122.901 100.661 122.901 99.577V98.1134L122.005 99.271L118.276 104.092L116.342 96.2346L116.213 95.7102L115.7 95.8792L90.0751 104.321L93.7435 98.2234L94.2871 97.3199L93.2436 97.4707L77.7487 99.7102C77.8543 99.5743 77.9686 99.4271 78.0902 99.2703C78.7495 98.4199 79.6229 97.2881 80.4784 96.1635C81.3332 95.0399 82.173 93.9196 82.7639 93.0938C83.0578 92.683 83.2971 92.3353 83.4461 92.0939C83.5151 91.982 83.5855 91.8603 83.6247 91.7575C83.6354 91.7293 83.65 91.6869 83.6593 91.6367C83.6661 91.5999 83.6846 91.489 83.6401 91.3604C83.6147 91.2869 83.5663 91.2019 83.4817 91.1321C83.3967 91.0621 83.3031 91.0304 83.2239 91.0197C83.0858 91.0011 82.9785 91.0435 82.9432 91.0582C82.8344 91.1035 82.4521 91.3097 81.9065 91.6228C81.3431 91.9461 80.5715 92.4034 79.6607 92.9727C77.8397 94.1107 75.4569 95.6993 73.0672 97.5609C70.6799 99.4206 68.2719 101.563 66.4104 103.812C64.5571 106.05 63.1985 108.449 63.0042 110.816C62.6512 115.12 60.1641 120.069 57.716 123.987C56.4983 125.936 55.3026 127.611 54.4112 128.799C54.0026 129.343 53.6583 129.785 53.4057 130.103L49.4385 122.777L49.4347 122.755C49.4233 122.687 49.4065 122.586 49.3854 122.454C49.3432 122.189 49.2837 121.797 49.2154 121.294C49.0787 120.287 48.9065 118.833 48.7653 117.049C48.4828 113.481 48.325 108.601 48.8213 103.351C49.817 92.8187 53.4272 80.9506 63.7511 75.0336Z" fill="#161718" stroke="white"/>
<circle cx="4" cy="92" r="4" fill="white"/>
<circle cx="191" cy="138" r="4" fill="white"/>
<defs>
<linearGradient id="paint0_linear" x1="327.5" y1="53" x2="302.5" y2="53" gradientUnits="userSpaceOnUse">
<stop stop-color="white"/>
<stop offset="1" stop-color="white" stop-opacity="0"/>
</linearGradient>
<linearGradient id="paint1_linear" x1="310" y1="159" x2="294.5" y2="159" gradientUnits="userSpaceOnUse">
<stop stop-color="white"/>
<stop offset="1" stop-color="white" stop-opacity="0"/>
</linearGradient>
<linearGradient id="paint2_linear" x1="270" y1="60.5" x2="270" y2="0" gradientUnits="userSpaceOnUse">
<stop stop-color="white"/>
<stop offset="1" stop-color="white" stop-opacity="0"/>
</linearGradient>
<linearGradient id="paint3_linear" x1="249" y1="220" x2="248.5" y2="110" gradientUnits="userSpaceOnUse">
<stop stop-color="#161718"/>
<stop offset="1" stop-color="white" stop-opacity="0"/>
</linearGradient>
</defs>
</svg>
