<svg width="586" height="489" viewBox="0 0 586 489" fill="none" xmlns="http://www.w3.org/2000/svg">
<circle opacity="0.2" cx="272.752" cy="244.247" r="243.747" stroke="white"/>
<path d="M380.725 269.298C380.725 330.313 331.262 379.775 270.248 379.775C209.233 379.775 159.771 330.313 159.771 269.298C159.771 208.284 209.233 158.821 270.248 158.821C331.262 158.821 380.725 208.284 380.725 269.298Z" stroke="white" stroke-width="2"/>
<g opacity="0.2">
<path fill-rule="evenodd" clip-rule="evenodd" d="M39.5071 31.5082H35.4923V27.4918C35.4923 26.6676 34.8236 26 33.9994 26C33.1764 26 32.5089 26.6676 32.5089 27.4918V31.5082H28.4929C27.6676 31.5082 27 32.1758 27 33C27 33.8242 27.6676 34.4918 28.4929 34.4918H32.5089V38.5082C32.5089 39.3324 33.1764 40 33.9994 40C34.8236 40 35.4923 39.3324 35.4923 38.5082V34.4918H39.5071C40.3313 34.4918 41 33.8242 41 33C41 32.1758 40.3313 31.5082 39.5071 31.5082Z" fill="white"/>
<path fill-rule="evenodd" clip-rule="evenodd" d="M56.2536 76.7541H54.2462V74.7459C54.2462 74.3338 53.9118 74 53.4997 74C53.0882 74 52.7544 74.3338 52.7544 74.7459V76.7541H50.7464C50.3338 76.7541 50 77.0879 50 77.5C50 77.9121 50.3338 78.2459 50.7464 78.2459H52.7544V80.2541C52.7544 80.6662 53.0882 81 53.4997 81C53.9118 81 54.2462 80.6662 54.2462 80.2541V78.2459H56.2536C56.6656 78.2459 57 77.9121 57 77.5C57 77.0879 56.6656 76.7541 56.2536 76.7541Z" fill="white"/>
<path fill-rule="evenodd" clip-rule="evenodd" d="M560.084 30.0806H554.921V24.9177C554.921 23.8582 554.061 23 553.001 23C551.943 23 551.084 23.8582 551.084 24.9177V30.0806H545.92C544.858 30.0806 544 30.9388 544 31.9983C544 33.0578 544.858 33.916 545.92 33.916H551.084V39.0789C551.084 40.1384 551.943 40.9966 553.001 40.9966C554.061 40.9966 554.921 40.1384 554.921 39.0789V33.916H560.084C561.144 33.916 562.004 33.0578 562.004 31.9983C562.004 30.9388 561.144 30.0806 560.084 30.0806Z" fill="white"/>
<path fill-rule="evenodd" clip-rule="evenodd" d="M536.72 75.7213H533.279V72.2787C533.279 71.5722 532.706 71 531.999 71C531.294 71 530.722 71.5722 530.722 72.2787V75.7213H527.28C526.572 75.7213 526 76.2935 526 77C526 77.7065 526.572 78.2787 527.28 78.2787H530.722V81.7213C530.722 82.4278 531.294 83 531.999 83C532.706 83 533.279 82.4278 533.279 81.7213V78.2787H536.72C537.427 78.2787 538 77.7065 538 77C538 76.2935 537.427 75.7213 536.72 75.7213Z" fill="white"/>
<path fill-rule="evenodd" clip-rule="evenodd" d="M239.635 107.243H238.058V105.666C238.058 105.343 237.795 105.08 237.471 105.08C237.148 105.08 236.886 105.343 236.886 105.666V107.243H235.308C234.984 107.243 234.722 107.505 234.722 107.829C234.722 108.153 234.984 108.415 235.308 108.415H236.886V109.992C236.886 110.315 237.148 110.578 237.471 110.578C237.795 110.578 238.058 110.315 238.058 109.992V108.415H239.635C239.958 108.415 240.221 108.153 240.221 107.829C240.221 107.505 239.958 107.243 239.635 107.243Z" fill="white"/>
<path fill-rule="evenodd" clip-rule="evenodd" d="M499 83.5C499 84.8806 497.881 86 496.5 86C495.12 86 494 84.8806 494 83.5C494 82.1194 495.12 81 496.5 81C497.881 81 499 82.1194 499 83.5Z" fill="white"/>
<path fill-rule="evenodd" clip-rule="evenodd" d="M491 36.5C491 38.9851 488.985 41 486.501 41C484.016 41 482 38.9851 482 36.5C482 34.0149 484.016 32 486.501 32C488.985 32 491 34.0149 491 36.5Z" fill="white"/>
<path fill-rule="evenodd" clip-rule="evenodd" d="M43 438C43 439.657 41.657 441 40.0004 441C38.3439 441 37 439.657 37 438C37 436.343 38.3439 435 40.0004 435C41.657 435 43 436.343 43 438Z" fill="white"/>
<path fill-rule="evenodd" clip-rule="evenodd" d="M16.0838 455.081H10.9209V449.918C10.9209 448.858 10.0609 448 9.00108 448C7.94275 448 7.08428 448.858 7.08428 449.918V455.081H1.91983C0.858471 455.081 0 455.939 0 456.998C0 458.058 0.858471 458.916 1.91983 458.916H7.08428V464.079C7.08428 465.138 7.94275 465.997 9.00108 465.997C10.0609 465.997 10.9209 465.138 10.9209 464.079V458.916H16.0838C17.1437 458.916 18.0037 458.058 18.0037 456.998C18.0037 455.939 17.1437 455.081 16.0838 455.081Z" fill="white"/>
<path fill-rule="evenodd" clip-rule="evenodd" d="M74.1517 42.0749C74.1517 43.2207 73.2223 44.1498 72.0761 44.1498C70.9299 44.1498 70 43.2207 70 42.0749C70 40.929 70.9299 40 72.0761 40C73.2223 40 74.1517 40.929 74.1517 42.0749Z" fill="white"/>
<path fill-rule="evenodd" clip-rule="evenodd" d="M586 120.5C586 122.433 584.433 124 582.501 124C580.568 124 579 122.433 579 120.5C579 118.567 580.568 117 582.501 117C584.433 117 586 118.567 586 120.5Z" fill="white"/>
<path fill-rule="evenodd" clip-rule="evenodd" d="M31 400.5C31 402.433 29.4331 404 27.5005 404C25.5679 404 24 402.433 24 400.5C24 398.567 25.5679 397 27.5005 397C29.4331 397 31 398.567 31 400.5Z" fill="white"/>
</g>
<path d="M182.861 152.563L184.642 151.539L182.737 150.769L163.268 142.899C163.537 142.62 163.86 142.29 164.235 141.912C165.531 140.61 167.454 138.75 169.952 136.529C174.948 132.086 182.24 126.203 191.413 120.452C209.767 108.943 235.587 98.0003 265.593 100.085L268.059 100.256L266.406 98.4185L250.371 80.5956C250.5 80.5545 250.637 80.5114 250.782 80.4665C251.965 80.1017 253.706 79.6256 255.917 79.1891C260.339 78.316 266.633 77.6028 274.095 78.2509C288.993 79.5446 308.625 86.2682 327.378 108.155C347.293 131.398 370.231 158.606 384.521 189.224L384.791 189.801H385.427H406.183L397.51 209.083L397.154 209.873L397.885 210.338L426.819 228.715L397.672 225.475L396.343 225.328L396.577 226.644C399.717 244.354 398.642 262.564 393.441 279.772L393.391 279.94L393.4 280.116L394.061 292.18L357.407 226.962L355.535 223.632V227.452V246.167C355.09 245.733 354.57 245.219 353.992 244.636C352.054 242.677 349.473 239.938 346.894 236.811C344.312 233.681 341.751 230.184 339.84 226.707C337.919 223.212 336.71 219.838 336.71 216.93V213.996L334.918 216.32L324.827 229.406L319.643 208.275L319.385 207.224L318.358 207.563L250.866 229.867L260.84 213.236L261.923 211.43L259.839 211.732L218.752 217.689C219.145 217.183 219.601 216.593 220.105 215.941C221.822 213.72 224.095 210.765 226.322 207.829C228.547 204.895 230.731 201.972 232.267 199.819C233.032 198.746 233.649 197.846 234.031 197.225C234.212 196.932 234.38 196.636 234.471 196.398C234.495 196.334 234.526 196.242 234.546 196.136C234.561 196.057 234.597 195.831 234.508 195.572C234.457 195.423 234.36 195.252 234.189 195.112C234.018 194.97 233.83 194.906 233.669 194.884C233.389 194.846 233.169 194.932 233.093 194.964C232.832 195.073 231.856 195.6 230.428 196.422C228.965 197.264 226.959 198.457 224.591 199.942C219.856 202.91 213.661 207.053 207.449 211.907C201.243 216.757 194.992 222.338 190.165 228.187C185.354 234.015 181.864 240.22 181.366 246.31L182.362 246.391L181.366 246.31C180.44 257.629 173.929 270.608 167.552 280.847C164.376 285.947 161.257 290.329 158.933 293.436C157.771 294.989 156.808 296.222 156.137 297.066C156.099 297.114 156.062 297.16 156.026 297.206L145.456 277.624C145.451 277.593 145.445 277.557 145.438 277.517C145.408 277.34 145.364 277.075 145.309 276.728C145.199 276.034 145.044 275.009 144.865 273.692C144.509 271.057 144.06 267.253 143.692 262.588C142.955 253.256 142.543 240.493 143.838 226.757C146.433 199.223 155.848 168.093 182.861 152.563Z" fill="#111213" stroke="white" stroke-width="2"/>
<circle cx="34.0204" cy="198.02" r="10.0204" fill="white"/>
<circle cx="505.02" cy="319.02" r="10.0204" fill="white"/>
</svg>
