<svg width="16" height="14" viewBox="0 0 16 14" fill="none" xmlns="http://www.w3.org/2000/svg">
<g clip-path="url(#clip0)">
<path d="M8.00352 3.40635C6.01602 3.40635 4.41289 5.00947 4.41289 6.99697C4.41289 8.98447 6.01602 10.5876 8.00352 10.5876C9.99102 10.5876 11.5941 8.98447 11.5941 6.99697C11.5941 5.00947 9.99102 3.40635 8.00352 3.40635ZM8.00352 9.33135C6.71914 9.33135 5.66914 8.28447 5.66914 6.99697C5.66914 5.70947 6.71602 4.6626 8.00352 4.6626C9.29102 4.6626 10.3379 5.70947 10.3379 6.99697C10.3379 8.28447 9.28789 9.33135 8.00352 9.33135ZM12.5785 3.25947C12.5785 3.7251 12.2035 4.09697 11.741 4.09697C11.2754 4.09697 10.9035 3.72197 10.9035 3.25947C10.9035 2.79697 11.2785 2.42197 11.741 2.42197C12.2035 2.42197 12.5785 2.79697 12.5785 3.25947ZM14.9566 4.10947C14.9035 2.9876 14.6473 1.99385 13.8254 1.1751C13.0066 0.356348 12.0129 0.100098 10.891 0.0438477C9.73477 -0.0217773 6.26914 -0.0217773 5.11289 0.0438477C3.99414 0.0969727 3.00039 0.353223 2.17852 1.17197C1.35664 1.99072 1.10352 2.98447 1.04727 4.10635C0.981641 5.2626 0.981641 8.72822 1.04727 9.88447C1.10039 11.0063 1.35664 12.0001 2.17852 12.8188C3.00039 13.6376 3.99102 13.8938 5.11289 13.9501C6.26914 14.0157 9.73477 14.0157 10.891 13.9501C12.0129 13.897 13.0066 13.6407 13.8254 12.8188C14.6441 12.0001 14.9004 11.0063 14.9566 9.88447C15.0223 8.72822 15.0223 5.26572 14.9566 4.10947ZM13.4629 11.1251C13.2191 11.7376 12.7473 12.2095 12.1316 12.4563C11.2098 12.822 9.02227 12.7376 8.00352 12.7376C6.98477 12.7376 4.79414 12.8188 3.87539 12.4563C3.26289 12.2126 2.79102 11.7407 2.54414 11.1251C2.17852 10.2032 2.26289 8.01572 2.26289 6.99697C2.26289 5.97822 2.18164 3.7876 2.54414 2.86885C2.78789 2.25635 3.25977 1.78447 3.87539 1.5376C4.79727 1.17197 6.98477 1.25635 8.00352 1.25635C9.02227 1.25635 11.2129 1.1751 12.1316 1.5376C12.7441 1.78135 13.216 2.25322 13.4629 2.86885C13.8285 3.79072 13.7441 5.97822 13.7441 6.99697C13.7441 8.01572 13.8285 10.2063 13.4629 11.1251Z" fill="#EEEEEE"/>
</g>
<defs>
<clipPath id="clip0">
<rect width="16" height="14" fill="white"/>
</clipPath>
</defs>
</svg>
