<svg width="16" height="16" viewBox="0 0 16 16" fill="none" xmlns="http://www.w3.org/2000/svg">
<path fill-rule="evenodd" clip-rule="evenodd" d="M3.9005 8C3.9005 5.72933 5.73162 3.8978 8.00178 3.8978C10.2719 3.8978 12.1031 5.72933 12.1031 8C12.1031 10.2707 10.2719 12.1022 8.00178 12.1022C5.73162 12.1022 3.9005 10.2707 3.9005 8ZM5.33541 8C5.33541 9.47094 6.53475 10.667 8.00178 10.667C9.46882 10.667 10.6682 9.47094 10.6682 8C10.6682 6.52906 9.47239 5.33304 8.00178 5.33304C6.53118 5.33304 5.33541 6.52906 5.33541 8ZM12.2708 4.68682C12.7991 4.68682 13.2274 4.26197 13.2274 3.73C13.2274 3.20161 12.7991 2.77318 12.2708 2.77318C11.7426 2.77318 11.3142 3.20161 11.3142 3.73C11.3142 4.2584 11.739 4.68682 12.2708 4.68682ZM14.6516 1.34866C15.5904 2.28406 15.8831 3.41939 15.9438 4.7011C16.0187 6.02209 16.0187 9.97791 15.9438 11.2989C15.8795 12.5806 15.5868 13.7159 14.6516 14.6513C13.7165 15.5903 12.5814 15.8831 11.2999 15.9438C9.97925 16.0187 6.02075 16.0187 4.70006 15.9438C3.41863 15.8795 2.28712 15.5867 1.34835 14.6513C0.409593 13.7159 0.116899 12.5806 0.0562186 11.2989C-0.0187395 9.97791 -0.0187395 6.01852 0.0562186 4.69753C0.120468 3.41582 0.409593 2.28049 1.34835 1.34509C2.28712 0.409684 3.4222 0.116925 4.70006 0.0562312C6.02075 -0.0187437 9.97925 -0.0187437 11.2999 0.0562312C12.5814 0.120495 13.7165 0.413254 14.6516 1.34866Z" fill="white"/>
</svg>
