<svg width="291" height="43" viewBox="0 0 291 43" fill="none" xmlns="http://www.w3.org/2000/svg">
<path d="M290.916 1.01575C290.902 0.991676 290.887 0.968427 290.87 0.946065C290.78 0.828238 290.655 0.749813 290.519 0.716175C290.519 0.716111 290.519 0.716048 290.518 0.715985C290.518 0.715921 290.518 0.715858 290.517 0.715795C290.517 0.715668 290.517 0.715478 290.516 0.715541C290.506 0.71288 290.495 0.7106 290.484 0.708573C290.484 0.708636 290.483 0.708446 290.483 0.708383C290.483 0.708319 290.482 0.70832 290.482 0.708256C290.371 0.687541 290.254 0.69641 290.143 0.73803L263.42 10.2801C263.183 10.3649 263.018 10.5824 263.001 10.834C262.984 11.0855 263.118 11.3232 263.342 11.4392L268.795 14.2637L270.693 22.7956C270.71 22.8779 270.743 22.9576 270.793 23.0296C270.817 23.0639 270.844 23.0957 270.874 23.1245C270.952 23.2005 271.046 23.2523 271.146 23.2796C271.199 23.2943 271.256 23.3022 271.314 23.3022C271.315 23.3022 271.316 23.3022 271.317 23.3022C271.469 23.3015 271.622 23.2461 271.743 23.1345L276.889 18.391L282.538 21.2415C282.697 21.322 282.883 21.3313 283.05 21.2676C283.216 21.2037 283.348 21.0724 283.413 20.9061L290.953 1.57017C290.964 1.54319 290.973 1.51544 290.98 1.48725C290.991 1.44512 290.997 1.40236 290.999 1.35967C291.005 1.24247 290.978 1.12312 290.916 1.01575ZM265.217 10.9838L284.442 4.11924L269.327 13.1129L265.217 10.9838ZM271.68 15.0502C271.68 15.0503 271.68 15.0505 271.68 15.0506C271.68 15.0507 271.68 15.051 271.68 15.0511C271.68 15.0514 271.679 15.0518 271.679 15.0521V15.0522C271.679 15.0524 271.679 15.0526 271.679 15.0527C271.679 15.0528 271.679 15.0529 271.679 15.053C271.679 15.0532 271.679 15.0533 271.679 15.0536C271.679 15.0537 271.679 15.0537 271.679 15.0539C271.678 15.0541 271.678 15.0543 271.678 15.0545C271.678 15.0545 271.678 15.0546 271.678 15.0547C271.643 15.1249 271.622 15.1986 271.615 15.2725L271.143 18.9849L270.067 14.1473L281.722 7.21203L271.868 14.8283C271.791 14.8849 271.726 14.9597 271.68 15.0502ZM272.161 21.0263L272.76 16.3073L275.681 17.7814L272.161 21.0263ZM282.486 19.7964L277.082 17.0692C277.073 17.0643 277.064 17.0596 277.054 17.0552L273.427 15.2247L288.946 3.22939L282.486 19.7964Z" fill="#2A3338"/>
<rect x="0.103149" y="30" width="14" height="2" rx="1" transform="rotate(2.95517 0.103149 30)" fill="#3D4A52" fill-opacity="0.2"/>
<rect x="32" y="34.4788" width="14" height="2" rx="1" transform="rotate(-6.06291 32 34.4788)" fill="#3D4A52" fill-opacity="0.2"/>
<rect x="66" y="29.7949" width="14" height="2" rx="1" transform="rotate(-15.7278 66 29.7949)" fill="#3D4A52" fill-opacity="0.2"/>
<rect x="96.6838" y="26" width="14" height="2" rx="1" transform="rotate(19.9921 96.6838 26)" fill="#3D4A52" fill-opacity="0.2"/>
<rect x="125.684" y="36" width="14" height="2" rx="1" transform="rotate(19.9921 125.684 36)" fill="#3D4A52" fill-opacity="0.2"/>
<rect x="161" y="39.3242" width="14" height="2" rx="1" transform="rotate(-9.5559 161 39.3242)" fill="#3D4A52" fill-opacity="0.2"/>
<rect x="193" y="32.5583" width="14" height="2" rx="1" transform="rotate(-2.28578 193 32.5583)" fill="#3D4A52" fill-opacity="0.2"/>
<rect x="229" y="30.8247" width="14" height="2" rx="1" transform="rotate(-11.6396 229 30.8247)" fill="#3D4A52" fill-opacity="0.2"/>
</svg>
