<svg width="77" height="42" viewBox="0 0 77 42" fill="none" xmlns="http://www.w3.org/2000/svg">
<path d="M3.94798 20.343H4.41896C4.85505 20.343 5.16904 20.2059 5.36092 19.9316L8.22168 15.7647C8.37867 15.5371 8.55602 15.3824 8.75371 15.3007C8.95722 15.219 9.20434 15.1782 9.49507 15.1782H12.0593L8.29146 20.3343C8.15772 20.521 8.01817 20.6757 7.87281 20.7982C7.72744 20.9208 7.57917 21.0229 7.42799 21.1046C7.64895 21.1863 7.84955 21.3001 8.0298 21.446C8.21587 21.5861 8.38449 21.7758 8.53567 22.015L12.3733 27.9328H9.73928C9.57066 27.9328 9.42529 27.9211 9.30319 27.8978C9.1869 27.8744 9.08514 27.8394 8.99792 27.7927C8.91071 27.746 8.83512 27.6906 8.77116 27.6264C8.7072 27.5563 8.64614 27.4776 8.588 27.39L5.70979 22.9517C5.60513 22.7883 5.47139 22.6745 5.30859 22.6103C5.15159 22.5403 4.93646 22.5053 4.66317 22.5053H3.94798V27.9328H1V15.1782H3.94798V20.343Z" fill="white"/>
<path d="M27.6577 21.5511C27.6577 22.4732 27.4978 23.3311 27.178 24.1248C26.8641 24.9185 26.4192 25.61 25.8436 26.1995C25.268 26.7831 24.5731 27.2412 23.7591 27.5739C22.9509 27.9065 22.0525 28.0728 21.064 28.0728C20.0756 28.0728 19.1743 27.9065 18.3603 27.5739C17.5462 27.2412 16.8485 26.7831 16.267 26.1995C15.6914 25.61 15.2437 24.9185 14.9239 24.1248C14.6099 23.3311 14.4529 22.4732 14.4529 21.5511C14.4529 20.629 14.6099 19.7711 14.9239 18.9774C15.2437 18.1837 15.6914 17.495 16.267 16.9114C16.8485 16.3278 17.5462 15.8697 18.3603 15.5371C19.1743 15.2044 20.0756 15.0381 21.064 15.0381C22.0525 15.0381 22.9509 15.2073 23.7591 15.5458C24.5731 15.8785 25.268 16.3366 25.8436 16.9202C26.4192 17.5038 26.8641 18.1925 27.178 18.9862C27.4978 19.7799 27.6577 20.6348 27.6577 21.5511Z" fill="white"/>
<path d="M36.2715 25.5954C36.6669 25.5954 37.0187 25.5312 37.3269 25.4029C37.6408 25.2686 37.9054 25.079 38.1205 24.8338C38.3357 24.5887 38.4985 24.2911 38.609 23.9409C38.7253 23.5849 38.7834 23.1822 38.7834 22.7329V15.1782H41.7314V22.7329C41.7314 23.5149 41.6035 24.2327 41.3476 24.8864C41.0976 25.54 40.7371 26.1032 40.2661 26.5759C39.7951 27.0486 39.2224 27.4163 38.5479 27.6789C37.8734 27.9415 37.1146 28.0728 36.2715 28.0728C35.4226 28.0728 34.6609 27.9415 33.9864 27.6789C33.3119 27.4163 32.7392 27.0486 32.2682 26.5759C31.7972 26.1032 31.4367 25.54 31.1867 24.8864C30.9367 24.2327 30.8116 23.5149 30.8116 22.7329V15.1782H33.7596V22.7241C33.7596 23.1735 33.8149 23.5762 33.9253 23.9322C34.0416 24.2823 34.2073 24.5829 34.4225 24.8338C34.6376 25.079 34.8993 25.2686 35.2075 25.4029C35.5214 25.5312 35.8761 25.5954 36.2715 25.5954Z" fill="white"/>
<path d="M53.7429 15.1782V17.4542H48.5272V20.6844H52.8707V22.9692H48.5272V27.9328H45.5618V15.1782H53.7429Z" fill="white"/>
<path d="M65.3715 15.1782V17.4542H60.1559V20.6844H64.4993V22.9692H60.1559V27.9328H57.1904V15.1782H65.3715Z" fill="white"/>
<path d="M77.0002 15.1782V17.4542H71.7845V20.6844H76.128V22.9692H71.7845V27.9328H68.8191V15.1782H77.0002Z" fill="white"/>
<path opacity="0.3" d="M31.6831 12.5286C36.6044 18.4301 35.8224 27.214 29.937 32.1481C24.0517 37.0822 15.2912 36.2986 10.3698 30.3971C5.44851 24.4957 6.23054 15.7117 12.1158 10.7776C18.0012 5.84353 26.7617 6.62716 31.6831 12.5286Z" stroke="white"/>
<ellipse rx="1.54344" ry="1.5438" transform="matrix(0.343234 -0.940459 0.937733 0.34407 15.0663 34.0342)" fill="white"/>
<ellipse rx="1.54344" ry="1.5438" transform="matrix(0.343234 -0.940459 0.937733 0.34407 27.3988 9.30333)" fill="white"/>
</svg>
