<svg width="139" height="48" viewBox="0 0 139 48" fill="none" xmlns="http://www.w3.org/2000/svg">
<path d="M68.454 19.202L67.104 20.534V23H64.296V9.644H67.104V17.204L71.208 13.316H74.556L70.524 17.42L74.916 23H71.514L68.454 19.202ZM80.3649 23.144C79.3449 23.144 78.4269 22.934 77.6109 22.514C76.8069 22.082 76.1769 21.488 75.7209 20.732C75.2649 19.976 75.0369 19.118 75.0369 18.158C75.0369 17.198 75.2649 16.34 75.7209 15.584C76.1769 14.828 76.8069 14.24 77.6109 13.82C78.4269 13.388 79.3449 13.172 80.3649 13.172C81.3849 13.172 82.2969 13.388 83.1009 13.82C83.9049 14.24 84.5349 14.828 84.9909 15.584C85.4469 16.34 85.6749 17.198 85.6749 18.158C85.6749 19.118 85.4469 19.976 84.9909 20.732C84.5349 21.488 83.9049 22.082 83.1009 22.514C82.2969 22.934 81.3849 23.144 80.3649 23.144ZM80.3649 20.84C81.0849 20.84 81.6729 20.6 82.1289 20.12C82.5969 19.628 82.8309 18.974 82.8309 18.158C82.8309 17.342 82.5969 16.694 82.1289 16.214C81.6729 15.722 81.0849 15.476 80.3649 15.476C79.6449 15.476 79.0509 15.722 78.5829 16.214C78.1149 16.694 77.8809 17.342 77.8809 18.158C77.8809 18.974 78.1149 19.628 78.5829 20.12C79.0509 20.6 79.6449 20.84 80.3649 20.84ZM97.3079 13.316V23H94.6439V21.848C94.2719 22.268 93.8279 22.592 93.3119 22.82C92.7959 23.036 92.2379 23.144 91.6379 23.144C90.3659 23.144 89.3579 22.778 88.6139 22.046C87.8699 21.314 87.4979 20.228 87.4979 18.788V13.316H90.3059V18.374C90.3059 19.934 90.9599 20.714 92.2679 20.714C92.9399 20.714 93.4799 20.498 93.8879 20.066C94.2959 19.622 94.4999 18.968 94.4999 18.104V13.316H97.3079ZM102.987 13.532H105.471V15.692H103.059V23H100.251V15.692H98.7573V13.532H100.251V13.1C100.251 11.996 100.575 11.12 101.223 10.472C101.883 9.824 102.807 9.5 103.995 9.5C104.415 9.5 104.811 9.548 105.183 9.644C105.567 9.728 105.885 9.854 106.137 10.022L105.399 12.056C105.075 11.828 104.697 11.714 104.265 11.714C103.413 11.714 102.987 12.182 102.987 13.118V13.532ZM109.948 13.532H112.432V15.692H110.02V23H107.212V15.692H105.718V13.532H107.212V13.1C107.212 11.996 107.536 11.12 108.184 10.472C108.844 9.824 109.768 9.5 110.956 9.5C111.376 9.5 111.772 9.548 112.144 9.644C112.528 9.728 112.846 9.854 113.098 10.022L112.36 12.056C112.036 11.828 111.658 11.714 111.226 11.714C110.374 11.714 109.948 12.182 109.948 13.118V13.532ZM116.909 13.532H119.393V15.692H116.981V23H114.173V15.692H112.679V13.532H114.173V13.1C114.173 11.996 114.497 11.12 115.145 10.472C115.805 9.824 116.729 9.5 117.917 9.5C118.337 9.5 118.733 9.548 119.105 9.644C119.489 9.728 119.807 9.854 120.059 10.022L119.321 12.056C118.997 11.828 118.619 11.714 118.187 11.714C117.335 11.714 116.909 12.182 116.909 13.118V13.532Z" fill="white"/>
<path d="M66.972 34.052L65.256 35.792V38H64.368V29.6H65.256V34.676L70.188 29.6H71.208L67.572 33.404L71.46 38H70.404L66.972 34.052ZM72.6021 31.688H73.4541V38H72.6021V31.688ZM73.0341 30.308C72.8581 30.308 72.7101 30.248 72.5901 30.128C72.4701 30.008 72.4101 29.864 72.4101 29.696C72.4101 29.536 72.4701 29.396 72.5901 29.276C72.7101 29.156 72.8581 29.096 73.0341 29.096C73.2101 29.096 73.3581 29.156 73.4781 29.276C73.5981 29.388 73.6581 29.524 73.6581 29.684C73.6581 29.86 73.5981 30.008 73.4781 30.128C73.3581 30.248 73.2101 30.308 73.0341 30.308ZM76.6407 32.924C76.8407 32.5 77.1367 32.18 77.5287 31.964C77.9287 31.748 78.4207 31.64 79.0047 31.64V32.468L78.8007 32.456C78.1367 32.456 77.6167 32.66 77.2407 33.068C76.8647 33.476 76.6767 34.048 76.6767 34.784V38H75.8247V31.688H76.6407V32.924ZM80.5474 31.688H81.3994V38H80.5474V31.688ZM80.9794 30.308C80.8034 30.308 80.6554 30.248 80.5354 30.128C80.4154 30.008 80.3554 29.864 80.3554 29.696C80.3554 29.536 80.4154 29.396 80.5354 29.276C80.6554 29.156 80.8034 29.096 80.9794 29.096C81.1554 29.096 81.3034 29.156 81.4234 29.276C81.5434 29.388 81.6034 29.524 81.6034 29.684C81.6034 29.86 81.5434 30.008 81.4234 30.128C81.3034 30.248 81.1554 30.308 80.9794 30.308ZM83.77 29.096H84.622V38H83.77V29.096ZM86.9927 29.096H87.8447V38H86.9927V29.096ZM96.14 34.052L94.424 35.792V38H93.536V29.6H94.424V34.676L99.356 29.6H100.376L96.74 33.404L100.628 38H99.572L96.14 34.052ZM104.174 38.06C103.566 38.06 103.018 37.924 102.53 37.652C102.042 37.372 101.658 36.988 101.378 36.5C101.098 36.012 100.958 35.46 100.958 34.844C100.958 34.228 101.098 33.676 101.378 33.188C101.658 32.7 102.042 32.32 102.53 32.048C103.018 31.776 103.566 31.64 104.174 31.64C104.782 31.64 105.33 31.776 105.818 32.048C106.306 32.32 106.686 32.7 106.958 33.188C107.238 33.676 107.378 34.228 107.378 34.844C107.378 35.46 107.238 36.012 106.958 36.5C106.686 36.988 106.306 37.372 105.818 37.652C105.33 37.924 104.782 38.06 104.174 38.06ZM104.174 37.304C104.622 37.304 105.022 37.204 105.374 37.004C105.734 36.796 106.014 36.504 106.214 36.128C106.414 35.752 106.514 35.324 106.514 34.844C106.514 34.364 106.414 33.936 106.214 33.56C106.014 33.184 105.734 32.896 105.374 32.696C105.022 32.488 104.622 32.384 104.174 32.384C103.726 32.384 103.322 32.488 102.962 32.696C102.61 32.896 102.33 33.184 102.122 33.56C101.922 33.936 101.822 34.364 101.822 34.844C101.822 35.324 101.922 35.752 102.122 36.128C102.33 36.504 102.61 36.796 102.962 37.004C103.322 37.204 103.726 37.304 104.174 37.304ZM110.81 38.06C110.298 38.06 109.806 37.988 109.334 37.844C108.87 37.692 108.506 37.504 108.242 37.28L108.626 36.608C108.89 36.816 109.222 36.988 109.622 37.124C110.022 37.252 110.438 37.316 110.87 37.316C111.446 37.316 111.87 37.228 112.142 37.052C112.422 36.868 112.562 36.612 112.562 36.284C112.562 36.052 112.486 35.872 112.334 35.744C112.182 35.608 111.99 35.508 111.758 35.444C111.526 35.372 111.218 35.304 110.834 35.24C110.322 35.144 109.91 35.048 109.598 34.952C109.286 34.848 109.018 34.676 108.794 34.436C108.578 34.196 108.47 33.864 108.47 33.44C108.47 32.912 108.69 32.48 109.13 32.144C109.57 31.808 110.182 31.64 110.966 31.64C111.374 31.64 111.782 31.696 112.19 31.808C112.598 31.912 112.934 32.052 113.198 32.228L112.826 32.912C112.306 32.552 111.686 32.372 110.966 32.372C110.422 32.372 110.01 32.468 109.73 32.66C109.458 32.852 109.322 33.104 109.322 33.416C109.322 33.656 109.398 33.848 109.55 33.992C109.71 34.136 109.906 34.244 110.138 34.316C110.37 34.38 110.69 34.448 111.098 34.52C111.602 34.616 112.006 34.712 112.31 34.808C112.614 34.904 112.874 35.068 113.09 35.3C113.306 35.532 113.414 35.852 113.414 36.26C113.414 36.812 113.182 37.252 112.718 37.58C112.262 37.9 111.626 38.06 110.81 38.06ZM120.176 31.688L117.02 38.756C116.764 39.348 116.468 39.768 116.132 40.016C115.796 40.264 115.392 40.388 114.92 40.388C114.616 40.388 114.332 40.34 114.068 40.244C113.804 40.148 113.576 40.004 113.384 39.812L113.78 39.176C114.1 39.496 114.484 39.656 114.932 39.656C115.22 39.656 115.464 39.576 115.664 39.416C115.872 39.256 116.064 38.984 116.24 38.6L116.516 37.988L113.696 31.688H114.584L116.96 37.052L119.336 31.688H120.176ZM122.192 32.924C122.392 32.5 122.688 32.18 123.08 31.964C123.48 31.748 123.972 31.64 124.556 31.64V32.468L124.352 32.456C123.688 32.456 123.168 32.66 122.792 33.068C122.416 33.476 122.228 34.048 122.228 34.784V38H121.376V31.688H122.192V32.924ZM131.536 35.108H126.256C126.304 35.764 126.556 36.296 127.012 36.704C127.468 37.104 128.044 37.304 128.74 37.304C129.132 37.304 129.492 37.236 129.82 37.1C130.148 36.956 130.432 36.748 130.672 36.476L131.152 37.028C130.872 37.364 130.52 37.62 130.096 37.796C129.68 37.972 129.22 38.06 128.716 38.06C128.068 38.06 127.492 37.924 126.988 37.652C126.492 37.372 126.104 36.988 125.824 36.5C125.544 36.012 125.404 35.46 125.404 34.844C125.404 34.228 125.536 33.676 125.8 33.188C126.072 32.7 126.44 32.32 126.904 32.048C127.376 31.776 127.904 31.64 128.488 31.64C129.072 31.64 129.596 31.776 130.06 32.048C130.524 32.32 130.888 32.7 131.152 33.188C131.416 33.668 131.548 34.22 131.548 34.844L131.536 35.108ZM128.488 32.372C127.88 32.372 127.368 32.568 126.952 32.96C126.544 33.344 126.312 33.848 126.256 34.472H130.732C130.676 33.848 130.44 33.344 130.024 32.96C129.616 32.568 129.104 32.372 128.488 32.372ZM138.469 31.688L135.661 38H134.785L131.989 31.688H132.877L135.241 37.064L137.629 31.688H138.469Z" fill="#F1F1F1"/>
<path d="M44.3134 9.64174L14.3819 1.05902C12.3474 0.475622 10.2251 1.65201 9.64172 3.68656L1.059 33.6181C0.475605 35.6526 1.652 37.7749 3.68655 38.3583L33.618 46.941C35.6526 47.5244 37.7749 46.348 38.3583 44.3134L46.941 14.382C47.5244 12.3474 46.348 10.2251 44.3134 9.64174Z" fill="white"/>
<path d="M29.9963 29.2742C28.7891 30.0999 27.1297 30.8487 26.2433 31.0862C26.2433 31.0862 27.4272 31.5561 27.6918 32.5432C27.9563 33.5304 28.8783 34.3414 30.1951 33.9885C31.5119 33.6357 31.9049 32.4723 31.6403 31.4852C31.3758 30.4981 29.9963 29.2742 29.9963 29.2742Z" fill="black"/>
<path d="M31.5581 28.5002C31.8116 27.2503 29.8458 27.1324 29.4785 28.1623C29.1112 29.1923 25.8597 30.0245 25.8597 30.0245L26.346 31.8392C27.7852 31.4536 31.2718 29.7217 31.5581 28.5002Z" fill="black"/>
<path d="M20.1626 31.5537C19.3181 30.598 20.9616 29.513 21.7947 30.2213C22.6277 30.9297 25.8598 30.0246 25.8598 30.0246L26.346 31.8394C24.9067 32.225 21.0213 32.4684 20.1626 31.5537Z" fill="black"/>
<path d="M27.4294 25.4247C27.8898 27.1431 26.5109 28.0936 25.5238 28.3582C24.5366 28.6227 22.882 28.5363 22.4088 26.7701C22.1305 25.7316 23.131 24.9641 24.515 24.5933C25.8989 24.2224 27.1511 24.3862 27.4294 25.4247Z" fill="black"/>
<path d="M13.3808 22.3208C13.1344 21.4014 13.6816 20.4537 14.5989 20.2078C15.5183 19.9615 16.466 20.5088 16.7123 21.428C16.9581 22.3454 16.4109 23.2931 15.4916 23.5395C14.5743 23.7852 13.6265 23.2381 13.3808 22.3208Z" fill="black"/>
<path d="M29.2057 18.0804C28.9594 17.1611 29.5066 16.2134 30.4239 15.9675C31.3432 15.7212 32.291 16.2684 32.5373 17.1878C32.7831 18.1051 32.236 19.0529 31.3166 19.2992C30.3992 19.5449 29.4515 18.9978 29.2057 18.0804Z" fill="black"/>
</svg>
