<svg width="121" height="32" viewBox="0 0 121 32" fill="none" xmlns="http://www.w3.org/2000/svg">
<path d="M51.066 10.296C51.2713 10.072 51.4813 9.83865 51.696 9.59599C51.92 9.35332 52.1347 9.11532 52.34 8.88199C52.5453 8.63932 52.7367 8.41065 52.914 8.19599C53.1007 7.98132 53.2593 7.79465 53.39 7.63599H55.868C55.3733 8.20532 54.888 8.75132 54.412 9.27399C53.9453 9.78732 53.432 10.3193 52.872 10.87C53.152 11.122 53.4413 11.4253 53.74 11.78C54.0387 12.1253 54.328 12.4847 54.608 12.858C54.888 13.2313 55.1447 13.6047 55.378 13.978C55.6113 14.3513 55.8073 14.692 55.966 15H53.572C53.4227 14.7573 53.25 14.4913 53.054 14.202C52.8673 13.9033 52.6667 13.6093 52.452 13.32C52.2373 13.0213 52.0087 12.7367 51.766 12.466C51.5327 12.1953 51.2993 11.9667 51.066 11.78V15H48.98V4.47199L51.066 4.13599V10.296Z" fill="white"/>
<path d="M63.6796 11.304C63.6796 11.8827 63.5956 12.4147 63.4276 12.9C63.2596 13.376 63.0169 13.7867 62.6996 14.132C62.3822 14.468 61.9996 14.7293 61.5516 14.916C61.1129 15.1027 60.6182 15.196 60.0676 15.196C59.5262 15.196 59.0316 15.1027 58.5836 14.916C58.1449 14.7293 57.7669 14.468 57.4496 14.132C57.1322 13.7867 56.8849 13.376 56.7076 12.9C56.5302 12.4147 56.4416 11.8827 56.4416 11.304C56.4416 10.7253 56.5302 10.198 56.7076 9.72199C56.8942 9.24599 57.1462 8.83999 57.4636 8.50399C57.7902 8.16799 58.1729 7.90665 58.6116 7.71999C59.0596 7.53332 59.5449 7.43999 60.0676 7.43999C60.5996 7.43999 61.0849 7.53332 61.5236 7.71999C61.9716 7.90665 62.3542 8.16799 62.6716 8.50399C62.9889 8.83999 63.2362 9.24599 63.4136 9.72199C63.5909 10.198 63.6796 10.7253 63.6796 11.304ZM61.5516 11.304C61.5516 10.66 61.4209 10.156 61.1596 9.79199C60.9076 9.41865 60.5436 9.23199 60.0676 9.23199C59.5916 9.23199 59.2229 9.41865 58.9616 9.79199C58.7002 10.156 58.5696 10.66 58.5696 11.304C58.5696 11.948 58.7002 12.4613 58.9616 12.844C59.2229 13.2173 59.5916 13.404 60.0676 13.404C60.5436 13.404 60.9076 13.2173 61.1596 12.844C61.4209 12.4613 61.5516 11.948 61.5516 11.304Z" fill="white"/>
<path d="M71.7915 14.748C71.4368 14.8507 70.9795 14.944 70.4195 15.028C69.8595 15.1213 69.2715 15.168 68.6555 15.168C68.0301 15.168 67.5075 15.084 67.0875 14.916C66.6768 14.748 66.3501 14.5147 66.1075 14.216C65.8648 13.908 65.6921 13.544 65.5895 13.124C65.4868 12.704 65.4355 12.242 65.4355 11.738V7.63599H67.5215V11.486C67.5215 12.158 67.6101 12.6433 67.7875 12.942C67.9648 13.2407 68.2961 13.39 68.7815 13.39C68.9308 13.39 69.0895 13.3853 69.2575 13.376C69.4255 13.3573 69.5748 13.3387 69.7055 13.32V7.63599H71.7915V14.748Z" fill="white"/>
<path d="M77.1516 4.13599C77.5436 4.13599 77.9029 4.17799 78.2296 4.26199C78.5563 4.33665 78.8083 4.41132 78.9856 4.48599L78.5796 6.15199C78.3929 6.06799 78.1876 6.00732 77.9636 5.96999C77.7489 5.92332 77.5483 5.89999 77.3616 5.89999C77.1096 5.89999 76.8949 5.93732 76.7176 6.01199C76.5496 6.07732 76.4143 6.17065 76.3116 6.29199C76.2183 6.41332 76.1483 6.55799 76.1016 6.72599C76.0643 6.89399 76.0456 7.07599 76.0456 7.27199V7.63599H78.6216V9.37199H76.0456V15H73.9596V7.24399C73.9596 6.29199 74.2256 5.53599 74.7576 4.97599C75.2989 4.41599 76.0969 4.13599 77.1516 4.13599ZM83.0176 4.13599C83.4096 4.13599 83.7689 4.17799 84.0956 4.26199C84.4223 4.33665 84.6743 4.41132 84.8516 4.48599L84.4456 6.15199C84.2589 6.06799 84.0536 6.00732 83.8296 5.96999C83.6149 5.92332 83.4143 5.89999 83.2276 5.89999C82.9756 5.89999 82.7609 5.93732 82.5836 6.01199C82.4156 6.07732 82.2803 6.17065 82.1776 6.29199C82.0843 6.41332 82.0143 6.55799 81.9676 6.72599C81.9303 6.89399 81.9116 7.07599 81.9116 7.27199V7.63599H84.4876V9.37199H81.9116V15H79.8256V7.24399C79.8256 6.29199 80.0916 5.53599 80.6236 4.97599C81.1649 4.41599 81.9629 4.13599 83.0176 4.13599Z" fill="white"/>
<path d="M89.1331 4.13599C89.5251 4.13599 89.8844 4.17799 90.2111 4.26199C90.5378 4.33665 90.7898 4.41132 90.9671 4.48599L90.5611 6.15199C90.3744 6.06799 90.1691 6.00732 89.9451 5.96999C89.7304 5.92332 89.5298 5.89999 89.3431 5.89999C89.0911 5.89999 88.8764 5.93732 88.6991 6.01199C88.5311 6.07732 88.3958 6.17065 88.2931 6.29199C88.1998 6.41332 88.1298 6.55799 88.0831 6.72599C88.0458 6.89399 88.0271 7.07599 88.0271 7.27199V7.63599H90.6031V9.37199H88.0271V15H85.9411V7.24399C85.9411 6.29199 86.2071 5.53599 86.7391 4.97599C87.2804 4.41599 88.0784 4.13599 89.1331 4.13599Z" fill="white"/>
<path d="M93.2674 13.894C93.2674 14.314 93.132 14.636 92.8614 14.86C92.6 15.0747 92.3014 15.182 91.9654 15.182C91.6294 15.182 91.326 15.0747 91.0554 14.86C90.794 14.636 90.6634 14.314 90.6634 13.894C90.6634 13.474 90.794 13.1567 91.0554 12.942C91.326 12.718 91.6294 12.606 91.9654 12.606C92.3014 12.606 92.6 12.718 92.8614 12.942C93.132 13.1567 93.2674 13.474 93.2674 13.894Z" fill="white"/>
<path d="M94.1048 11.318C94.1048 10.786 94.1888 10.2867 94.3568 9.81999C94.5342 9.34399 94.7862 8.93332 95.1128 8.58799C95.4395 8.23332 95.8362 7.95332 96.3028 7.74799C96.7695 7.54265 97.3015 7.43999 97.8988 7.43999C98.2908 7.43999 98.6502 7.47732 98.9768 7.55199C99.3035 7.61732 99.6208 7.71532 99.9288 7.84599L99.4948 9.51199C99.2988 9.43732 99.0842 9.37199 98.8508 9.31599C98.6175 9.25999 98.3562 9.23199 98.0668 9.23199C97.4508 9.23199 96.9888 9.42332 96.6808 9.80599C96.3822 10.1887 96.2328 10.6927 96.2328 11.318C96.2328 11.9807 96.3728 12.494 96.6528 12.858C96.9422 13.222 97.4415 13.404 98.1508 13.404C98.4028 13.404 98.6735 13.3807 98.9628 13.334C99.2522 13.2873 99.5182 13.2127 99.7608 13.11L100.055 14.818C99.8122 14.9207 99.5088 15.0093 99.1448 15.084C98.7808 15.1587 98.3795 15.196 97.9408 15.196C97.2688 15.196 96.6902 15.098 96.2048 14.902C95.7195 14.6967 95.3182 14.4213 95.0008 14.076C94.6928 13.7307 94.4642 13.3247 94.3148 12.858C94.1748 12.382 94.1048 11.8687 94.1048 11.318Z" fill="white"/>
<path d="M108.197 11.304C108.197 11.8827 108.113 12.4147 107.945 12.9C107.777 13.376 107.535 13.7867 107.217 14.132C106.9 14.468 106.517 14.7293 106.069 14.916C105.631 15.1027 105.136 15.196 104.585 15.196C104.044 15.196 103.549 15.1027 103.101 14.916C102.663 14.7293 102.285 14.468 101.967 14.132C101.65 13.7867 101.403 13.376 101.225 12.9C101.048 12.4147 100.959 11.8827 100.959 11.304C100.959 10.7253 101.048 10.198 101.225 9.72199C101.412 9.24599 101.664 8.83999 101.981 8.50399C102.308 8.16799 102.691 7.90665 103.129 7.71999C103.577 7.53332 104.063 7.43999 104.585 7.43999C105.117 7.43999 105.603 7.53332 106.041 7.71999C106.489 7.90665 106.872 8.16799 107.189 8.50399C107.507 8.83999 107.754 9.24599 107.931 9.72199C108.109 10.198 108.197 10.7253 108.197 11.304ZM106.069 11.304C106.069 10.66 105.939 10.156 105.677 9.79199C105.425 9.41865 105.061 9.23199 104.585 9.23199C104.109 9.23199 103.741 9.41865 103.479 9.79199C103.218 10.156 103.087 10.66 103.087 11.304C103.087 11.948 103.218 12.4613 103.479 12.844C103.741 13.2173 104.109 13.404 104.585 13.404C105.061 13.404 105.425 13.2173 105.677 12.844C105.939 12.4613 106.069 11.948 106.069 11.304Z" fill="white"/>
<path d="M114.069 11.094C114.069 10.422 113.981 9.94599 113.803 9.66599C113.635 9.38599 113.341 9.24599 112.921 9.24599C112.791 9.24599 112.655 9.25532 112.515 9.27399C112.375 9.28332 112.24 9.29732 112.109 9.31599V15H110.023V7.88799C110.201 7.84132 110.406 7.79465 110.639 7.74799C110.882 7.69199 111.134 7.64532 111.395 7.60799C111.666 7.56132 111.941 7.52865 112.221 7.50999C112.501 7.48199 112.777 7.46799 113.047 7.46799C113.579 7.46799 114.009 7.53799 114.335 7.67799C114.671 7.80865 114.947 7.96732 115.161 8.15399C115.46 7.93932 115.801 7.77132 116.183 7.64999C116.575 7.52865 116.935 7.46799 117.261 7.46799C117.849 7.46799 118.33 7.55199 118.703 7.71999C119.086 7.87865 119.389 8.10732 119.613 8.40599C119.837 8.70465 119.991 9.05932 120.075 9.46999C120.159 9.88065 120.201 10.338 120.201 10.842V15H118.115V11.094C118.115 10.422 118.027 9.94599 117.849 9.66599C117.681 9.38599 117.387 9.24599 116.967 9.24599C116.855 9.24599 116.697 9.27399 116.491 9.32999C116.295 9.38599 116.132 9.45599 116.001 9.53999C116.067 9.75465 116.109 9.98332 116.127 10.226C116.146 10.4593 116.155 10.7113 116.155 10.982V15H114.069V11.094Z" fill="white"/>
<path d="M50.4331 25.8891L50.6748 27.103L50.9702 25.9429L52.6675 20.1797H53.2637L54.9395 25.9429L55.2295 27.1138L55.4873 25.8891L56.8999 20.1797H57.5767L55.5732 28H54.9395L53.167 21.8823L52.9683 21.1089L52.7749 21.8823L50.9595 28H50.3257L48.3276 20.1797H49.0044L50.4331 25.8891Z" fill="white"/>
<path d="M60.9428 28.1074C60.4487 28.1074 60.0011 27.9857 59.6001 27.7422C59.2026 27.4987 58.8929 27.1603 58.6709 26.727C58.4489 26.2902 58.3379 25.8014 58.3379 25.2607V25.0298C58.3379 24.4712 58.4453 23.9681 58.6601 23.5205C58.8785 23.0729 59.1811 22.722 59.5678 22.4678C59.9546 22.2099 60.3735 22.081 60.8247 22.081C61.5301 22.081 62.0887 22.3227 62.5004 22.8061C62.9158 23.286 63.1235 23.943 63.1235 24.7773V25.1372H58.977V25.2607C58.977 25.9196 59.165 26.4692 59.541 26.9097C59.9205 27.3465 60.3968 27.5649 60.9697 27.5649C61.3134 27.5649 61.616 27.5023 61.8774 27.3769C62.1424 27.2516 62.3823 27.0511 62.5971 26.7754L63 27.0815C62.5273 27.7654 61.8416 28.1074 60.9428 28.1074ZM60.8247 22.6289C60.3413 22.6289 59.9331 22.8061 59.6001 23.1606C59.2706 23.5151 59.0701 23.9914 58.9985 24.5893H62.4843V24.5195C62.4664 23.9609 62.3071 23.5062 62.0063 23.1553C61.7055 22.8043 61.3116 22.6289 60.8247 22.6289Z" fill="white"/>
<path d="M69.2182 25.1533C69.2182 26.0592 69.0177 26.779 68.6166 27.3125C68.2156 27.8424 67.6767 28.1074 66.9999 28.1074C66.1907 28.1074 65.5784 27.8066 65.163 27.2051L65.1362 28H64.5346V19.75H65.1737V23.0317C65.582 22.3979 66.1871 22.081 66.9892 22.081C67.6767 22.081 68.2192 22.3442 68.6166 22.8706C69.0177 23.3934 69.2182 24.1221 69.2182 25.0566V25.1533ZM68.5737 25.0405C68.5737 24.2742 68.4251 23.6834 68.1279 23.2681C67.8307 22.8491 67.4117 22.6396 66.871 22.6396C66.4592 22.6396 66.1101 22.7417 65.8237 22.9458C65.5372 23.1463 65.3206 23.4417 65.1737 23.832V26.4531C65.496 27.1836 66.0654 27.5488 66.8818 27.5488C67.4117 27.5488 67.8253 27.3393 68.1225 26.9204C68.4233 26.5015 68.5737 25.8748 68.5737 25.0405Z" fill="white"/>
<path d="M73.3885 25.0405C73.3885 24.1382 73.589 23.4202 73.9901 22.8867C74.3947 22.3496 74.9426 22.081 75.6336 22.081C76.4178 22.081 77.0158 22.3908 77.4276 23.0102V19.75H78.0667V28H77.4652L77.4383 27.2265C77.0265 27.8138 76.4214 28.1074 75.6229 28.1074C74.9533 28.1074 74.4126 27.8389 74.0008 27.3017C73.5926 26.7611 73.3885 26.0324 73.3885 25.1157V25.0405ZM74.0384 25.1533C74.0384 25.8945 74.187 26.48 74.4842 26.9097C74.7814 27.3358 75.2004 27.5488 75.7411 27.5488C76.5324 27.5488 77.0946 27.1997 77.4276 26.5015V23.7729C77.0946 23.0174 76.536 22.6396 75.7518 22.6396C75.2111 22.6396 74.7904 22.8527 74.4896 23.2788C74.1888 23.7013 74.0384 24.3262 74.0384 25.1533Z" fill="white"/>
<path d="M82.1741 28.1074C81.68 28.1074 81.2324 27.9857 80.8313 27.7422C80.4339 27.4987 80.1242 27.1603 79.9021 26.727C79.6801 26.2902 79.5691 25.8014 79.5691 25.2607V25.0298C79.5691 24.4712 79.6766 23.9681 79.8914 23.5205C80.1098 23.0729 80.4124 22.722 80.7991 22.4678C81.1858 22.2099 81.6048 22.081 82.056 22.081C82.7614 22.081 83.32 22.3227 83.7317 22.8061C84.1471 23.286 84.3548 23.943 84.3548 24.7773V25.1372H80.2083V25.2607C80.2083 25.9196 80.3963 26.4692 80.7723 26.9097C81.1518 27.3465 81.6281 27.5649 82.201 27.5649C82.5447 27.5649 82.8473 27.5023 83.1087 27.3769C83.3737 27.2516 83.6136 27.0511 83.8284 26.7754L84.2313 27.0815C83.7586 27.7654 83.0729 28.1074 82.1741 28.1074ZM82.056 22.6289C81.5726 22.6289 81.1644 22.8061 80.8313 23.1606C80.5019 23.5151 80.3014 23.9914 80.2298 24.5893H83.7156V24.5195C83.6977 23.9609 83.5384 23.5062 83.2376 23.1553C82.9368 22.8043 82.5429 22.6289 82.056 22.6289Z" fill="white"/>
<path d="M89.2517 26.5229C89.2517 26.2043 89.1228 25.9482 88.865 25.7549C88.6108 25.5615 88.2258 25.4111 87.7102 25.3037C87.1946 25.1927 86.7935 25.0674 86.5071 24.9277C86.2242 24.7845 86.013 24.6108 85.8733 24.4067C85.7372 24.2026 85.6692 23.9556 85.6692 23.6655C85.6692 23.2072 85.8608 22.8294 86.2439 22.5322C86.627 22.2314 87.1176 22.081 87.7156 22.081C88.3637 22.081 88.8829 22.2422 89.2732 22.5644C89.6671 22.8831 89.864 23.3003 89.864 23.8159H89.2195C89.2195 23.4757 89.0763 23.1929 88.7898 22.9673C88.5069 22.7417 88.1489 22.6289 87.7156 22.6289C87.2931 22.6289 86.9529 22.7238 86.6951 22.9136C86.4408 23.0998 86.3137 23.3432 86.3137 23.644C86.3137 23.9341 86.4194 24.1597 86.6306 24.3208C86.8455 24.4783 87.234 24.6234 87.7962 24.7558C88.3619 24.8883 88.7844 25.0298 89.0637 25.1802C89.3466 25.3306 89.5561 25.5114 89.6922 25.7226C89.8282 25.9339 89.8963 26.1899 89.8963 26.4907C89.8963 26.9813 89.6975 27.3734 89.3001 27.667C88.9062 27.9606 88.3906 28.1074 87.7532 28.1074C87.0764 28.1074 86.5268 27.9445 86.1043 27.6186C85.6853 27.2892 85.4758 26.8738 85.4758 26.3725H86.1204C86.1454 26.7485 86.303 27.0421 86.593 27.2534C86.8866 27.4611 87.2734 27.5649 87.7532 27.5649C88.2008 27.5649 88.5624 27.4665 88.8381 27.2695C89.1139 27.0726 89.2517 26.8237 89.2517 26.5229Z" fill="white"/>
<path d="M92.2312 28H91.5866V22.1885H92.2312V28ZM91.4738 20.5073C91.4738 20.3856 91.5132 20.2835 91.592 20.2012C91.6708 20.1152 91.7782 20.0723 91.9143 20.0723C92.0503 20.0723 92.1578 20.1152 92.2365 20.2012C92.3189 20.2835 92.3601 20.3856 92.3601 20.5073C92.3601 20.6291 92.3189 20.7311 92.2365 20.8135C92.1578 20.8958 92.0503 20.937 91.9143 20.937C91.7782 20.937 91.6708 20.8958 91.592 20.8135C91.5132 20.7311 91.4738 20.6291 91.4738 20.5073Z" fill="white"/>
<path d="M93.8893 25.0405C93.8893 24.131 94.0899 23.4113 94.4909 22.8813C94.8955 22.3478 95.4434 22.081 96.1345 22.081C96.9258 22.081 97.5274 22.3961 97.9391 23.0264L97.9714 22.1885H98.5729V27.8818C98.5729 28.6302 98.3635 29.2228 97.9445 29.6597C97.5256 30.0965 96.958 30.3149 96.2419 30.3149C95.8373 30.3149 95.4505 30.2236 95.0817 30.041C94.7165 29.862 94.4282 29.6221 94.217 29.3213L94.5768 28.9346C95.0316 29.4932 95.5723 29.7724 96.1989 29.7724C96.736 29.7724 97.155 29.6131 97.4557 29.2944C97.7565 28.9793 97.9123 28.5407 97.923 27.9785V27.248C97.5112 27.821 96.9115 28.1074 96.1237 28.1074C95.4505 28.1074 94.9098 27.8389 94.5016 27.3017C94.0934 26.7646 93.8893 26.0395 93.8893 25.1265V25.0405ZM94.5392 25.1533C94.5392 25.8945 94.6878 26.48 94.985 26.9097C95.2822 27.3358 95.7012 27.5488 96.2419 27.5488C97.0332 27.5488 97.5936 27.1943 97.923 26.4853V23.7837C97.7726 23.4113 97.556 23.1284 97.2731 22.935C96.9902 22.7381 96.6501 22.6396 96.2526 22.6396C95.7119 22.6396 95.2912 22.8527 94.9904 23.2788C94.6896 23.7013 94.5392 24.3262 94.5392 25.1533Z" fill="white"/>
<path d="M101.026 22.1885L101.048 23.1821C101.266 22.824 101.538 22.5519 101.864 22.3657C102.19 22.1759 102.55 22.081 102.943 22.081C103.567 22.081 104.03 22.2565 104.335 22.6074C104.639 22.9583 104.793 23.4847 104.797 24.1865V28H104.157V24.1811C104.154 23.6619 104.043 23.2752 103.824 23.021C103.61 22.7668 103.264 22.6396 102.788 22.6396C102.39 22.6396 102.038 22.765 101.73 23.0156C101.425 23.2627 101.2 23.5975 101.053 24.02V28H100.414V22.1885H101.026Z" fill="white"/>
<path d="M108.877 28.1074C108.383 28.1074 107.935 27.9857 107.534 27.7422C107.137 27.4987 106.827 27.1603 106.605 26.727C106.383 26.2902 106.272 25.8014 106.272 25.2607V25.0298C106.272 24.4712 106.379 23.9681 106.594 23.5205C106.813 23.0729 107.115 22.722 107.502 22.4678C107.889 22.2099 108.308 22.081 108.759 22.081C109.464 22.081 110.023 22.3227 110.435 22.8061C110.85 23.286 111.058 23.943 111.058 24.7773V25.1372H106.911V25.2607C106.911 25.9196 107.099 26.4692 107.475 26.9097C107.855 27.3465 108.331 27.5649 108.904 27.5649C109.248 27.5649 109.55 27.5023 109.812 27.3769C110.077 27.2516 110.317 27.0511 110.531 26.7754L110.934 27.0815C110.462 27.7654 109.776 28.1074 108.877 28.1074ZM108.759 22.6289C108.275 22.6289 107.867 22.8061 107.534 23.1606C107.205 23.5151 107.004 23.9914 106.933 24.5893H110.419V24.5195C110.401 23.9609 110.241 23.5062 109.941 23.1553C109.64 22.8043 109.246 22.6289 108.759 22.6289Z" fill="white"/>
<path d="M115.16 22.7363C115.024 22.7112 114.879 22.6987 114.725 22.6987C114.324 22.6987 113.983 22.8115 113.704 23.0371C113.428 23.2591 113.232 23.5832 113.113 24.0093V28H112.474V22.1885H113.103L113.113 23.1123C113.454 22.4248 114 22.081 114.752 22.081C114.931 22.081 115.072 22.1043 115.176 22.1509L115.16 22.7363Z" fill="white"/>
<circle opacity="0.3" cx="16" cy="16" r="15.5" stroke="white"/>
<ellipse cx="2.73205" cy="23.732" rx="2" ry="2" transform="rotate(-30 2.73205 23.732)" fill="white"/>
<ellipse cx="28.732" cy="7.73205" rx="2" ry="2" transform="rotate(-30 28.732 7.73205)" fill="white"/>
<circle cx="16" cy="16" r="8" fill="white"/>
</svg>
