<svg width="144" height="58" viewBox="0 0 144 58" fill="none" xmlns="http://www.w3.org/2000/svg">
<path d="M73.454 23.202L72.104 24.534V27H69.296V13.644H72.104V21.204L76.208 17.316H79.556L75.524 21.42L79.916 27H76.514L73.454 23.202ZM85.7249 27.144C84.7049 27.144 83.7869 26.934 82.9709 26.514C82.1669 26.082 81.5369 25.488 81.0809 24.732C80.6249 23.976 80.3969 23.118 80.3969 22.158C80.3969 21.198 80.6249 20.34 81.0809 19.584C81.5369 18.828 82.1669 18.24 82.9709 17.82C83.7869 17.388 84.7049 17.172 85.7249 17.172C86.7449 17.172 87.6569 17.388 88.4609 17.82C89.2649 18.24 89.8949 18.828 90.3509 19.584C90.8069 20.34 91.0349 21.198 91.0349 22.158C91.0349 23.118 90.8069 23.976 90.3509 24.732C89.8949 25.488 89.2649 26.082 88.4609 26.514C87.6569 26.934 86.7449 27.144 85.7249 27.144ZM85.7249 24.84C86.4449 24.84 87.0329 24.6 87.4889 24.12C87.9569 23.628 88.1909 22.974 88.1909 22.158C88.1909 21.342 87.9569 20.694 87.4889 20.214C87.0329 19.722 86.4449 19.476 85.7249 19.476C85.0049 19.476 84.4109 19.722 83.9429 20.214C83.4749 20.694 83.2409 21.342 83.2409 22.158C83.2409 22.974 83.4749 23.628 83.9429 24.12C84.4109 24.6 85.0049 24.84 85.7249 24.84ZM103.028 17.316V27H100.364V25.848C99.9919 26.268 99.5479 26.592 99.0319 26.82C98.5159 27.036 97.9579 27.144 97.3579 27.144C96.0859 27.144 95.0779 26.778 94.3339 26.046C93.5899 25.314 93.2179 24.228 93.2179 22.788V17.316H96.0259V22.374C96.0259 23.934 96.6799 24.714 97.9879 24.714C98.6599 24.714 99.1999 24.498 99.6079 24.066C100.016 23.622 100.22 22.968 100.22 22.104V17.316H103.028ZM109.067 17.532H111.551V19.692H109.139V27H106.331V19.692H104.837V17.532H106.331V17.1C106.331 15.996 106.655 15.12 107.303 14.472C107.963 13.824 108.887 13.5 110.075 13.5C110.495 13.5 110.891 13.548 111.263 13.644C111.647 13.728 111.965 13.854 112.217 14.022L111.479 16.056C111.155 15.828 110.777 15.714 110.345 15.714C109.493 15.714 109.067 16.182 109.067 17.118V17.532ZM116.388 17.532H118.872V19.692H116.46V27H113.652V19.692H112.158V17.532H113.652V17.1C113.652 15.996 113.976 15.12 114.624 14.472C115.284 13.824 116.208 13.5 117.396 13.5C117.816 13.5 118.212 13.548 118.584 13.644C118.968 13.728 119.286 13.854 119.538 14.022L118.8 16.056C118.476 15.828 118.098 15.714 117.666 15.714C116.814 15.714 116.388 16.182 116.388 17.118V17.532ZM123.709 17.532H126.193V19.692H123.781V27H120.973V19.692H119.479V17.532H120.973V17.1C120.973 15.996 121.297 15.12 121.945 14.472C122.605 13.824 123.529 13.5 124.717 13.5C125.137 13.5 125.533 13.548 125.905 13.644C126.289 13.728 126.607 13.854 126.859 14.022L126.121 16.056C125.797 15.828 125.419 15.714 124.987 15.714C124.135 15.714 123.709 16.182 123.709 17.118V17.532Z" fill="#2A3338"/>
<path d="M71.972 38.052L70.256 39.792V42H69.368V33.6H70.256V38.676L75.188 33.6H76.208L72.572 37.404L76.46 42H75.404L71.972 38.052ZM77.6021 35.688H78.4541V42H77.6021V35.688ZM78.0341 34.308C77.8581 34.308 77.7101 34.248 77.5901 34.128C77.4701 34.008 77.4101 33.864 77.4101 33.696C77.4101 33.536 77.4701 33.396 77.5901 33.276C77.7101 33.156 77.8581 33.096 78.0341 33.096C78.2101 33.096 78.3581 33.156 78.4781 33.276C78.5981 33.388 78.6581 33.524 78.6581 33.684C78.6581 33.86 78.5981 34.008 78.4781 34.128C78.3581 34.248 78.2101 34.308 78.0341 34.308ZM81.6407 36.924C81.8407 36.5 82.1367 36.18 82.5287 35.964C82.9287 35.748 83.4207 35.64 84.0047 35.64V36.468L83.8007 36.456C83.1367 36.456 82.6167 36.66 82.2407 37.068C81.8647 37.476 81.6767 38.048 81.6767 38.784V42H80.8247V35.688H81.6407V36.924ZM85.5474 35.688H86.3994V42H85.5474V35.688ZM85.9794 34.308C85.8034 34.308 85.6554 34.248 85.5354 34.128C85.4154 34.008 85.3554 33.864 85.3554 33.696C85.3554 33.536 85.4154 33.396 85.5354 33.276C85.6554 33.156 85.8034 33.096 85.9794 33.096C86.1554 33.096 86.3034 33.156 86.4234 33.276C86.5434 33.388 86.6034 33.524 86.6034 33.684C86.6034 33.86 86.5434 34.008 86.4234 34.128C86.3034 34.248 86.1554 34.308 85.9794 34.308ZM88.77 33.096H89.622V42H88.77V33.096ZM91.9927 33.096H92.8447V42H91.9927V33.096ZM101.14 38.052L99.424 39.792V42H98.536V33.6H99.424V38.676L104.356 33.6H105.376L101.74 37.404L105.628 42H104.572L101.14 38.052ZM109.174 42.06C108.566 42.06 108.018 41.924 107.53 41.652C107.042 41.372 106.658 40.988 106.378 40.5C106.098 40.012 105.958 39.46 105.958 38.844C105.958 38.228 106.098 37.676 106.378 37.188C106.658 36.7 107.042 36.32 107.53 36.048C108.018 35.776 108.566 35.64 109.174 35.64C109.782 35.64 110.33 35.776 110.818 36.048C111.306 36.32 111.686 36.7 111.958 37.188C112.238 37.676 112.378 38.228 112.378 38.844C112.378 39.46 112.238 40.012 111.958 40.5C111.686 40.988 111.306 41.372 110.818 41.652C110.33 41.924 109.782 42.06 109.174 42.06ZM109.174 41.304C109.622 41.304 110.022 41.204 110.374 41.004C110.734 40.796 111.014 40.504 111.214 40.128C111.414 39.752 111.514 39.324 111.514 38.844C111.514 38.364 111.414 37.936 111.214 37.56C111.014 37.184 110.734 36.896 110.374 36.696C110.022 36.488 109.622 36.384 109.174 36.384C108.726 36.384 108.322 36.488 107.962 36.696C107.61 36.896 107.33 37.184 107.122 37.56C106.922 37.936 106.822 38.364 106.822 38.844C106.822 39.324 106.922 39.752 107.122 40.128C107.33 40.504 107.61 40.796 107.962 41.004C108.322 41.204 108.726 41.304 109.174 41.304ZM115.81 42.06C115.298 42.06 114.806 41.988 114.334 41.844C113.87 41.692 113.506 41.504 113.242 41.28L113.626 40.608C113.89 40.816 114.222 40.988 114.622 41.124C115.022 41.252 115.438 41.316 115.87 41.316C116.446 41.316 116.87 41.228 117.142 41.052C117.422 40.868 117.562 40.612 117.562 40.284C117.562 40.052 117.486 39.872 117.334 39.744C117.182 39.608 116.99 39.508 116.758 39.444C116.526 39.372 116.218 39.304 115.834 39.24C115.322 39.144 114.91 39.048 114.598 38.952C114.286 38.848 114.018 38.676 113.794 38.436C113.578 38.196 113.47 37.864 113.47 37.44C113.47 36.912 113.69 36.48 114.13 36.144C114.57 35.808 115.182 35.64 115.966 35.64C116.374 35.64 116.782 35.696 117.19 35.808C117.598 35.912 117.934 36.052 118.198 36.228L117.826 36.912C117.306 36.552 116.686 36.372 115.966 36.372C115.422 36.372 115.01 36.468 114.73 36.66C114.458 36.852 114.322 37.104 114.322 37.416C114.322 37.656 114.398 37.848 114.55 37.992C114.71 38.136 114.906 38.244 115.138 38.316C115.37 38.38 115.69 38.448 116.098 38.52C116.602 38.616 117.006 38.712 117.31 38.808C117.614 38.904 117.874 39.068 118.09 39.3C118.306 39.532 118.414 39.852 118.414 40.26C118.414 40.812 118.182 41.252 117.718 41.58C117.262 41.9 116.626 42.06 115.81 42.06ZM125.176 35.688L122.02 42.756C121.764 43.348 121.468 43.768 121.132 44.016C120.796 44.264 120.392 44.388 119.92 44.388C119.616 44.388 119.332 44.34 119.068 44.244C118.804 44.148 118.576 44.004 118.384 43.812L118.78 43.176C119.1 43.496 119.484 43.656 119.932 43.656C120.22 43.656 120.464 43.576 120.664 43.416C120.872 43.256 121.064 42.984 121.24 42.6L121.516 41.988L118.696 35.688H119.584L121.96 41.052L124.336 35.688H125.176ZM127.192 36.924C127.392 36.5 127.688 36.18 128.08 35.964C128.48 35.748 128.972 35.64 129.556 35.64V36.468L129.352 36.456C128.688 36.456 128.168 36.66 127.792 37.068C127.416 37.476 127.228 38.048 127.228 38.784V42H126.376V35.688H127.192V36.924ZM136.536 39.108H131.256C131.304 39.764 131.556 40.296 132.012 40.704C132.468 41.104 133.044 41.304 133.74 41.304C134.132 41.304 134.492 41.236 134.82 41.1C135.148 40.956 135.432 40.748 135.672 40.476L136.152 41.028C135.872 41.364 135.52 41.62 135.096 41.796C134.68 41.972 134.22 42.06 133.716 42.06C133.068 42.06 132.492 41.924 131.988 41.652C131.492 41.372 131.104 40.988 130.824 40.5C130.544 40.012 130.404 39.46 130.404 38.844C130.404 38.228 130.536 37.676 130.8 37.188C131.072 36.7 131.44 36.32 131.904 36.048C132.376 35.776 132.904 35.64 133.488 35.64C134.072 35.64 134.596 35.776 135.06 36.048C135.524 36.32 135.888 36.7 136.152 37.188C136.416 37.668 136.548 38.22 136.548 38.844L136.536 39.108ZM133.488 36.372C132.88 36.372 132.368 36.568 131.952 36.96C131.544 37.344 131.312 37.848 131.256 38.472H135.732C135.676 37.848 135.44 37.344 135.024 36.96C134.616 36.568 134.104 36.372 133.488 36.372ZM143.469 35.688L140.661 42H139.785L136.989 35.688H137.877L140.241 41.064L142.629 35.688H143.469Z" fill="#3D4A52"/>
<g filter="url(#filter0_d)">
<path d="M49.3134 13.6417L19.3819 5.05902C17.3474 4.47562 15.2251 5.65201 14.6417 7.68656L6.059 37.6181C5.47561 39.6526 6.652 41.7749 8.68655 42.3583L38.618 50.941C40.6526 51.5244 42.7749 50.348 43.3583 48.3134L51.941 18.382C52.5244 16.3474 51.348 14.2251 49.3134 13.6417Z" fill="white"/>
</g>
<path d="M34.9963 33.2742C33.7891 34.0999 32.1297 34.8487 31.2433 35.0862C31.2433 35.0862 32.4272 35.5561 32.6918 36.5432C32.9563 37.5304 33.8783 38.3414 35.1951 37.9885C36.5119 37.6357 36.9049 36.4723 36.6403 35.4852C36.3758 34.4981 34.9963 33.2742 34.9963 33.2742Z" fill="black"/>
<path d="M36.5581 32.5002C36.8116 31.2503 34.8458 31.1324 34.4785 32.1623C34.1112 33.1923 30.8597 34.0245 30.8597 34.0245L31.346 35.8392C32.7852 35.4536 36.2718 33.7217 36.5581 32.5002Z" fill="black"/>
<path d="M25.1626 35.5537C24.3182 34.598 25.9617 33.513 26.7947 34.2213C27.6278 34.9297 30.8598 34.0246 30.8598 34.0246L31.346 35.8394C29.9068 36.225 26.0214 36.4684 25.1626 35.5537Z" fill="black"/>
<path d="M32.4294 29.4247C32.8898 31.1431 31.511 32.0936 30.5239 32.3582C29.5366 32.6227 27.882 32.5363 27.4088 30.7701C27.1305 29.7316 28.131 28.9641 29.515 28.5933C30.8989 28.2224 32.1512 28.3862 32.4294 29.4247Z" fill="black"/>
<path d="M18.3808 26.3208C18.1344 25.4014 18.6816 24.4537 19.5989 24.2078C20.5183 23.9615 21.466 24.5088 21.7123 25.428C21.9581 26.3454 21.4109 27.2931 20.4916 27.5395C19.5743 27.7852 18.6265 27.2381 18.3808 26.3208Z" fill="black"/>
<path d="M34.2058 22.0804C33.9594 21.1611 34.5066 20.2134 35.424 19.9675C36.3433 19.7212 37.291 20.2684 37.5373 21.1878C37.7832 22.1051 37.236 23.0529 36.3166 23.2992C35.3993 23.5449 34.4515 22.9978 34.2058 22.0804Z" fill="black"/>
<defs>
<filter id="filter0_d" x="0.00268555" y="0.00268555" width="57.9947" height="57.9946" filterUnits="userSpaceOnUse" color-interpolation-filters="sRGB">
<feFlood flood-opacity="0" result="BackgroundImageFix"/>
<feColorMatrix in="SourceAlpha" type="matrix" values="0 0 0 0 0 0 0 0 0 0 0 0 0 0 0 0 0 0 127 0"/>
<feOffset dy="1"/>
<feGaussianBlur stdDeviation="2.5"/>
<feColorMatrix type="matrix" values="0 0 0 0 0 0 0 0 0 0 0 0 0 0 0 0 0 0 0.1 0"/>
<feBlend mode="normal" in2="BackgroundImageFix" result="effect1_dropShadow"/>
<feBlend mode="normal" in="SourceGraphic" in2="effect1_dropShadow" result="shape"/>
</filter>
</defs>
</svg>
