<svg width="141" height="52" viewBox="0 0 141 52" fill="none" xmlns="http://www.w3.org/2000/svg">
<path d="M70.454 21.202L69.104 22.534V25H66.296V11.644H69.104V19.204L73.208 15.316H76.556L72.524 19.42L76.916 25H73.514L70.454 21.202ZM82.7249 25.144C81.7049 25.144 80.7869 24.934 79.9709 24.514C79.1669 24.082 78.5369 23.488 78.0809 22.732C77.6249 21.976 77.3969 21.118 77.3969 20.158C77.3969 19.198 77.6249 18.34 78.0809 17.584C78.5369 16.828 79.1669 16.24 79.9709 15.82C80.7869 15.388 81.7049 15.172 82.7249 15.172C83.7449 15.172 84.6569 15.388 85.4609 15.82C86.2649 16.24 86.8949 16.828 87.3509 17.584C87.8069 18.34 88.0349 19.198 88.0349 20.158C88.0349 21.118 87.8069 21.976 87.3509 22.732C86.8949 23.488 86.2649 24.082 85.4609 24.514C84.6569 24.934 83.7449 25.144 82.7249 25.144ZM82.7249 22.84C83.4449 22.84 84.0329 22.6 84.4889 22.12C84.9569 21.628 85.1909 20.974 85.1909 20.158C85.1909 19.342 84.9569 18.694 84.4889 18.214C84.0329 17.722 83.4449 17.476 82.7249 17.476C82.0049 17.476 81.4109 17.722 80.9429 18.214C80.4749 18.694 80.2409 19.342 80.2409 20.158C80.2409 20.974 80.4749 21.628 80.9429 22.12C81.4109 22.6 82.0049 22.84 82.7249 22.84ZM100.028 15.316V25H97.3639V23.848C96.9919 24.268 96.5479 24.592 96.0319 24.82C95.5159 25.036 94.9579 25.144 94.3579 25.144C93.0859 25.144 92.0779 24.778 91.3339 24.046C90.5899 23.314 90.2179 22.228 90.2179 20.788V15.316H93.0259V20.374C93.0259 21.934 93.6799 22.714 94.9879 22.714C95.6599 22.714 96.1999 22.498 96.6079 22.066C97.0159 21.622 97.2199 20.968 97.2199 20.104V15.316H100.028ZM106.067 15.532H108.551V17.692H106.139V25H103.331V17.692H101.837V15.532H103.331V15.1C103.331 13.996 103.655 13.12 104.303 12.472C104.963 11.824 105.887 11.5 107.075 11.5C107.495 11.5 107.891 11.548 108.263 11.644C108.647 11.728 108.965 11.854 109.217 12.022L108.479 14.056C108.155 13.828 107.777 13.714 107.345 13.714C106.493 13.714 106.067 14.182 106.067 15.118V15.532ZM113.388 15.532H115.872V17.692H113.46V25H110.652V17.692H109.158V15.532H110.652V15.1C110.652 13.996 110.976 13.12 111.624 12.472C112.284 11.824 113.208 11.5 114.396 11.5C114.816 11.5 115.212 11.548 115.584 11.644C115.968 11.728 116.286 11.854 116.538 12.022L115.8 14.056C115.476 13.828 115.098 13.714 114.666 13.714C113.814 13.714 113.388 14.182 113.388 15.118V15.532ZM120.709 15.532H123.193V17.692H120.781V25H117.973V17.692H116.479V15.532H117.973V15.1C117.973 13.996 118.297 13.12 118.945 12.472C119.605 11.824 120.529 11.5 121.717 11.5C122.137 11.5 122.533 11.548 122.905 11.644C123.289 11.728 123.607 11.854 123.859 12.022L123.121 14.056C122.797 13.828 122.419 13.714 121.987 13.714C121.135 13.714 120.709 14.182 120.709 15.118V15.532Z" fill="white"/>
<path d="M68.972 36.052L67.256 37.792V40H66.368V31.6H67.256V36.676L72.188 31.6H73.208L69.572 35.404L73.46 40H72.404L68.972 36.052ZM74.6021 33.688H75.4541V40H74.6021V33.688ZM75.0341 32.308C74.8581 32.308 74.7101 32.248 74.5901 32.128C74.4701 32.008 74.4101 31.864 74.4101 31.696C74.4101 31.536 74.4701 31.396 74.5901 31.276C74.7101 31.156 74.8581 31.096 75.0341 31.096C75.2101 31.096 75.3581 31.156 75.4781 31.276C75.5981 31.388 75.6581 31.524 75.6581 31.684C75.6581 31.86 75.5981 32.008 75.4781 32.128C75.3581 32.248 75.2101 32.308 75.0341 32.308ZM78.6407 34.924C78.8407 34.5 79.1367 34.18 79.5287 33.964C79.9287 33.748 80.4207 33.64 81.0047 33.64V34.468L80.8007 34.456C80.1367 34.456 79.6167 34.66 79.2407 35.068C78.8647 35.476 78.6767 36.048 78.6767 36.784V40H77.8247V33.688H78.6407V34.924ZM82.5474 33.688H83.3994V40H82.5474V33.688ZM82.9794 32.308C82.8034 32.308 82.6554 32.248 82.5354 32.128C82.4154 32.008 82.3554 31.864 82.3554 31.696C82.3554 31.536 82.4154 31.396 82.5354 31.276C82.6554 31.156 82.8034 31.096 82.9794 31.096C83.1554 31.096 83.3034 31.156 83.4234 31.276C83.5434 31.388 83.6034 31.524 83.6034 31.684C83.6034 31.86 83.5434 32.008 83.4234 32.128C83.3034 32.248 83.1554 32.308 82.9794 32.308ZM85.77 31.096H86.622V40H85.77V31.096ZM88.9927 31.096H89.8447V40H88.9927V31.096ZM98.14 36.052L96.424 37.792V40H95.536V31.6H96.424V36.676L101.356 31.6H102.376L98.74 35.404L102.628 40H101.572L98.14 36.052ZM106.174 40.06C105.566 40.06 105.018 39.924 104.53 39.652C104.042 39.372 103.658 38.988 103.378 38.5C103.098 38.012 102.958 37.46 102.958 36.844C102.958 36.228 103.098 35.676 103.378 35.188C103.658 34.7 104.042 34.32 104.53 34.048C105.018 33.776 105.566 33.64 106.174 33.64C106.782 33.64 107.33 33.776 107.818 34.048C108.306 34.32 108.686 34.7 108.958 35.188C109.238 35.676 109.378 36.228 109.378 36.844C109.378 37.46 109.238 38.012 108.958 38.5C108.686 38.988 108.306 39.372 107.818 39.652C107.33 39.924 106.782 40.06 106.174 40.06ZM106.174 39.304C106.622 39.304 107.022 39.204 107.374 39.004C107.734 38.796 108.014 38.504 108.214 38.128C108.414 37.752 108.514 37.324 108.514 36.844C108.514 36.364 108.414 35.936 108.214 35.56C108.014 35.184 107.734 34.896 107.374 34.696C107.022 34.488 106.622 34.384 106.174 34.384C105.726 34.384 105.322 34.488 104.962 34.696C104.61 34.896 104.33 35.184 104.122 35.56C103.922 35.936 103.822 36.364 103.822 36.844C103.822 37.324 103.922 37.752 104.122 38.128C104.33 38.504 104.61 38.796 104.962 39.004C105.322 39.204 105.726 39.304 106.174 39.304ZM112.81 40.06C112.298 40.06 111.806 39.988 111.334 39.844C110.87 39.692 110.506 39.504 110.242 39.28L110.626 38.608C110.89 38.816 111.222 38.988 111.622 39.124C112.022 39.252 112.438 39.316 112.87 39.316C113.446 39.316 113.87 39.228 114.142 39.052C114.422 38.868 114.562 38.612 114.562 38.284C114.562 38.052 114.486 37.872 114.334 37.744C114.182 37.608 113.99 37.508 113.758 37.444C113.526 37.372 113.218 37.304 112.834 37.24C112.322 37.144 111.91 37.048 111.598 36.952C111.286 36.848 111.018 36.676 110.794 36.436C110.578 36.196 110.47 35.864 110.47 35.44C110.47 34.912 110.69 34.48 111.13 34.144C111.57 33.808 112.182 33.64 112.966 33.64C113.374 33.64 113.782 33.696 114.19 33.808C114.598 33.912 114.934 34.052 115.198 34.228L114.826 34.912C114.306 34.552 113.686 34.372 112.966 34.372C112.422 34.372 112.01 34.468 111.73 34.66C111.458 34.852 111.322 35.104 111.322 35.416C111.322 35.656 111.398 35.848 111.55 35.992C111.71 36.136 111.906 36.244 112.138 36.316C112.37 36.38 112.69 36.448 113.098 36.52C113.602 36.616 114.006 36.712 114.31 36.808C114.614 36.904 114.874 37.068 115.09 37.3C115.306 37.532 115.414 37.852 115.414 38.26C115.414 38.812 115.182 39.252 114.718 39.58C114.262 39.9 113.626 40.06 112.81 40.06ZM122.176 33.688L119.02 40.756C118.764 41.348 118.468 41.768 118.132 42.016C117.796 42.264 117.392 42.388 116.92 42.388C116.616 42.388 116.332 42.34 116.068 42.244C115.804 42.148 115.576 42.004 115.384 41.812L115.78 41.176C116.1 41.496 116.484 41.656 116.932 41.656C117.22 41.656 117.464 41.576 117.664 41.416C117.872 41.256 118.064 40.984 118.24 40.6L118.516 39.988L115.696 33.688H116.584L118.96 39.052L121.336 33.688H122.176ZM124.192 34.924C124.392 34.5 124.688 34.18 125.08 33.964C125.48 33.748 125.972 33.64 126.556 33.64V34.468L126.352 34.456C125.688 34.456 125.168 34.66 124.792 35.068C124.416 35.476 124.228 36.048 124.228 36.784V40H123.376V33.688H124.192V34.924ZM133.536 37.108H128.256C128.304 37.764 128.556 38.296 129.012 38.704C129.468 39.104 130.044 39.304 130.74 39.304C131.132 39.304 131.492 39.236 131.82 39.1C132.148 38.956 132.432 38.748 132.672 38.476L133.152 39.028C132.872 39.364 132.52 39.62 132.096 39.796C131.68 39.972 131.22 40.06 130.716 40.06C130.068 40.06 129.492 39.924 128.988 39.652C128.492 39.372 128.104 38.988 127.824 38.5C127.544 38.012 127.404 37.46 127.404 36.844C127.404 36.228 127.536 35.676 127.8 35.188C128.072 34.7 128.44 34.32 128.904 34.048C129.376 33.776 129.904 33.64 130.488 33.64C131.072 33.64 131.596 33.776 132.06 34.048C132.524 34.32 132.888 34.7 133.152 35.188C133.416 35.668 133.548 36.22 133.548 36.844L133.536 37.108ZM130.488 34.372C129.88 34.372 129.368 34.568 128.952 34.96C128.544 35.344 128.312 35.848 128.256 36.472H132.732C132.676 35.848 132.44 35.344 132.024 34.96C131.616 34.568 131.104 34.372 130.488 34.372ZM140.469 33.688L137.661 40H136.785L133.989 33.688H134.877L137.241 39.064L139.629 33.688H140.469Z" fill="#E3E3E3"/>
<path d="M46.3134 11.6417L16.3819 3.05902C14.3474 2.47562 12.2251 3.65201 11.6417 5.68656L3.059 35.6181C2.47561 37.6526 3.652 39.7749 5.68655 40.3583L35.618 48.941C37.6526 49.5244 39.7749 48.348 40.3583 46.3134L48.941 16.382C49.5244 14.3474 48.348 12.2251 46.3134 11.6417Z" fill="white"/>
<path d="M31.9963 31.2742C30.7891 32.0999 29.1297 32.8487 28.2433 33.0862C28.2433 33.0862 29.4272 33.5561 29.6918 34.5432C29.9563 35.5304 30.8783 36.3414 32.1951 35.9885C33.5119 35.6357 33.9049 34.4723 33.6403 33.4852C33.3758 32.4981 31.9963 31.2742 31.9963 31.2742Z" fill="#2A3338"/>
<path d="M33.5581 30.5002C33.8116 29.2503 31.8458 29.1324 31.4785 30.1623C31.1112 31.1923 27.8597 32.0245 27.8597 32.0245L28.346 33.8392C29.7852 33.4536 33.2718 31.7217 33.5581 30.5002Z" fill="#2A3338"/>
<path d="M22.1626 33.5537C21.3182 32.598 22.9617 31.513 23.7947 32.2213C24.6278 32.9297 27.8598 32.0246 27.8598 32.0246L28.346 33.8394C26.9068 34.225 23.0214 34.4684 22.1626 33.5537Z" fill="#2A3338"/>
<path d="M29.4294 27.4247C29.8898 29.1431 28.511 30.0936 27.5239 30.3582C26.5366 30.6227 24.882 30.5363 24.4088 28.7701C24.1305 27.7316 25.131 26.9641 26.515 26.5933C27.8989 26.2224 29.1512 26.3862 29.4294 27.4247Z" fill="#2A3338"/>
<path d="M15.3808 24.3208C15.1344 23.4014 15.6816 22.4537 16.5989 22.2078C17.5183 21.9615 18.466 22.5088 18.7123 23.428C18.9581 24.3454 18.4109 25.2931 17.4916 25.5395C16.5743 25.7852 15.6265 25.2381 15.3808 24.3208Z" fill="#2A3338"/>
<path d="M31.2058 20.0805C30.9594 19.1612 31.5066 18.2134 32.424 17.9676C33.3433 17.7213 34.291 18.2684 34.5373 19.1878C34.7832 20.1052 34.236 21.0529 33.3166 21.2992C32.3993 21.545 31.4515 20.9978 31.2058 20.0805Z" fill="#2A3338"/>
</svg>
