<svg width="644" height="516" viewBox="0 0 644 516" fill="none" xmlns="http://www.w3.org/2000/svg">
<path d="M172.368 392.954L220.585 317.121L112.599 248.449L56.8315 336.154L146.151 392.954H172.368Z" fill="#F0F0F0"/>
<path d="M553.915 236.47L552.112 247.547L548.506 242.653L550.566 235.183L553.915 236.47Z" fill="#A0616A"/>
<path d="M551.596 152.755L554.435 160.237C554.435 160.237 557.263 198.348 557.263 201.181C557.263 204.015 555.202 240.334 554.43 241.88C554.43 241.88 551.081 236.985 546.703 237.758C542.324 238.531 544.127 224.879 544.127 224.879L540.006 191.135L540.779 174.135L551.596 152.755Z" fill="#2A3338"/>
<path opacity="0.15" d="M551.596 152.755L554.435 160.237C554.435 160.237 557.263 198.348 557.263 201.181C557.263 204.015 555.202 240.334 554.43 241.88C554.43 241.88 551.081 236.985 546.703 237.758C542.324 238.531 544.127 224.879 544.127 224.879L540.006 191.135L540.779 174.135L551.596 152.755Z" fill="black"/>
<path d="M534.082 111.542C534.082 111.542 525.582 133.179 530.476 137.3C535.37 141.421 503.174 130.345 503.174 130.345L503.947 127.512C503.947 127.512 514.507 123.39 509.355 111.542C504.204 99.6927 534.082 111.542 534.082 111.542Z" fill="#D5B0B0"/>
<path opacity="0.1" d="M534.082 111.542C534.082 111.542 525.582 133.179 530.476 137.3C535.37 141.421 503.174 130.345 503.174 130.345L503.947 127.512C503.947 127.512 514.507 123.39 509.355 111.542C504.204 99.6927 534.082 111.542 534.082 111.542Z" fill="#D5B0B0"/>
<path d="M547.475 400.552C547.475 400.552 551.081 399.522 553.142 402.098C555.203 404.674 562.93 411.113 562.93 411.113C562.93 411.113 577.868 409.568 579.929 417.038C581.99 424.508 556.49 424.508 550.309 422.704C544.127 420.901 542.839 422.704 542.839 422.704C542.839 422.704 523.779 424.25 523.779 421.159C523.779 418.068 525.582 407.507 525.582 407.507L547.475 400.552Z" fill="#575A89"/>
<path d="M486.947 417.81L490.296 428.114C490.296 428.114 500.341 442.023 494.674 444.857C489.008 447.69 468.917 450.524 468.917 443.054V428.886C468.917 428.886 470.978 418.841 473.039 417.81C475.099 416.78 486.947 417.81 486.947 417.81Z" fill="#575A89"/>
<path d="M543.828 232.701C543.828 232.701 554.688 242.137 554.43 243.425C554.172 244.713 549.021 327.398 549.021 327.398L546.188 380.975C546.188 380.975 549.794 393.597 547.991 396.431C546.188 399.264 550.567 400.037 550.567 400.037C550.567 400.037 532.022 416.78 524.295 409.567L517.083 316.064L497.25 384.066C497.25 384.066 493.902 420.128 490.038 420.128C486.175 420.128 470.463 420.901 470.721 418.84C470.978 416.78 469.948 401.067 471.751 391.794C473.554 382.521 485.66 309.109 485.66 309.109C485.66 309.109 486.7 246.175 483.991 240.292C481.281 234.41 485.402 228.228 485.402 228.228L503.432 221.273L525.067 223.849L543.828 232.701Z" fill="#403F5C"/>
<path d="M521.976 120.299C531.934 120.299 540.006 112.227 540.006 102.269C540.006 92.3103 531.934 84.2375 521.976 84.2375C512.018 84.2375 503.946 92.3103 503.946 102.269C503.946 112.227 512.018 120.299 521.976 120.299Z" fill="#EDC4C4"/>
<path d="M478.19 141.164C479.081 138.644 480.582 136.383 482.559 134.585C484.537 132.787 486.93 131.508 489.523 130.86C494.718 129.553 499.8 127.831 504.719 125.709C504.719 125.709 523.007 134.467 526.613 134.467C530.218 134.467 530.219 132.148 530.219 132.148C530.219 132.148 539.491 141.937 544.385 142.967C549.279 143.997 556.49 156.104 553.915 162.801C552.165 167.095 549.632 171.025 546.445 174.392C546.445 174.392 547.476 210.454 544.127 217.151C544.127 217.151 552.369 232.864 544.642 233.894C536.915 234.925 507.295 231.319 502.144 234.925C496.992 238.531 487.462 234.152 486.175 239.046C484.887 243.94 482.053 244.971 482.053 244.971C482.053 244.971 477.675 238.016 480.25 233.894C482.826 229.773 478.19 141.164 478.19 141.164Z" fill="#2A3338"/>
<path d="M497.25 238.016L501.371 240.592C501.371 240.592 496.992 255.789 495.189 256.304C493.386 256.82 489.143 243.31 489.143 243.31L497.25 238.016Z" fill="#EDC4C4"/>
<path d="M507.416 79.9998L504.119 78.6764C504.119 78.6764 511.013 71.0668 520.606 71.7285L517.908 68.7508C517.908 68.7508 524.503 66.104 530.498 73.0519C533.649 76.7042 537.296 80.9974 539.569 85.8335H543.1L541.626 89.0869L546.785 92.3403L541.49 91.7559C541.992 94.5646 541.82 97.4526 540.989 100.182L541.131 102.753C541.131 102.753 534.994 93.2338 534.994 91.9104V95.2189C534.994 95.2189 531.697 92.2413 531.697 90.2562L529.898 92.5721L528.999 88.9328L517.908 92.5721L519.706 89.5945L512.812 90.587L515.51 86.9477C515.51 86.9477 507.716 91.2487 507.416 94.8881C507.117 98.5275 503.22 103.159 503.22 103.159L501.421 99.8509C501.421 99.8509 498.723 84.9626 507.416 79.9998Z" fill="#F9B34C"/>
<path opacity="0.1" d="M488.364 145.672L479.993 141.164C479.993 141.164 459.645 189.59 464.539 202.984C469.432 216.379 488.235 243.94 488.235 243.94C488.235 243.94 503.174 240.849 501.628 237.758C500.083 234.667 490.038 214.833 489.265 212.257C488.492 209.681 483.341 192.938 485.659 191.135C487.977 189.332 492.485 147.475 492.485 147.475L488.364 145.672Z" fill="black"/>
<path d="M488.493 138.33L478.19 141.164C478.19 141.164 457.842 189.59 462.736 202.984C467.63 216.379 486.432 243.94 486.432 243.94C486.432 243.94 501.371 240.849 499.826 237.758C498.28 234.667 488.235 214.833 487.462 212.257C486.69 209.681 481.538 192.938 483.856 191.135C486.175 189.332 497.25 144.77 497.25 144.77L488.493 138.33Z" fill="#2A3338"/>
<path d="M448.153 115.018L415.267 91.6707L391.921 124.559L424.807 147.907L448.153 115.018Z" fill="#F0F0F0"/>
<path d="M158.198 516C236.423 516 299.837 511.828 299.837 506.681C299.837 501.534 236.423 497.362 158.198 497.362C79.9732 497.362 16.5593 501.534 16.5593 506.681C16.5593 511.828 79.9732 516 158.198 516Z" fill="#D3D4D5"/>
<path d="M502.361 477.543C580.586 477.543 644 473.371 644 468.224C644 463.078 580.586 458.906 502.361 458.906C424.137 458.906 360.723 463.078 360.723 468.224C360.723 473.371 424.137 477.543 502.361 477.543Z" fill="#D3D4D5"/>
<path d="M16.5547 449.576L500.439 449.637" stroke="#2A3338" stroke-width="2" stroke-miterlimit="10"/>
<path d="M445.451 182.757C450.163 182.757 453.983 178.937 453.983 174.225C453.983 169.513 450.163 165.693 445.451 165.693C440.74 165.693 436.92 169.513 436.92 174.225C436.92 178.937 440.74 182.757 445.451 182.757Z" stroke="#2A3338" stroke-width="2" stroke-miterlimit="10"/>
<path d="M120.483 51.6753H101.869V70.2905H120.483V51.6753Z" stroke="#2A3338" stroke-width="2" stroke-miterlimit="10"/>
<path d="M144.526 311.513H125.912V330.128H144.526V311.513Z" stroke="#2A3338" stroke-width="2" stroke-miterlimit="10"/>
<path d="M25.0669 451.037V393.321" stroke="#2A3338" stroke-width="2" stroke-miterlimit="10"/>
<path d="M25.0668 401.482C29.5742 401.482 33.2281 397.828 33.2281 393.321C33.2281 388.813 29.5742 385.159 25.0668 385.159C20.5595 385.159 16.9055 388.813 16.9055 393.321C16.9055 397.828 20.5595 401.482 25.0668 401.482Z" fill="#2A3338"/>
<path d="M25.0669 428.892C25.0669 428.892 23.901 403.814 0 406.729Z" fill="#2A3338"/>
<path d="M396.616 101.976H393.562C392.58 101.976 391.784 102.772 391.784 103.753V154.691C391.784 155.673 392.58 156.469 393.562 156.469H396.616C397.597 156.469 398.393 155.673 398.393 154.691V103.753C398.393 102.772 397.597 101.976 396.616 101.976Z" fill="#3F3D56"/>
<path d="M174.616 59.2852H173.239C172.595 59.2852 172.073 59.8072 172.073 60.4511V76.0587C172.073 76.7027 172.595 77.2247 173.239 77.2247H174.616C175.26 77.2247 175.782 76.7027 175.782 76.0587V60.4511C175.782 59.8072 175.26 59.2852 174.616 59.2852Z" fill="#3F3D56"/>
<path d="M174.805 92.1294H173.253C172.527 92.1294 171.938 92.7179 171.938 93.4438V122.041C171.938 122.767 172.527 123.355 173.253 123.355H174.805C175.531 123.355 176.119 122.767 176.119 122.041V93.4438C176.119 92.7179 175.531 92.1294 174.805 92.1294Z" fill="#3F3D56"/>
<path d="M174.734 134.281H173.257C172.566 134.281 172.006 134.841 172.006 135.531V164.525C172.006 165.216 172.566 165.776 173.257 165.776H174.734C175.425 165.776 175.985 165.216 175.985 164.525V135.531C175.985 134.841 175.425 134.281 174.734 134.281Z" fill="#3F3D56"/>
<path d="M367.668 0H201.857C186.568 0 174.174 12.3952 174.174 27.6855V421.856C174.174 437.146 186.568 449.541 201.857 449.541H367.668C382.957 449.541 395.351 437.146 395.351 421.856V27.6855C395.351 12.3952 382.957 0 367.668 0Z" fill="#2A3338"/>
<path d="M292.342 13.4248H265.398C264.31 13.4248 263.427 14.3075 263.427 15.3964V17.7253C263.427 18.8142 264.31 19.6969 265.398 19.6969H292.342C293.431 19.6969 294.313 18.8142 294.313 17.7253V15.3964C294.313 14.3075 293.431 13.4248 292.342 13.4248Z" fill="#E6E8EC"/>
<path d="M302.541 20.1181C304.505 20.1181 306.098 18.5253 306.098 16.5605C306.098 14.5957 304.505 13.0029 302.541 13.0029C300.576 13.0029 298.983 14.5957 298.983 16.5605C298.983 18.5253 300.576 20.1181 302.541 20.1181Z" fill="#E6E8EC"/>
<path d="M381.693 29.2782V420.267C381.692 424.925 379.84 429.393 376.546 432.686C373.251 435.979 368.784 437.829 364.126 437.828H205.4C200.742 437.829 196.274 435.979 192.98 432.686C189.686 429.393 187.834 424.925 187.833 420.267V29.2782C187.833 26.9711 188.287 24.6865 189.17 22.5549C190.053 20.4233 191.347 18.4865 192.978 16.8551C194.609 15.2237 196.546 13.9297 198.677 13.0469C200.809 12.164 203.093 11.7098 205.4 11.71H229.152V14.7609C229.153 18.5972 230.678 22.276 233.39 24.9887C236.103 27.7014 239.781 29.2259 243.617 29.227H324.338C328.175 29.2269 331.854 27.7028 334.567 24.9899C337.28 22.277 338.804 18.5975 338.804 14.7609V11.71H364.126C366.433 11.7098 368.717 12.164 370.848 13.0469C372.98 13.9297 374.916 15.2237 376.548 16.8551C378.179 18.4865 379.473 20.4233 380.356 22.5549C381.239 24.6865 381.693 26.9711 381.693 29.2782V29.2782Z" fill="white"/>
<path opacity="0.3" d="M381.872 77.249H187.679V210.565H381.872V77.249Z" fill="#CCCCCC"/>
<path opacity="0.3" d="M381.872 254.149H187.679V387.466H381.872V254.149Z" fill="#CCCCCC"/>
<path opacity="0.3" d="M187.679 77.249L381.872 210.565" stroke="#6C63FF" stroke-width="2" stroke-miterlimit="10"/>
<path opacity="0.3" d="M381.872 77.249L187.679 210.565" stroke="#6C63FF" stroke-width="2" stroke-miterlimit="10"/>
<path opacity="0.3" d="M187.679 254.149L381.872 387.466" stroke="#6C63FF" stroke-width="2" stroke-miterlimit="10"/>
<path opacity="0.3" d="M381.872 254.149L187.679 387.466" stroke="#6C63FF" stroke-width="2" stroke-miterlimit="10"/>
<path d="M606.828 334.908H412.635V468.224H606.828V334.908Z" fill="white"/>
<path d="M606.828 468.224L565.668 387.814L551.71 425.922L502.361 353.495L469.675 398.361L453.784 379.225L412.635 430.101V468.224H606.828Z" fill="#2A3338"/>
<path d="M583.114 379.774C590.902 379.774 597.214 373.461 597.214 365.674C597.214 357.886 590.902 351.573 583.114 351.573C575.327 351.573 569.015 357.886 569.015 365.674C569.015 373.461 575.327 379.774 583.114 379.774Z" fill="#2A3338"/>
<path d="M251.129 372.083H56.936V505.399H251.129V372.083Z" fill="white"/>
<path d="M235.426 401.566H72.6379V409.258H235.426V401.566Z" fill="#2A3338"/>
<path d="M235.426 418.231H72.6379V425.922H235.426V418.231Z" fill="#2A3338"/>
<path d="M235.426 434.895H72.6379V442.587H235.426V434.895Z" fill="#2A3338"/>
<path d="M235.426 451.56H72.6379V459.251H235.426V451.56Z" fill="#2A3338"/>
<path d="M235.426 468.224H72.6379V475.916H235.426V468.224Z" fill="#2A3338"/>
</svg>
