<svg width="642" height="479" viewBox="0 0 642 479" fill="none" xmlns="http://www.w3.org/2000/svg">
<path d="M492.946 192.155C492.946 192.155 455.506 198.071 460.107 190.606C464.709 183.141 489.21 175.682 493.703 177.24C498.197 178.797 492.946 192.155 492.946 192.155Z" fill="#EDC4C4"/>
<path opacity="0.1" d="M492.946 192.155C492.946 192.155 455.506 198.071 460.107 190.606C464.709 183.141 489.21 175.682 493.703 177.24C498.197 178.797 492.946 192.155 492.946 192.155Z" fill="black"/>
<path d="M535.884 108.675C535.884 108.675 511.698 115.164 522.906 135.81C522.906 135.81 541.193 171.794 533.524 174.154C525.856 176.513 490.462 175.334 490.462 175.334C490.462 175.334 482.204 195.39 486.333 195.98C490.462 196.57 556.53 210.138 563.609 197.16C570.688 184.182 563.609 128.142 563.609 128.142C563.609 128.142 553.581 100.417 535.884 108.675Z" fill="#D2D2D2"/>
<path opacity="0.1" d="M535.884 108.675C535.884 108.675 511.698 115.164 522.906 135.81C522.906 135.81 541.193 171.794 533.524 174.154C525.856 176.513 490.462 175.334 490.462 175.334C490.462 175.334 482.204 195.39 486.333 195.98C490.462 196.57 556.53 210.138 563.609 197.16C570.688 184.182 563.609 128.142 563.609 128.142C563.609 128.142 553.581 100.417 535.884 108.675Z" fill="black"/>
<path d="M604.312 415.423C604.312 415.423 614.93 440.788 609.031 445.507C603.132 450.227 604.311 459.075 608.441 459.075C612.57 459.075 622.008 450.816 627.317 440.788C631.272 433.318 637.846 418.318 640.942 411.153C641.159 410.651 641.267 410.109 641.26 409.562C641.253 409.016 641.131 408.477 640.901 407.981C640.672 407.485 640.34 407.043 639.928 406.684C639.515 406.324 639.032 406.057 638.509 405.897L621.418 400.675L604.312 415.423Z" fill="#1A1A1D"/>
<path d="M492.232 446.097C492.232 446.097 469.816 464.384 458.018 463.794C446.22 463.204 444.451 475.592 458.018 477.362C471.586 479.132 512.288 479.721 515.828 477.362C519.367 475.002 518.187 450.226 515.828 449.637C513.468 449.047 492.232 446.097 492.232 446.097Z" fill="#1A1A1D"/>
<path d="M568.328 257.92C568.328 257.92 568.328 276.206 558.89 283.875C558.89 283.875 547.682 341.095 557.71 344.635C567.738 348.174 613.16 378.849 617.289 394.186L627.317 401.855C627.317 401.855 609.031 420.142 605.491 420.142C601.952 420.142 567.148 372.36 535.884 363.511C535.884 363.511 516.417 358.792 517.007 333.427C517.597 308.061 540.603 240.812 540.603 240.812H567.148L568.328 257.92Z" fill="#403F5C"/>
<path opacity="0.1" d="M568.328 257.92C568.328 257.92 568.328 276.206 558.89 283.875C558.89 283.875 547.682 341.095 557.71 344.635C567.738 348.174 613.16 378.849 617.289 394.186L627.317 401.855C627.317 401.855 609.031 420.142 605.491 420.142C601.952 420.142 567.148 372.36 535.884 363.511C535.884 363.511 516.417 358.792 517.007 333.427C517.597 308.061 540.603 240.812 540.603 240.812H567.148L568.328 257.92Z" fill="black"/>
<path d="M506.979 245.532C506.979 245.532 489.282 300.982 492.232 322.808C492.232 322.808 485.153 343.455 490.462 365.871C495.771 388.287 489.872 446.097 488.693 447.277C487.513 448.457 501.67 460.845 517.007 450.816C517.007 450.816 517.597 436.659 520.547 433.709C523.496 430.76 523.496 368.82 520.547 359.972C517.597 351.123 552.401 286.824 552.401 286.824C552.401 286.824 571.278 269.717 564.199 260.869C557.12 252.02 564.789 234.323 564.789 234.323L511.109 237.863L506.979 245.532Z" fill="#403F5C"/>
<path d="M498.721 110.445C511.752 110.445 522.316 99.8806 522.316 86.8489C522.316 73.8172 511.752 63.2529 498.721 63.2529C485.689 63.2529 475.125 73.8172 475.125 86.8489C475.125 99.8806 485.689 110.445 498.721 110.445Z" fill="#EDC4C4"/>
<path d="M514.058 76.2307C514.058 76.2307 532.934 98.057 537.653 98.6469C542.373 99.2368 522.316 124.602 522.316 124.602C522.316 124.602 511.108 105.726 503.44 103.956C495.771 102.186 514.058 76.2307 514.058 76.2307Z" fill="#EDC4C4"/>
<path d="M541.193 98.0571L538.243 93.9277C538.243 93.9277 517.919 112.047 517.168 116.85C516.662 119.545 517.24 122.331 518.777 124.602L530.575 119.293L536.474 107.495L541.193 98.0571Z" fill="#D2D2D2"/>
<path d="M505.799 244.352C505.799 244.352 501.08 258.509 504.62 257.919C508.159 257.329 508.159 249.661 512.288 249.661C516.417 249.661 518.777 243.172 518.777 243.172L505.799 244.352Z" fill="#D2D2D2"/>
<path d="M535.884 245.531C535.884 245.531 549.451 275.026 566.558 272.077L569.899 270.645C571.294 270.048 572.434 268.976 573.115 267.62C573.796 266.263 573.976 264.709 573.622 263.233C571.992 256.439 568.995 245.531 566.558 245.531H535.884Z" fill="#D2D2D2"/>
<path d="M475.176 88.3301C475.176 88.3301 477.484 80.9501 485.153 83.8996C492.822 86.8491 499.311 93.338 501.08 88.6188C502.85 83.8997 507.379 79.5583 510.423 83.2037C513.468 86.8491 527.33 93.633 526.741 90.0936C526.151 86.5542 534.114 65.6128 518.777 57.9441C503.44 50.2754 495.181 44.3764 487.513 50.2754C479.844 56.1744 460.967 67.3825 463.917 74.4613C466.866 81.5401 465.687 85.0795 470.406 86.8492C475.125 88.6189 475.176 88.3301 475.176 88.3301Z" fill="#F9B34C"/>
<path d="M544.143 101.596C544.143 101.596 543.553 96.2872 538.244 97.467C532.935 98.6468 518.777 122.243 518.777 122.243C516.467 129.776 514.692 137.464 513.468 145.249C511.109 159.406 506.389 211.317 501.67 220.166C496.951 229.014 505.8 249.661 505.8 249.661C505.8 249.661 511.109 243.762 528.216 247.301C545.322 250.841 567.738 254.38 569.508 252.61C571.278 250.841 567.738 246.121 572.458 240.222C577.177 234.324 583.665 122.833 560.07 110.445C560.07 110.445 548.862 101.596 544.143 101.596Z" fill="#2A3338"/>
<path opacity="0.1" d="M538.243 119.293C538.243 119.293 514.058 125.782 525.266 146.429C525.266 146.429 543.552 182.412 535.884 184.772C528.215 187.132 492.822 185.952 492.822 185.952C492.822 185.952 488.987 198.635 493.117 199.225C497.246 199.814 558.89 220.756 565.968 207.778C573.047 194.8 565.968 138.76 565.968 138.76C565.968 138.76 555.94 111.035 538.243 119.293Z" fill="black"/>
<path d="M435.032 183.189L474.239 204.725C474.466 204.876 474.724 204.975 474.994 205.016C475.263 205.056 475.539 205.038 475.801 204.96C476.062 204.883 476.304 204.75 476.509 204.569C476.713 204.388 476.875 204.165 476.984 203.915L486.589 183.839C486.771 183.266 486.741 182.648 486.506 182.095C486.27 181.543 485.844 181.094 485.304 180.829L452.753 164.051C452.352 163.81 451.876 163.725 451.416 163.813C450.957 163.9 450.546 164.155 450.262 164.527L434.002 179.845C433.842 180.131 433.742 180.446 433.707 180.771C433.672 181.096 433.704 181.425 433.8 181.738C433.897 182.05 434.056 182.34 434.267 182.59C434.479 182.839 434.739 183.043 435.032 183.189V183.189Z" fill="#2F2E41"/>
<path d="M437.648 180.222L474.405 201.232L484.186 183.603L452.654 166.455L437.648 180.222Z" fill="#3F3D56"/>
<path d="M469.189 174.27C469.384 174.107 469.388 173.789 469.196 173.559C469.005 173.33 468.691 173.276 468.495 173.439C468.3 173.603 468.296 173.921 468.488 174.15C468.679 174.38 468.993 174.433 469.189 174.27Z" fill="#F2F2F2"/>
<path d="M455.426 192.167C455.556 192.059 455.559 191.846 455.431 191.693C455.303 191.54 455.094 191.505 454.964 191.613C454.833 191.722 454.831 191.935 454.959 192.088C455.086 192.24 455.295 192.276 455.426 192.167Z" fill="#F2F2F2"/>
<path d="M493.494 201.095C493.494 201.095 455.681 203.745 460.912 196.707C466.143 189.668 491.198 184.359 495.54 186.3C499.881 188.242 493.494 201.095 493.494 201.095Z" fill="#EDC4C4"/>
<path d="M538.243 115.754C538.243 115.754 514.058 122.243 525.266 142.889C525.266 142.889 543.552 178.873 535.884 181.233C528.215 183.592 492.822 182.413 492.822 182.413C492.822 182.413 484.563 202.469 488.692 203.059C492.822 203.649 558.89 217.217 565.968 204.239C573.047 191.261 565.968 135.221 565.968 135.221C565.968 135.221 555.94 107.495 538.243 115.754Z" fill="#2A3338"/>
<path d="M386.171 81.3728H195.818C189.716 81.3728 184.769 86.3198 184.769 92.4221V175.86C184.769 181.963 189.716 186.91 195.818 186.91H386.171C392.273 186.91 397.22 181.963 397.22 175.86V92.4221C397.22 86.3198 392.273 81.3728 386.171 81.3728Z" fill="#F2F2F2"/>
<path d="M201.522 0.48584H11.1689C5.06654 0.48584 0.119629 5.43279 0.119629 11.5352V94.9734C0.119629 101.076 5.06654 106.023 11.1689 106.023H201.522C207.624 106.023 212.571 101.076 212.571 94.9734V11.5352C212.571 5.43279 207.624 0.48584 201.522 0.48584Z" fill="#33AAE0"/>
</svg>
