<svg width="518" height="521" viewBox="0 0 518 521" fill="none" xmlns="http://www.w3.org/2000/svg">
<path opacity="0.1" d="M259 520.196C402.042 520.196 518 505.645 518 487.696C518 469.747 402.042 455.196 259 455.196C115.958 455.196 0 469.747 0 487.696C0 505.645 115.958 520.196 259 520.196Z" fill="#2A3338"/>
<path d="M191.869 381.986C191.262 385.83 190.38 389.626 189.231 393.344C187.936 396.984 185.938 400.35 184.754 404.027C180.982 415.749 186.212 428.818 194.564 437.865C201.808 445.68 211.157 451.231 221.486 453.851C229.021 455.746 236.856 456.019 244.621 456.282C266.124 457.011 288.18 457.664 308.555 450.753C314.992 448.516 321.21 445.692 327.129 442.315C328.998 441.424 330.645 440.128 331.949 438.52C333.503 436.307 333.702 433.438 333.688 430.735C333.643 421.619 331.795 412.55 332.233 403.445C332.476 398.402 333.42 393.362 332.956 388.334C332.313 382.624 329.92 377.252 326.107 372.954C322.293 368.656 317.245 365.641 311.652 364.322C305.872 363.081 299.877 363.757 293.992 364.323C278.717 365.791 263.377 366.477 248.033 366.378C232.354 366.278 216.772 363.885 201.172 363.635C196.558 363.561 196.652 364.983 195.183 369.448C193.83 373.558 192.723 377.744 191.869 381.986Z" fill="#403F5C"/>
<path d="M236.364 156.9C235.61 160.846 234.796 164.935 232.425 168.177C229.697 171.907 225.25 174.038 222.316 177.608C217.899 182.981 217.645 190.542 217.627 197.498C217.61 203.905 217.74 210.74 221.314 216.058C223.633 219.51 227.161 221.93 230.61 224.254C244.01 233.285 258.491 242.478 274.647 242.776C281.341 242.899 288.519 241.17 292.924 236.128C294.825 233.759 296.321 231.091 297.349 228.233C301.48 218.05 303.984 207.28 304.77 196.319C305.138 191.162 305.102 185.854 303.357 180.988C301.394 175.515 297.426 171.013 294.803 165.824C291.702 159.655 290.568 152.683 291.553 145.849C291.684 145.367 291.644 144.856 291.44 144.401C291.224 144.158 290.955 143.967 290.653 143.845C290.352 143.723 290.026 143.672 289.702 143.697L257.666 141.391C254.683 141.242 251.711 140.903 248.771 140.373C247.044 140.022 242.483 137.569 240.836 138.222C237.788 139.429 236.988 153.629 236.364 156.9Z" fill="#EDC4C4"/>
<path opacity="0.1" d="M236.364 156.9C235.61 160.846 234.796 164.935 232.425 168.177C229.697 171.907 225.25 174.038 222.316 177.608C217.899 182.981 217.645 190.542 217.627 197.498C217.61 203.905 217.74 210.74 221.314 216.058C223.633 219.51 227.161 221.93 230.61 224.254C244.01 233.285 258.491 242.478 274.647 242.776C281.341 242.899 288.519 241.17 292.924 236.128C294.825 233.759 296.321 231.091 297.349 228.233C301.48 218.05 303.984 207.28 304.77 196.319C305.138 191.162 305.102 185.854 303.357 180.988C301.394 175.515 297.426 171.013 294.803 165.824C291.702 159.655 290.568 152.683 291.553 145.849C291.684 145.367 291.644 144.856 291.44 144.401C291.224 144.158 290.955 143.967 290.653 143.845C290.352 143.723 290.026 143.672 289.702 143.697L257.666 141.391C254.683 141.242 251.711 140.903 248.771 140.373C247.044 140.022 242.483 137.569 240.836 138.222C237.788 139.429 236.988 153.629 236.364 156.9Z" fill="black"/>
<path d="M267 161.196C292.957 161.196 314 140.154 314 114.196C314 88.2388 292.957 67.1962 267 67.1962C241.043 67.1962 220 88.2388 220 114.196C220 140.154 241.043 161.196 267 161.196Z" fill="#EDC4C4"/>
<path d="M231.782 66.9363L223.639 63.6755C223.639 63.6755 240.665 44.9259 264.353 46.5564L257.69 39.2195C257.69 39.2195 273.976 32.698 288.78 49.8171C296.563 58.8162 305.568 69.3942 311.181 81.3102H319.901L316.262 89.3263L329 97.3424L315.925 95.9025C317.164 102.823 316.74 109.939 314.689 116.663L315.039 122.999C315.039 122.999 299.884 99.544 299.884 96.2832V104.435C299.884 104.435 291.741 97.0985 291.741 92.2073L287.3 97.9137L285.079 88.9465L257.69 97.9137L262.132 90.577L245.106 93.0225L251.769 84.0553C251.769 84.0553 232.522 94.6529 231.782 103.62C231.042 112.587 221.419 124 221.419 124L216.977 115.848C216.977 115.848 210.315 79.1642 231.782 66.9363Z" fill="#F9B34C"/>
<path d="M242.956 219.465C245.405 222.025 248.001 224.56 251.211 226.061C254.479 227.412 257.988 228.08 261.524 228.025C269.996 228.263 279.181 226.711 285.074 220.62C292.672 212.769 292.421 200.105 298.376 190.945C298.856 190.114 299.511 189.398 300.295 188.846C301.294 188.302 302.423 188.043 303.559 188.096C311.08 188.026 317.631 192.903 323.544 197.552C326.193 199.634 328.907 201.792 330.578 204.718C331.748 206.999 332.548 209.451 332.951 211.982C335.885 226.305 336.835 240.95 337.778 255.54C338.299 263.599 338.82 271.666 338.781 279.741C338.654 306.347 332.47 332.507 326.32 358.392C325.528 361.728 324.444 365.456 321.411 367.053C320.059 367.661 318.606 368.016 317.126 368.099C299.513 370.167 281.863 372.239 264.131 372.512C257.211 372.618 250.294 372.451 243.38 372.009C242.189 371.993 241.009 371.788 239.884 371.4C238.357 370.666 237.044 369.552 236.073 368.164C226.481 356.077 225.915 339.367 225.977 323.937C226.126 286.211 227.474 248.516 230.02 210.852C230.23 207.743 230.276 203.967 228.036 201.522C232.07 207.979 237.68 213.95 242.956 219.465Z" fill="#D2D2D2"/>
<path d="M233 165.196C231.413 168.07 219.709 175.205 217.45 177.587C204.826 190.893 181.786 190.393 170.241 204.645C166.179 209.66 164.068 215.96 162.516 222.224C160.321 231.083 159.149 240.744 162.826 249.097C166.365 257.135 173.814 262.692 178.871 269.872C184.424 277.755 186.921 287.327 189.313 296.668C191.08 303.565 192.861 310.633 192.173 317.719C191.391 325.776 187.492 333.154 185.19 340.915C182.888 348.675 182.491 357.919 187.813 364.018C191.724 368.499 197.857 370.275 203.72 371.274C211.229 372.402 218.801 373.062 226.391 373.248C233.093 373.544 240.48 373.602 245.632 369.305C249.698 365.915 251.464 360.414 251.693 355.126C251.922 349.838 250.822 344.596 250.132 339.348C249.418 333.908 249.143 328.42 248.914 322.937C247.883 298.339 247.742 273.724 248.492 249.094C248.648 243.969 248.837 238.781 247.744 233.771C246.307 227.182 242.746 221.294 239.775 215.24C233.877 203.224 231.088 191.552 232 178.196C232.9 165.014 238.649 154.971 233 165.196Z" fill="#2A3338"/>
<path d="M299 166.196C301.418 168.681 309.634 169.5 312.71 171.101C315.603 172.437 318.622 173.483 321.722 174.221C332.941 177.458 343.613 182.356 353.382 188.752C355.411 189.939 357.206 191.489 358.676 193.325C360.397 195.719 361.021 198.706 361.605 201.595C363.111 209.055 364.624 216.606 364.286 224.209C363.927 232.279 361.496 240.096 359.084 247.806L350.073 276.615C343.346 298.119 336.577 319.835 334.685 342.287C333.637 354.73 334.103 367.255 336.071 379.586C336.269 380.826 336.435 382.247 335.617 383.199C335.023 383.786 334.242 384.145 333.41 384.214C329.061 384.894 324.852 382.676 320.911 380.714C308.867 374.721 296.013 370.515 282.756 368.23C287.936 360.743 291.934 352.503 294.607 343.8C296.125 338.273 297.32 332.664 298.187 326.998L302.379 302.753C304.085 293.892 305.285 284.94 305.975 275.942C306.292 272.565 306.095 269.16 305.392 265.842C304.426 262.685 303.143 259.634 301.563 256.734C294.655 242.364 291.413 225.964 294.131 210.253C295.321 203.377 297.633 196.492 296.669 189.581C295.742 182.936 296.705 177.772 295 171.196C288 144.196 294.451 161.521 299 166.196Z" fill="#2A3338"/>
<path d="M170.121 227.366C166.972 233.902 161.706 239.47 159.914 246.5C159.217 249.786 158.918 253.144 159.024 256.501C158.981 261.56 158.954 266.723 160.508 271.538C161.508 274.638 163.135 277.497 164.307 280.537C165.942 284.783 166.67 289.324 166.445 293.868C166.128 300.164 163.99 306.275 163.822 312.576C163.56 322.485 168.143 331.801 172.615 340.647C173.741 337.86 175.462 335.352 177.658 333.299C179.854 331.246 182.472 329.698 185.33 328.762C188.187 327.827 191.214 327.527 194.199 327.884C197.184 328.24 200.055 329.245 202.611 330.827C203.791 329.738 203.917 327.948 203.963 326.343C204.293 314.847 204.612 303.35 204.919 291.853C205.404 274.072 205.865 256.054 201.774 238.743C199.928 230.927 197.054 223.142 191.786 217.08C189.013 213.888 179.596 205.48 175.043 209.056C172.995 210.664 173.474 215.041 173.149 217.258C172.66 220.762 171.639 224.17 170.121 227.366Z" fill="#2A3338"/>
<path d="M365.206 208.532C366.696 213.171 366.785 218.127 366.815 222.999C366.875 232.937 366.744 242.874 366.42 252.81C366.254 257.896 366.025 263.053 364.483 267.903C363.466 271.101 361.896 274.1 360.846 277.288C357.698 286.841 359.418 297.202 359.688 307.257C359.879 310.511 359.601 313.776 358.863 316.951C357.202 323.184 352.737 328.221 349.621 333.869C346.662 339.233 344.876 345.246 341.341 350.25C337.807 355.254 331.688 359.219 325.757 357.683C321.264 356.519 318.071 352.541 315.862 348.459C311.043 339.482 309.395 329.141 311.184 319.11C313.402 306.907 320.57 296.081 323.155 283.95C326.705 267.291 321.31 250.101 321.47 233.069C321.397 230.399 321.759 227.735 322.542 225.182C323.898 221.292 326.811 218.185 329.501 215.065C332.863 211.166 335.987 207.067 338.854 202.79C340.78 199.918 343.396 192.53 346.811 191.915C354.435 190.544 363.315 202.642 365.206 208.532Z" fill="#2A3338"/>
<path d="M130.56 374.577C126.344 373.518 122 373.056 117.656 373.205C113.091 373.458 108.632 374.679 104.576 376.788C100.52 378.897 96.9588 381.845 94.1302 385.437C91.3016 389.029 89.27 393.181 88.1706 397.619C87.0711 402.056 86.929 406.677 87.7536 411.174C88.8064 416.045 90.5272 420.747 92.8672 425.147C96.2895 432.093 100.394 439.022 106.73 443.473C110.436 446.076 114.725 447.699 118.964 449.296L152.333 461.867C157.242 463.716 162.151 465.565 167.109 467.28C192.015 475.889 217.981 481.051 244.286 482.623C252.298 483.1 260.432 483.233 268.249 481.409C270.104 480.976 272.082 480.331 273.156 478.758C273.792 477.649 274.167 476.411 274.253 475.136L276.306 460.761C276.595 458.737 276.873 456.607 276.132 454.702C275.191 452.286 272.833 450.766 270.585 449.475C248.647 436.875 223.033 429.924 204.568 412.631C200.221 408.56 196.583 402.107 191.301 399.341C185.312 396.205 178.259 394.415 172.068 391.526C158.534 385.209 145.228 377.949 130.56 374.577Z" fill="#403F5C"/>
<path opacity="0.1" d="M163.874 393.956C175.669 397.652 225.465 423.257 234 432.196C232.856 432.608 194.039 410.855 192.874 410.505C182.287 407.328 171.64 404.129 161.586 399.479C159.563 398.544 148.445 394.146 148.949 391.594C149.517 388.715 161.78 393.3 163.874 393.956Z" fill="black"/>
<path d="M311.017 490.078C311.686 490.127 312.351 489.932 312.887 489.528C313.122 489.226 313.295 488.88 313.395 488.511C313.495 488.142 313.521 487.756 313.471 487.376C313.453 480.849 313.435 474.321 313.416 467.793C307.785 465.11 301.486 464.25 295.303 463.423L266.454 459.567C267.117 459.656 261.944 471.993 262.737 473.64C264.135 476.543 274.82 479.115 277.835 480.486C288.318 485.251 299.211 490.489 311.017 490.078Z" fill="#EDC4C4"/>
<path d="M220.505 467.725C215.058 468.593 208.979 469.36 205.451 473.6C200.978 478.977 202.882 486.992 205.016 493.653C205.333 495.001 205.97 496.252 206.872 497.302C208.328 498.739 210.56 498.95 212.601 499.079C217.569 499.393 222.855 499.64 227.195 497.203C229.161 495.904 231.054 494.497 232.865 492.989C236.065 490.86 239.583 489.251 243.288 488.224C250.098 486.082 257.109 484.637 264.211 483.912C267.01 483.784 269.78 483.296 272.454 482.459C275.072 481.472 277.497 479.516 278.258 476.823C279.264 473.264 277.195 469.636 275.211 466.515C272.74 462.627 270.122 458.533 266.438 455.671C261.062 451.496 258.403 454.701 252.989 457.373C242.74 462.431 231.79 465.921 220.505 467.725Z" fill="#EDC4C4"/>
<path d="M206.271 472.632L171.685 462.409C167.479 461.166 163.201 459.912 158.814 459.915C154.428 459.919 149.839 461.357 146.995 464.695C144.313 467.843 143.545 472.145 142.876 476.226L141.446 484.955C140.719 489.391 139.991 493.913 140.645 498.36C141.3 502.808 143.57 507.251 147.516 509.404C152.302 512.015 158.168 510.74 163.51 509.648C174.299 507.442 185.273 506.265 196.285 506.133C200.424 506.083 204.766 506.135 208.424 504.197C212.773 501.892 215.374 497.019 215.821 492.118C216.502 484.661 214.016 474.921 206.271 472.632Z" fill="#1A1A1D"/>
<path d="M324.612 463.724C329.096 462.938 333.053 460.39 337.349 458.886C343.396 456.768 349.949 456.768 356.356 456.792C358.708 456.8 361.213 456.853 363.171 458.157C365.993 460.035 366.716 463.795 367.196 467.152L370.091 487.401C370.636 491.21 371.177 495.121 370.328 498.873C369.478 502.626 366.92 506.243 363.197 507.211C358.674 508.387 354.241 505.498 349.97 503.6C339.298 498.857 326.891 500.069 315.763 496.524C313.697 495.866 311.485 494.86 310.643 492.863C310.262 491.738 310.126 490.545 310.245 489.364C310.435 482.855 309.062 473.967 311.022 467.746C312.784 462.152 319.608 463.724 324.612 463.724Z" fill="#1A1A1D"/>
<path d="M397.803 366.427C404.714 364.694 411.878 364.205 418.96 364.981C424.616 365.605 430.444 367.178 434.573 371.093C439.6 375.858 441.215 383.227 441.349 390.152C441.57 403.944 436.996 417.385 428.407 428.179C426.31 430.909 423.816 433.31 421.008 435.302C417.979 437.197 414.751 438.752 411.382 439.941L336.654 469.416C316.995 477.17 297.266 484.947 276.76 490.058C276.2 490.329 275.591 490.485 274.969 490.517C274.347 490.548 273.725 490.455 273.14 490.243C272.555 490.031 272.018 489.704 271.561 489.281C271.104 488.858 270.736 488.348 270.479 487.781C263.932 478.429 258.439 468.381 254.101 457.821C253.896 457.57 253.754 457.274 253.687 456.956C253.621 456.639 253.632 456.31 253.719 455.998C253.807 455.685 253.968 455.399 254.19 455.162C254.412 454.925 254.687 454.746 254.993 454.638L307.849 424.269C311.635 422.094 315.463 419.887 318.607 416.856C320.891 414.643 322.762 412.039 324.13 409.167C325.226 406.879 325.328 401.478 326.727 399.787C328.097 398.131 332.785 397.999 334.949 397.347C338.002 396.412 340.992 395.282 343.9 393.964C355.724 388.674 366.252 380.989 377.587 374.796C383.944 371.161 390.737 368.349 397.803 366.427Z" fill="#403F5C"/>
<path opacity="0.1" d="M367.839 389.106C358.758 395.927 347 402.196 338 409.196C334.928 411.585 283.724 440.373 283 444.196C291.396 445.611 344.883 408.193 352.536 404.459C360.188 400.726 366.972 395.46 373.694 390.234C375.407 388.902 382.667 384.898 377.749 383.41C374.979 382.572 369.884 387.743 367.839 389.106Z" fill="black"/>
<path d="M309 177.196H222V282.196H309V177.196Z" fill="#403F5C"/>
<g opacity="0.2">
<path d="M271.869 237C270.303 238.043 268.15 238.989 267 239.289C267 239.289 268.536 239.882 268.879 241.129C269.222 242.376 270.418 243.401 272.127 242.955C273.835 242.509 274.345 241.04 274.001 239.793C273.658 238.546 271.869 237 271.869 237Z" fill="white"/>
<path d="M258.541 237.149C257.736 235.578 260.347 234.739 261.224 235.979C262.102 237.218 266.8 237.194 266.8 237.194L266.816 239.771C264.729 239.759 259.38 238.67 258.541 237.149Z" fill="white"/>
<path d="M274.928 237.149C275.734 235.578 273.123 234.739 272.246 235.979C271.368 237.218 266.67 237.194 266.67 237.194L266.654 239.771C268.74 239.759 274.09 238.67 274.928 237.149Z" fill="white"/>
<path d="M270.345 230.936C270.361 233.188 268.322 233.884 266.998 233.876C265.675 233.867 263.63 233.206 263.614 230.892C263.605 229.532 265.11 228.931 266.965 228.943C268.821 228.955 270.336 229.576 270.345 230.936Z" fill="white"/>
<path d="M253.086 221.148C252.728 219.816 253.522 218.442 254.851 218.086C256.184 217.729 257.558 218.522 257.915 219.854C258.271 221.184 257.478 222.558 256.145 222.915C254.816 223.271 253.442 222.478 253.086 221.148Z" fill="white"/>
<path d="M276.086 221.148C275.729 219.816 276.522 218.442 277.851 218.086C279.184 217.729 280.558 218.522 280.915 219.854C281.271 221.184 280.478 222.558 279.145 222.915C277.816 223.271 276.442 222.478 276.086 221.148Z" fill="white"/>
</g>
<path d="M180.699 359.819C182.696 362.801 185.037 365.718 188.245 367.327C190.291 368.261 192.524 368.715 194.772 368.655C197.02 368.595 199.225 368.021 201.218 366.979C205.198 364.845 208.457 361.578 210.58 357.592C214.974 349.833 215.884 340.549 215.336 331.649C214.788 322.749 212.887 313.985 212.046 305.108C211.435 298.655 211.385 292.164 211.336 285.682C211.184 284.319 211.47 282.943 212.152 281.754C213.126 280.425 214.907 280.058 216.486 279.589C225.354 276.954 231.241 268.643 235.461 260.41C238.278 254.913 240.729 248.904 240.185 242.751C239.642 236.598 235.219 230.399 229.074 229.771C224.008 229.254 219.33 232.471 215.675 236.018C206.456 245.021 200.531 256.862 198.852 269.638C198.05 275.895 198.28 282.322 196.578 288.395C192.945 301.364 181.576 309.315 175.911 320.985C169.668 333.843 173.114 348.442 180.699 359.819Z" fill="#EDC4C4"/>
<path d="M347.992 310.273C346.699 313.28 344.817 315.999 342.456 318.267C340.096 320.535 337.304 322.308 334.247 323.479C330.448 325.006 326.257 325.262 322.299 324.211C320.337 323.667 318.526 322.677 317.008 321.319C315.49 319.962 314.305 318.272 313.546 316.382C312.941 314.479 312.609 312.499 312.56 310.502C311.992 301.756 312.212 292.744 315.388 284.576C316.613 281.425 318.266 278.438 319.233 275.199C320.183 271.458 320.669 267.614 320.68 263.755L321.724 239.892C321.897 238.16 321.777 236.411 321.37 234.718C320.328 231.265 317.101 229.022 314.14 226.963C306.99 221.99 299.924 216.187 296.459 208.196C295.268 205.79 294.842 203.078 295.237 200.423C296.214 195.684 300.996 192.617 305.722 191.583C308.815 190.907 312.012 190.864 315.122 191.457C318.231 192.049 321.189 193.265 323.816 195.031C326.443 196.797 328.686 199.076 330.408 201.732C332.131 204.388 333.299 207.365 333.84 210.483C334.308 213.176 334.301 215.927 334.575 218.646C335.156 224.415 336.987 229.976 338.132 235.659C340.954 249.659 339.492 264.13 342.283 278.128C344.616 289.831 353.414 297.467 347.992 310.273Z" fill="#EDC4C4"/>
<g filter="url(#filter0_d)">
<rect width="72" height="49.0909" rx="5" transform="matrix(-1 0 0 1 502 171)" fill="white"/>
<path d="M451.409 220.139C452.076 219.754 452.076 218.792 451.409 218.407L438.455 210.927C437.788 210.542 436.955 211.024 436.955 211.793L436.955 226.752C436.955 227.522 437.788 228.003 438.455 227.618L451.409 220.139Z" fill="white"/>
</g>
<g clip-path="url(#clip0)">
<path d="M466 179.182C456.951 179.182 449.636 186.545 449.636 195.545C449.636 199.885 451.36 204.048 454.429 207.116C455.949 208.636 457.753 209.841 459.738 210.663C461.723 211.486 463.851 211.909 466 211.909C470.34 211.909 474.502 210.185 477.571 207.116C480.64 204.048 482.364 199.885 482.364 195.545C482.364 193.397 481.94 191.269 481.118 189.283C480.296 187.298 479.09 185.494 477.571 183.975C476.051 182.455 474.247 181.25 472.262 180.427C470.277 179.605 468.149 179.182 466 179.182ZM462.318 188.705C463.742 188.705 465.1 189.376 466 190.424C466.9 189.376 468.258 188.705 469.682 188.705C472.202 188.705 474.182 190.685 474.182 193.205C474.182 196.298 471.4 198.818 467.178 202.647L466 203.727L464.822 202.647C460.6 198.818 457.818 196.298 457.818 193.205C457.818 190.685 459.798 188.705 462.318 188.705Z" fill="#EF5D5D"/>
</g>
<g filter="url(#filter1_d)">
<rect width="68.6" height="46.6667" rx="5" transform="matrix(-1 0 0 1 433.6 14)" fill="white"/>
<path d="M385.323 60.7554C385.991 60.3707 385.991 59.4071 385.323 59.0224L373.125 51.996C372.459 51.612 371.626 52.0931 371.626 52.8625L371.626 66.9153C371.626 67.6846 372.459 68.1658 373.125 67.7818L385.323 60.7554Z" fill="white"/>
</g>
<g clip-path="url(#clip1)">
<path d="M398.6 22.4C390.858 22.4 384.6 28.7 384.6 36.4C384.6 40.1131 386.075 43.674 388.7 46.2995C390.001 47.5995 391.544 48.6308 393.242 49.3343C394.941 50.0379 396.761 50.4 398.6 50.4C402.313 50.4 405.874 48.925 408.499 46.2995C411.125 43.674 412.6 40.1131 412.6 36.4C412.6 34.5615 412.238 32.741 411.534 31.0425C410.831 29.3439 409.799 27.8005 408.499 26.5005C407.199 25.2005 405.656 24.1693 403.958 23.4657C402.259 22.7621 400.438 22.4 398.6 22.4ZM403.5 30.8C404.057 30.8 404.591 31.0213 404.985 31.4151C405.379 31.8089 405.6 32.3431 405.6 32.9C405.6 33.457 405.379 33.9911 404.985 34.3849C404.591 34.7788 404.057 35 403.5 35C402.943 35 402.409 34.7788 402.015 34.3849C401.621 33.9911 401.4 33.457 401.4 32.9C401.4 32.3431 401.621 31.8089 402.015 31.4151C402.409 31.0213 402.943 30.8 403.5 30.8ZM393.7 30.8C394.257 30.8 394.791 31.0213 395.185 31.4151C395.579 31.8089 395.8 32.3431 395.8 32.9C395.8 33.457 395.579 33.9911 395.185 34.3849C394.791 34.7788 394.257 35 393.7 35C393.143 35 392.609 34.7788 392.215 34.3849C391.821 33.9911 391.6 33.457 391.6 32.9C391.6 32.3431 391.821 31.8089 392.215 31.4151C392.609 31.0213 393.143 30.8 393.7 30.8ZM398.6 44.1C395.338 44.1 392.566 42.056 391.446 39.2H405.754C404.62 42.056 401.862 44.1 398.6 44.1Z" fill="#FFB800"/>
</g>
<g filter="url(#filter2_d)">
<rect x="41" y="134" width="65" height="44.2177" rx="5" fill="white"/>
<path d="M86.8225 178.347C86.1547 177.963 86.1547 176.999 86.8225 176.614L98.2225 170.047C98.8892 169.663 99.7216 170.145 99.7216 170.914L99.7216 184.048C99.7216 184.817 98.8892 185.298 98.2225 184.914L86.8225 178.347Z" fill="white"/>
</g>
<g clip-path="url(#clip2)">
<path d="M85.7173 145.448L83.9398 143.67C83.449 143.153 82.5867 143.153 82.0694 143.67L70.1837 155.556L73.8316 159.204L85.7173 147.318C86.2347 146.801 86.2347 145.939 85.7173 145.448ZM67.5306 157.878C66.4751 157.878 65.4629 158.297 64.7166 159.043C63.9703 159.789 63.551 160.802 63.551 161.857C63.551 163.595 62.0122 164.51 60.8979 164.51C62.1184 166.129 64.2143 167.163 66.2041 167.163C67.6113 167.163 68.961 166.604 69.9561 165.609C70.9512 164.614 71.5102 163.264 71.5102 161.857C71.5102 160.802 71.0909 159.789 70.3446 159.043C69.5983 158.297 68.5861 157.878 67.5306 157.878Z" fill="#33AAE0"/>
</g>
<g filter="url(#filter3_d)">
<rect x="112" y="20" width="68" height="46.2585" rx="5" fill="white"/>
<path d="M159.868 66.354C159.2 65.9693 159.2 65.0057 159.868 64.621L171.933 57.6712C172.599 57.2872 173.432 57.7683 173.432 58.5377L173.432 72.4373C173.432 73.2067 172.599 73.6879 171.933 73.3038L159.868 66.354Z" fill="white"/>
</g>
<g clip-path="url(#clip3)">
<path d="M156.408 38.0408L145.306 44.9796L134.204 38.0408V35.2653L145.306 42.2041L156.408 35.2653V38.0408ZM156.408 32.4898H134.204C132.664 32.4898 131.429 33.7249 131.429 35.2653V51.9184C131.429 52.6545 131.721 53.3605 132.242 53.881C132.762 54.4015 133.468 54.6939 134.204 54.6939H156.408C157.144 54.6939 157.85 54.4015 158.371 53.881C158.891 53.3605 159.184 52.6545 159.184 51.9184V35.2653C159.184 33.7249 157.935 32.4898 156.408 32.4898Z" fill="#B122FF"/>
</g>
<defs>
<filter id="filter0_d" x="427" y="170" width="78" height="64.9091" filterUnits="userSpaceOnUse" color-interpolation-filters="sRGB">
<feFlood flood-opacity="0" result="BackgroundImageFix"/>
<feColorMatrix in="SourceAlpha" type="matrix" values="0 0 0 0 0 0 0 0 0 0 0 0 0 0 0 0 0 0 127 0"/>
<feOffset dy="2"/>
<feGaussianBlur stdDeviation="1.5"/>
<feColorMatrix type="matrix" values="0 0 0 0 0 0 0 0 0 0 0 0 0 0 0 0 0 0 0.1 0"/>
<feBlend mode="normal" in2="BackgroundImageFix" result="effect1_dropShadow"/>
<feBlend mode="normal" in="SourceGraphic" in2="effect1_dropShadow" result="shape"/>
</filter>
<filter id="filter1_d" x="362" y="13" width="74.6" height="62" filterUnits="userSpaceOnUse" color-interpolation-filters="sRGB">
<feFlood flood-opacity="0" result="BackgroundImageFix"/>
<feColorMatrix in="SourceAlpha" type="matrix" values="0 0 0 0 0 0 0 0 0 0 0 0 0 0 0 0 0 0 127 0"/>
<feOffset dy="2"/>
<feGaussianBlur stdDeviation="1.5"/>
<feColorMatrix type="matrix" values="0 0 0 0 0 0 0 0 0 0 0 0 0 0 0 0 0 0 0.1 0"/>
<feBlend mode="normal" in2="BackgroundImageFix" result="effect1_dropShadow"/>
<feBlend mode="normal" in="SourceGraphic" in2="effect1_dropShadow" result="shape"/>
</filter>
<filter id="filter2_d" x="38" y="133" width="71" height="59.0612" filterUnits="userSpaceOnUse" color-interpolation-filters="sRGB">
<feFlood flood-opacity="0" result="BackgroundImageFix"/>
<feColorMatrix in="SourceAlpha" type="matrix" values="0 0 0 0 0 0 0 0 0 0 0 0 0 0 0 0 0 0 127 0"/>
<feOffset dy="2"/>
<feGaussianBlur stdDeviation="1.5"/>
<feColorMatrix type="matrix" values="0 0 0 0 0 0 0 0 0 0 0 0 0 0 0 0 0 0 0.1 0"/>
<feBlend mode="normal" in2="BackgroundImageFix" result="effect1_dropShadow"/>
<feBlend mode="normal" in="SourceGraphic" in2="effect1_dropShadow" result="shape"/>
</filter>
<filter id="filter3_d" x="109" y="19" width="74" height="61.5102" filterUnits="userSpaceOnUse" color-interpolation-filters="sRGB">
<feFlood flood-opacity="0" result="BackgroundImageFix"/>
<feColorMatrix in="SourceAlpha" type="matrix" values="0 0 0 0 0 0 0 0 0 0 0 0 0 0 0 0 0 0 127 0"/>
<feOffset dy="2"/>
<feGaussianBlur stdDeviation="1.5"/>
<feColorMatrix type="matrix" values="0 0 0 0 0 0 0 0 0 0 0 0 0 0 0 0 0 0 0.1 0"/>
<feBlend mode="normal" in2="BackgroundImageFix" result="effect1_dropShadow"/>
<feBlend mode="normal" in="SourceGraphic" in2="effect1_dropShadow" result="shape"/>
</filter>
<clipPath id="clip0">
<rect width="32.7273" height="32.7273" fill="white" transform="translate(449.636 179.182)"/>
</clipPath>
<clipPath id="clip1">
<rect width="28" height="28" fill="white" transform="translate(384.6 22.4)"/>
</clipPath>
<clipPath id="clip2">
<rect width="26.5306" height="25.2041" fill="white" transform="translate(60.8979 141.959)"/>
</clipPath>
<clipPath id="clip3">
<rect width="27.7551" height="22.2041" fill="white" transform="translate(131.429 32.4898)"/>
</clipPath>
</defs>
</svg>
