<svg width="293" height="22" viewBox="0 0 293 22" fill="none" xmlns="http://www.w3.org/2000/svg">
<g opacity="0.2">
<rect width="2.76965" height="27.4148" rx="1.38482" transform="matrix(0.938053 0.346491 -0.669961 0.742396 18.3669 0)" fill="#2A3338"/>
<rect width="2.76965" height="27.412" rx="1.38482" transform="matrix(-0.938053 0.346491 0.669961 0.742396 19.5981 0)" fill="#2A3338"/>
<rect width="2.76965" height="27.4148" rx="1.38482" transform="matrix(0.938053 0.346491 -0.669961 0.742396 52.3669 0)" fill="#2A3338"/>
<rect width="2.76965" height="27.412" rx="1.38482" transform="matrix(-0.938053 0.346491 0.669961 0.742396 53.5981 0)" fill="#2A3338"/>
<rect width="2.76965" height="27.4148" rx="1.38482" transform="matrix(0.938053 0.346491 -0.669961 0.742396 86.3669 0)" fill="#2A3338"/>
<rect width="2.76965" height="27.412" rx="1.38482" transform="matrix(-0.938053 0.346491 0.669961 0.742396 87.5981 0)" fill="#2A3338"/>
<rect width="2.76965" height="27.4148" rx="1.38482" transform="matrix(0.938053 0.346491 -0.669961 0.742396 120.367 0)" fill="#2A3338"/>
<rect width="2.76965" height="27.412" rx="1.38482" transform="matrix(-0.938053 0.346491 0.669961 0.742396 121.598 0)" fill="#2A3338"/>
<rect width="2.76965" height="27.4148" rx="1.38482" transform="matrix(0.938053 0.346491 -0.669961 0.742396 154.367 0)" fill="#2A3338"/>
<rect width="2.76965" height="27.412" rx="1.38482" transform="matrix(-0.938053 0.346491 0.669961 0.742396 155.598 0)" fill="#2A3338"/>
<rect width="2.76965" height="27.4148" rx="1.38482" transform="matrix(0.938053 0.346491 -0.669961 0.742396 188.367 0)" fill="#2A3338"/>
<rect width="2.76965" height="27.412" rx="1.38482" transform="matrix(-0.938053 0.346491 0.669961 0.742396 189.598 0)" fill="#2A3338"/>
<rect width="2.76965" height="27.4148" rx="1.38482" transform="matrix(0.938053 0.346491 -0.669961 0.742396 222.367 0)" fill="#2A3338"/>
<rect width="2.76965" height="27.412" rx="1.38482" transform="matrix(-0.938053 0.346491 0.669961 0.742396 223.598 0)" fill="#2A3338"/>
<rect width="2.76965" height="27.4148" rx="1.38482" transform="matrix(0.938053 0.346491 -0.669961 0.742396 256.367 0)" fill="#2A3338"/>
<rect width="2.76965" height="27.4148" rx="1.38482" transform="matrix(0.938053 0.346491 -0.669961 0.742396 290.367 0)" fill="#2A3338"/>
<rect width="2.76965" height="27.412" rx="1.38482" transform="matrix(-0.938053 0.346491 0.669961 0.742396 257.598 0)" fill="#2A3338"/>
</g>
</svg>
