<svg width="42" height="48" viewBox="0 0 42 48" fill="none" xmlns="http://www.w3.org/2000/svg">
<circle cx="27.9069" cy="30.6977" r="10.0465" fill="#F15151"/>
<rect x="0.6" y="0.6" width="28.9395" height="34.5209" rx="2.4" stroke="white" stroke-width="1.2"/>
<rect x="4.50723" y="4.50698" width="21.1256" height="4.3814" rx="1.4" stroke="white" stroke-width="1.2"/>
<rect x="4.50723" y="12.3209" width="4.3814" height="4.3814" rx="1.4" stroke="white" stroke-width="1.2"/>
<rect x="12.8793" y="12.3209" width="4.3814" height="4.3814" rx="1.4" stroke="white" stroke-width="1.2"/>
<rect x="21.2514" y="12.3209" width="4.3814" height="4.3814" rx="1.4" stroke="white" stroke-width="1.2"/>
<rect x="4.50723" y="20.1349" width="21.1256" height="11.0791" rx="1.4" stroke="white" stroke-width="1.2"/>
<path fill-rule="evenodd" clip-rule="evenodd" d="M41.861 34.8838C41.861 35.6543 41.2363 36.2791 40.4659 36.2791C39.6954 36.2791 39.0703 35.6543 39.0703 34.8838C39.0703 34.1132 39.6954 33.4884 40.4659 33.4884C41.2363 33.4884 41.861 34.1132 41.861 34.8838Z" fill="white"/>
<path fill-rule="evenodd" clip-rule="evenodd" d="M29.2469 42.9218H26.846V40.5201C26.846 40.0272 26.4461 39.6279 25.9533 39.6279C25.4611 39.6279 25.0619 40.0272 25.0619 40.5201V42.9218H22.6603C22.1668 42.9218 21.7676 43.3211 21.7676 43.814C21.7676 44.3069 22.1668 44.7061 22.6603 44.7061H25.0619V47.1079C25.0619 47.6008 25.4611 48 25.9533 48C26.4461 48 26.846 47.6008 26.846 47.1079V44.7061H29.2469C29.7398 44.7061 30.1397 44.3069 30.1397 43.814C30.1397 43.3211 29.7398 42.9218 29.2469 42.9218Z" fill="white"/>
<path fill-rule="evenodd" clip-rule="evenodd" d="M36.2785 17.3023C36.2785 18.227 35.5289 18.9768 34.6044 18.9768C33.6798 18.9768 32.9297 18.227 32.9297 17.3023C32.9297 16.3776 33.6798 15.6279 34.6044 15.6279C35.5289 15.6279 36.2785 16.3776 36.2785 17.3023Z" fill="white"/>
</svg>
