<svg width="39" height="48" viewBox="0 0 39 48" fill="none" xmlns="http://www.w3.org/2000/svg">
<mask id="mask0" mask-type="alpha" maskUnits="userSpaceOnUse" x="3" y="16" width="28" height="28">
<circle cx="17.2262" cy="30.4613" r="11.0387" fill="white" stroke="white" stroke-width="5"/>
</mask>
<g mask="url(#mask0)">
<circle cx="17.2262" cy="30.4613" r="13.5387" fill="#EB4343"/>
<circle cx="18.1646" cy="31.9753" r="13.1519" fill="#111213"/>
</g>
<mask id="mask1" mask-type="alpha" maskUnits="userSpaceOnUse" x="0" y="3" width="39" height="39">
<path d="M6.49803 17.0725L6.45423 17.0752L6.41055 17.0794C4.03914 17.3092 3.36354 16.6651 3.12486 16.3586C2.73122 15.8529 2.50472 14.9368 2.50007 13.5269C2.52663 13.4615 2.62865 13.2617 2.96714 12.8782C3.54887 12.2191 4.44479 11.431 5.82993 10.2126L5.83229 10.2105L5.84335 10.2008L5.85429 10.1909C8.77776 7.55753 11.9904 6.08213 16.2331 5.57634C21.654 5.05046 27.3736 7.28299 31.2052 11.1351C34.9886 14.9387 36.7737 20.1265 34.8524 25.678C34.3492 27.1321 33.4939 29.0874 32.2407 31.1207C32.1058 22.2506 24.6041 15.1954 15.869 15.1954C13.6807 15.1954 11.5934 15.6186 9.71239 16.3666C9.65324 16.3845 9.56534 16.4109 9.45458 16.4431C9.22877 16.5088 8.91276 16.5973 8.55488 16.6882C7.793 16.8815 7.01013 17.0409 6.49803 17.0725ZM2.49181 13.5514C2.49154 13.5515 2.49227 13.548 2.49481 13.5407C2.49335 13.5477 2.49208 13.5513 2.49181 13.5514Z" fill="white" stroke="white" stroke-width="5" stroke-miterlimit="10"/>
</mask>
<g mask="url(#mask1)">
<path d="M6.62095 19.0687L6.61219 19.0692L6.60346 19.0701C3.81059 19.3407 2.34513 18.6127 1.54671 17.5871C0.716464 16.5207 0.5 15.0053 0.5 13.4825C0.5 12.9171 0.78225 12.3313 1.46766 11.5548C2.13411 10.7997 3.11055 9.94086 4.39427 8.81177C4.43301 8.7777 4.47203 8.74338 4.51132 8.70881L4.51135 8.70884L4.51572 8.7049C7.76109 5.78156 11.3683 4.13838 16.0179 3.58784C22.0848 2.99176 28.3945 5.47341 32.6232 9.72463C36.8422 13.9661 38.958 19.9301 36.7424 26.3321C35.662 29.4541 33.0099 34.9115 28.2532 38.7913C28.5517 38.3628 28.8168 37.9196 29.0482 37.4527C29.8669 35.8008 30.2425 33.8951 30.2425 31.3638C30.2425 23.5283 23.6236 17.1954 15.869 17.1954C13.9105 17.1954 12.0481 17.5798 10.3791 18.254L10.3726 18.256L10.2971 18.2792C10.2309 18.2993 10.1342 18.3283 10.0131 18.3635C9.77075 18.434 9.43198 18.529 9.04682 18.6267C8.26729 18.8245 7.33153 19.0249 6.62095 19.0687Z" fill="#111213" stroke="white" stroke-miterlimit="10"/>
<path d="M21.6447 44.7178C36.33 37.0001 32.5019 21.3801 22.7946 16.8474C13.0874 12.3148 -4.33403 24.0734 1.84437 9.89298C8.02278 -4.28742 -12.8643 19.6374 -12.8643 19.6374L-2.93082 22.2259L12.5262 25.0304L3.51808 37.8231C6.90777 41.3754 5.78879 53.0507 21.6447 44.7178Z" fill="url(#paint0_linear)"/>
<path d="M21.6447 44.7178C36.33 37.0001 32.5019 21.3801 22.7946 16.8474C13.0874 12.3148 -4.33403 24.0734 1.84437 9.89298C8.02278 -4.28742 -12.8643 19.6374 -12.8643 19.6374L-2.93082 22.2259L12.5262 25.0304L3.51808 37.8231C6.90777 41.3754 5.78879 53.0507 21.6447 44.7178Z" fill="white"/>
</g>
<mask id="mask2" mask-type="alpha" maskUnits="userSpaceOnUse" x="12" y="6" width="4" height="5">
<path d="M14.0436 10.4046C14.9991 10.4046 15.7736 9.62986 15.7736 8.67417C15.7736 7.71847 14.9991 6.94373 14.0436 6.94373C13.0881 6.94373 12.3135 7.71847 12.3135 8.67417C12.3135 9.62986 13.0881 10.4046 14.0436 10.4046Z" fill="#9912D9"/>
<path d="M14.0436 10.4046C14.9991 10.4046 15.7736 9.62986 15.7736 8.67417C15.7736 7.71847 14.9991 6.94373 14.0436 6.94373C13.0881 6.94373 12.3135 7.71847 12.3135 8.67417C12.3135 9.62986 13.0881 10.4046 14.0436 10.4046Z" fill="url(#paint1_linear)"/>
<path d="M14.0436 10.4046C14.9991 10.4046 15.7736 9.62986 15.7736 8.67417C15.7736 7.71847 14.9991 6.94373 14.0436 6.94373C13.0881 6.94373 12.3135 7.71847 12.3135 8.67417C12.3135 9.62986 13.0881 10.4046 14.0436 10.4046Z" fill="#161718"/>
</mask>
<g mask="url(#mask2)">
<path d="M14.6149 10.8629C15.5704 10.8629 16.3449 10.0881 16.3449 9.13242C16.3449 8.17672 15.5704 7.40198 14.6149 7.40198C13.6594 7.40198 12.8848 8.17672 12.8848 9.13242C12.8848 10.0881 13.6594 10.8629 14.6149 10.8629Z" fill="#9912D9"/>
<path d="M14.6149 10.8629C15.5704 10.8629 16.3449 10.0881 16.3449 9.13242C16.3449 8.17672 15.5704 7.40198 14.6149 7.40198C13.6594 7.40198 12.8848 8.17672 12.8848 9.13242C12.8848 10.0881 13.6594 10.8629 14.6149 10.8629Z" fill="url(#paint2_linear)"/>
<path d="M14.6149 10.8629C15.5704 10.8629 16.3449 10.0881 16.3449 9.13242C16.3449 8.17672 15.5704 7.40198 14.6149 7.40198C13.6594 7.40198 12.8848 8.17672 12.8848 9.13242C12.8848 10.0881 13.6594 10.8629 14.6149 10.8629Z" fill="white"/>
<path d="M14.0436 10.4046C14.9991 10.4046 15.7736 9.62986 15.7736 8.67417C15.7736 7.71847 14.9991 6.94373 14.0436 6.94373C13.0881 6.94373 12.3135 7.71847 12.3135 8.67417C12.3135 9.62986 13.0881 10.4046 14.0436 10.4046Z" fill="white"/>
</g>
<defs>
<linearGradient id="paint0_linear" x1="-4.80877" y1="18.2282" x2="23.3639" y2="42.3057" gradientUnits="userSpaceOnUse">
<stop stop-color="#AF3738"/>
<stop offset="1" stop-color="#7C2EDF"/>
</linearGradient>
<linearGradient id="paint1_linear" x1="10.3363" y1="4.47167" x2="10.3164" y2="11.5953" gradientUnits="userSpaceOnUse">
<stop offset="0.130208" stop-color="#F67147"/>
<stop offset="1" stop-color="#F45A2A" stop-opacity="0"/>
</linearGradient>
<linearGradient id="paint2_linear" x1="10.9075" y1="4.92992" x2="10.8877" y2="12.0535" gradientUnits="userSpaceOnUse">
<stop offset="0.130208" stop-color="#F67147"/>
<stop offset="1" stop-color="#F45A2A" stop-opacity="0"/>
</linearGradient>
</defs>
</svg>
