<svg width="207" height="322" viewBox="0 0 207 322" fill="none" xmlns="http://www.w3.org/2000/svg">
<path d="M141.502 9.39648C214.463 9.39648 273.495 68.4285 273.495 141.279C273.495 214.129 214.463 273.272 141.502 273.272C68.5408 273.272 9.50879 214.24 9.50879 141.389C9.50879 68.5391 68.5408 9.39648 141.502 9.39648Z" fill="#E74D89"/>
<path d="M141.5 282.668C63.4539 282.668 0 219.325 0 141.389C0 63.3434 63.4539 0 141.5 0C219.546 0 283 63.3434 283 141.279C283 219.214 219.546 282.668 141.5 282.668ZM260.78 160.625C256.69 159.298 223.415 149.459 185.498 155.429C201.306 198.763 207.718 234.138 208.934 241.434C236.128 223.194 255.474 194.231 260.78 160.625ZM188.704 252.6C186.935 241.987 179.86 205.064 162.946 161.067C162.725 161.177 162.393 161.288 162.172 161.288C93.9648 185.055 69.534 232.259 67.3231 236.681C87.7742 252.6 113.532 262.107 141.5 262.107C158.193 262.217 174.222 258.79 188.704 252.6ZM51.7359 222.199C54.4996 217.556 87.6637 162.725 150.012 142.495C151.56 141.942 153.218 141.5 154.766 141.058C151.781 134.204 148.464 127.35 144.927 120.607C84.5684 138.626 25.9785 137.852 20.6723 137.741C20.6723 138.957 20.5617 140.173 20.5617 141.389C20.6723 172.453 32.3902 200.753 51.7359 222.199ZM23.2148 116.737C28.6316 116.848 78.3777 117.069 134.978 102.035C114.969 66.4387 93.3016 36.591 90.2062 32.2797C56.2684 48.1984 31.0637 79.3727 23.2148 116.737ZM113.2 24.0992C116.516 28.5211 138.515 58.3687 158.303 94.7387C201.306 78.5988 219.436 54.2785 221.646 51.1832C200.311 32.2797 172.232 20.7828 141.5 20.7828C131.772 20.7828 122.265 21.9988 113.2 24.0992ZM235.023 65.1121C232.48 68.5391 212.25 94.5176 167.589 112.758C170.353 118.506 173.116 124.365 175.659 130.224C176.543 132.325 177.428 134.425 178.312 136.415C218.551 131.33 258.459 139.51 262.438 140.284C262.107 111.873 251.936 85.6738 235.023 65.1121Z" fill="#B2215A"/>
<ellipse opacity="0.05" cx="142" cy="312.5" rx="112" ry="9.5" fill="black"/>
</svg>
