<svg width="207" height="322" viewBox="0 0 207 322" fill="none" xmlns="http://www.w3.org/2000/svg">
<path d="M141.502 9.39648C214.463 9.39648 273.495 68.4285 273.495 141.279C273.495 214.129 214.463 273.272 141.502 273.272C68.5408 273.272 9.50879 214.24 9.50879 141.389C9.50879 68.5391 68.5408 9.39648 141.502 9.39648Z" fill="white"/>
<g clip-path="url(#clip0)">
<path d="M184.923 0H98.0508C18.7754 0 -0.0175781 18.793 -0.0175781 98.0683V184.941C-0.0175781 264.216 18.7754 283.009 98.0508 283.009H184.923C264.198 283.009 282.991 264.216 282.991 184.941V98.0683C282.991 18.793 264.013 0 184.923 0ZM228.452 201.885H207.908C200.125 201.885 197.729 195.712 183.729 181.527C171.569 169.738 166.183 168.173 163.185 168.173C158.949 168.173 157.746 169.367 157.746 175.177V193.74C157.746 198.719 156.181 201.708 143.004 201.708C121.213 201.708 97.0337 188.531 80.0803 163.981C54.513 128.004 47.5176 101.058 47.5176 95.486C47.5176 92.4879 48.7115 89.6845 54.4688 89.6845H75.057C80.266 89.6845 82.247 92.0811 84.2722 97.6527C94.4514 127.04 111.405 152.785 118.4 152.785C120.983 152.785 122.177 151.591 122.177 145.002V114.65C121.389 100.651 114.023 99.448 114.023 94.4778C114.023 92.0811 116.004 89.6845 119.178 89.6845H151.555C155.933 89.6845 157.543 92.0811 157.543 97.237V138.184C157.543 142.605 159.524 144.171 160.718 144.171C163.3 144.171 165.511 142.605 170.295 137.812C185.082 121.23 195.677 95.6628 195.677 95.6628C197.057 92.6648 199.453 89.8613 204.662 89.8613H225.25C231.423 89.8613 232.803 93.0363 231.423 97.4581C228.841 109.433 203.645 144.993 203.645 144.993C201.478 148.584 200.647 150.149 203.645 154.155C205.856 157.153 213.046 163.371 217.831 168.942C226.63 178.936 233.396 187.319 235.2 193.121C237.225 198.878 234.236 201.876 228.425 201.876L228.452 201.885Z" fill="#4A76A8"/>
</g>
<ellipse opacity="0.05" cx="142" cy="312.5" rx="112" ry="9.5" fill="black"/>
<defs>
<clipPath id="clip0">
<rect width="283" height="283" fill="white"/>
</clipPath>
</defs>
</svg>
